<?xml version="1.0" standalone="no" ?>
<!DOCTYPE svg PUBLIC "-//W3C//DTD SVG 1.1//EN" "http://www.w3.org/Graphics/SVG/1.1/DTD/svg11.dtd">
<svg width="146px" height="93px" viewBox="0 0 146 93" xmlns="http://www.w3.org/2000/svg" xmlns:xlink="http://www.w3.org/1999/xlink" version="1.1" >
<text x="0" y="0" stroke="transparent" fill="#000000" transform="matrix(0.0666667 0 0 0.0666667 102.174 89.4849)" style="font:normal normal normal 200px 'Arial'" >
O</text>
<path stroke="transparent" fill="#000000" transform="matrix(0.0666667 0 0 0.0666667 -287.433 -433.433)" d="M 6019.73,7720.96 L 6009.73,7703.64 L 6436.73,7457.11 L 6446.73,7474.43 L 6019.73,7720.96 Z " />
<path stroke="transparent" fill="#000000" transform="matrix(0.0666667 0 0 0.0666667 -287.433 -433.433)" d="M 5402.5,7477.32 L 5402.5,7465.77 L 5412.5,7460 L 5834.5,7703.64 L 5824.5,7720.96 L 5402.5,7477.32 Z " />
<path stroke="transparent" fill="#000000" transform="matrix(0.0666667 0 0 0.0666667 -287.433 -433.433)" d="M 4882.88,7777.32 L 4882.88,7754.23 L 5392.5,7460 L 5402.5,7465.77 L 5402.5,7477.32 L 4882.88,7777.32 Z " />
<path stroke="transparent" fill="#000000" transform="matrix(0.0666667 0 0 0.0666667 -287.433 -433.433)" d="M 4353.27,7471.55 L 4373.27,7460 L 4882.88,7754.23 L 4882.88,7777.32 L 4353.27,7471.55 Z " />
<path stroke="transparent" fill="#000000" transform="matrix(0.0666667 0 0 0.0666667 -287.433 -433.433)" d="M 4430.27,7432.86 L 4440.27,7415.54 L 4887.88,7673.97 L 4877.88,7691.3 L 4430.27,7432.86 Z " />
<path stroke="transparent" fill="#000000" transform="matrix(0.0666667 0 0 0.0666667 -287.433 -433.433)" d="M 4353.27,6860 L 4373.27,6871.55 L 4373.27,7460 L 4353.27,7471.55 L 4353.27,6860 Z " />
<path stroke="transparent" fill="#000000" transform="matrix(0.0666667 0 0 0.0666667 -287.433 -433.433)" d="M 4882.88,6554.23 L 4882.88,6577.32 L 4373.27,6871.55 L 4353.27,6860 L 4882.88,6554.23 Z " />
<path stroke="transparent" fill="#000000" transform="matrix(0.0666667 0 0 0.0666667 -287.433 -433.433)" d="M 4877.88,6640.25 L 4887.88,6657.57 L 4440.27,6916 L 4430.27,6898.68 L 4877.88,6640.25 Z " />
<path stroke="transparent" fill="#000000" transform="matrix(0.0666667 0 0 0.0666667 -287.433 -433.433)" d="M 5412.5,6860 L 5392.5,6871.55 L 4882.88,6577.32 L 4882.88,6554.23 L 5412.5,6860 Z " />
<path stroke="transparent" fill="#000000" transform="matrix(0.0666667 0 0 0.0666667 -287.433 -433.433)" d="M 5392.5,6871.55 L 5412.5,6860 L 5412.5,7460 L 5402.5,7465.77 L 5392.5,7460 L 5392.5,6871.55 Z " />
<path stroke="transparent" fill="#000000" transform="matrix(0.0666667 0 0 0.0666667 -287.433 -433.433)" d="M 5320.5,6907.34 L 5340.5,6907.34 L 5340.5,7424.2 L 5320.5,7424.2 L 5320.5,6907.34 Z " />
</svg>
