<?xml version="1.0" standalone="no" ?>
<!DOCTYPE svg PUBLIC "-//W3C//DTD SVG 1.1//EN" "http://www.w3.org/Graphics/SVG/1.1/DTD/svg11.dtd">
<svg width="148px" height="123px" viewBox="0 0 148 123" xmlns="http://www.w3.org/2000/svg" xmlns:xlink="http://www.w3.org/1999/xlink" version="1.1" >
<text x="0" y="0" stroke="transparent" fill="#000000" transform="matrix(0.0666667 0 0 0.0666667 67.4493 66.6044)" style="font:normal normal normal 200px 'Arial'" >
O</text>
<text x="0" y="0" stroke="transparent" fill="#000000" transform="matrix(0.0666667 0 0 0.0666667 2.72991 66.6044)" style="font:normal normal normal 200px 'Arial'" >
O</text>
<text x="0" y="0" stroke="transparent" fill="#000000" transform="matrix(0.0666667 0 0 0.0666667 124.374 104.647)" style="font:normal normal normal 200px 'Arial'" >
OH</text>
<path stroke="transparent" fill="#000000" transform="matrix(0.0666667 0 0 0.0666667 -286.433 -425.433)" d="M 5193.58,7863.2 L 5200.84,7873.2 L 5198.16,7883.2 L 4593.58,7883.2 L 4608.11,7863.2 L 5193.58,7863.2 Z " />
<path stroke="transparent" fill="#000000" transform="matrix(0.0666667 0 0 0.0666667 -286.433 -425.433)" d="M 5339.09,7415.31 L 5358.12,7421.49 L 5212.85,7868.59 L 5200.84,7873.2 L 5193.58,7863.2 L 5339.09,7415.31 Z " />
<path stroke="transparent" fill="#000000" transform="matrix(0.0666667 0 0 0.0666667 -286.433 -425.433)" d="M 4900.84,6962.25 L 4900.84,6949.89 L 4914.01,6947.1 L 5305.61,7231.62 L 5293.85,7247.8 L 4900.84,6962.25 Z " />
<path stroke="transparent" fill="#000000" transform="matrix(0.0666667 0 0 0.0666667 -286.433 -425.433)" d="M 4507.83,7247.8 L 4496.08,7231.62 L 4887.68,6947.1 L 4900.84,6949.89 L 4900.84,6962.25 L 4507.83,7247.8 Z " />
<path stroke="transparent" fill="#000000" transform="matrix(0.0666667 0 0 0.0666667 -286.433 -425.433)" d="M 4608.11,7863.2 L 4593.58,7883.2 L 4443.57,7421.49 L 4462.59,7415.31 L 4608.11,7863.2 Z " />
<path stroke="transparent" fill="#000000" transform="matrix(0.0666667 0 0 0.0666667 -286.433 -425.433)" d="M 4592.18,6435.26 L 4609.5,6425.26 L 4900.84,6929.89 L 4900.84,6949.89 L 4887.68,6947.1 L 4592.18,6435.26 Z " />
<path stroke="transparent" fill="#000000" transform="matrix(0.0666667 0 0 0.0666667 -286.433 -425.433)" d="M 5192.18,6425.26 L 5209.5,6435.26 L 4914.01,6947.1 L 4900.84,6949.89 L 4900.84,6929.89 L 5192.18,6425.26 Z " />
<path stroke="transparent" fill="#000000" transform="matrix(0.0666667 0 0 0.0666667 -286.433 -425.433)" d="M 5720.48,8161.65 L 5720.48,8184.74 L 5198.16,7883.2 L 5200.84,7873.2 L 5212.85,7868.59 L 5720.48,8161.65 Z " />
<path stroke="transparent" fill="#000000" transform="matrix(0.0666667 0 0 0.0666667 -286.433 -425.433)" d="M 6135.51,7922.05 L 6145.51,7939.37 L 5720.48,8184.74 L 5720.48,8161.65 L 6135.51,7922.05 Z " />
</svg>
