<?xml version="1.0" standalone="no" ?>
<!DOCTYPE svg PUBLIC "-//W3C//DTD SVG 1.1//EN" "http://www.w3.org/Graphics/SVG/1.1/DTD/svg11.dtd">
<svg width="161px" height="88px" viewBox="0 0 161 88" xmlns="http://www.w3.org/2000/svg" xmlns:xlink="http://www.w3.org/1999/xlink" version="1.1" >
<text x="0" y="0" stroke="transparent" fill="#000000" transform="matrix(0.0666667 0 0 0.0666667 137.568 68.7667)" style="font:normal normal normal 200px 'Arial'" >
OH</text>
<path stroke="transparent" fill="#000000" transform="matrix(0.0666667 0 0 0.0666667 -279.433 -436.433)" d="M 5293.78,7511.55 L 5293.78,7500 L 5303.78,7494.23 L 5813.4,7788.45 L 5813.4,7811.55 L 5293.78,7511.55 Z " />
<path stroke="transparent" fill="#000000" transform="matrix(0.0666667 0 0 0.0666667 -279.433 -436.433)" d="M 4774.17,7811.55 L 4774.17,7788.45 L 5283.78,7494.23 L 5293.78,7500 L 5293.78,7511.55 L 4774.17,7811.55 Z " />
<path stroke="transparent" fill="#000000" transform="matrix(0.0666667 0 0 0.0666667 -279.433 -436.433)" d="M 4244.55,7505.77 L 4264.55,7494.23 L 4774.17,7788.45 L 4774.17,7811.55 L 4244.55,7505.77 Z " />
<path stroke="transparent" fill="#000000" transform="matrix(0.0666667 0 0 0.0666667 -279.433 -436.433)" d="M 4321.55,7467.09 L 4331.55,7449.77 L 4779.17,7708.2 L 4769.17,7725.52 L 4321.55,7467.09 Z " />
<path stroke="transparent" fill="#000000" transform="matrix(0.0666667 0 0 0.0666667 -279.433 -436.433)" d="M 4244.55,6894.23 L 4264.55,6905.77 L 4264.55,7494.23 L 4244.55,7505.77 L 4244.55,6894.23 Z " />
<path stroke="transparent" fill="#000000" transform="matrix(0.0666667 0 0 0.0666667 -279.433 -436.433)" d="M 4774.17,6588.45 L 4774.17,6611.55 L 4264.55,6905.77 L 4244.55,6894.23 L 4774.17,6588.45 Z " />
<path stroke="transparent" fill="#000000" transform="matrix(0.0666667 0 0 0.0666667 -279.433 -436.433)" d="M 4769.17,6674.48 L 4779.17,6691.8 L 4331.55,6950.23 L 4321.55,6932.91 L 4769.17,6674.48 Z " />
<path stroke="transparent" fill="#000000" transform="matrix(0.0666667 0 0 0.0666667 -279.433 -436.433)" d="M 5303.78,6894.23 L 5283.78,6905.77 L 4774.17,6611.55 L 4774.17,6588.45 L 5303.78,6894.23 Z " />
<path stroke="transparent" fill="#000000" transform="matrix(0.0666667 0 0 0.0666667 -279.433 -436.433)" d="M 5283.78,6905.77 L 5303.78,6894.23 L 5303.78,7494.23 L 5293.78,7500 L 5283.78,7494.23 L 5283.78,6905.77 Z " />
<path stroke="transparent" fill="#000000" transform="matrix(0.0666667 0 0 0.0666667 -279.433 -436.433)" d="M 5211.78,6941.57 L 5231.78,6941.57 L 5231.78,7458.43 L 5211.78,7458.43 L 5211.78,6941.57 Z " />
<path stroke="transparent" fill="#000000" transform="matrix(0.0666667 0 0 0.0666667 -279.433 -436.433)" d="M 6228.41,7548.85 L 6238.41,7566.17 L 5813.4,7811.55 L 5813.4,7788.45 L 6228.41,7548.85 Z " />
</svg>
