<?xml version="1.0" standalone="no" ?>
<!DOCTYPE svg PUBLIC "-//W3C//DTD SVG 1.1//EN" "http://www.w3.org/Graphics/SVG/1.1/DTD/svg11.dtd">
<svg width="215px" height="93px" viewBox="0 0 215 93" xmlns="http://www.w3.org/2000/svg" xmlns:xlink="http://www.w3.org/1999/xlink" version="1.1" >
<text x="0" y="0" stroke="transparent" fill="#000000" transform="matrix(0.0666667 0 0 0.0666667 102.367 14.4206)" style="font:normal normal normal 200px 'Arial'" >
O</text>
<path stroke="transparent" fill="#000000" transform="matrix(0.0666667 0 0 0.0666667 -252.433 -433.433)" d="M 4890.38,7545.58 L 4870.38,7534.04 L 4870.38,6945.58 L 4880.38,6939.81 L 4890.38,6945.58 L 4890.38,7545.58 Z " />
<path stroke="transparent" fill="#000000" transform="matrix(0.0666667 0 0 0.0666667 -252.433 -433.433)" d="M 4360.77,7851.36 L 4360.77,7828.26 L 4870.38,7534.04 L 4890.38,7545.58 L 4360.77,7851.36 Z " />
<path stroke="transparent" fill="#000000" transform="matrix(0.0666667 0 0 0.0666667 -252.433 -433.433)" d="M 4365.77,7765.33 L 4355.77,7748.01 L 4803.38,7489.58 L 4813.38,7506.9 L 4365.77,7765.33 Z " />
<path stroke="transparent" fill="#000000" transform="matrix(0.0666667 0 0 0.0666667 -252.433 -433.433)" d="M 3831.15,7545.58 L 3851.15,7534.04 L 4360.77,7828.26 L 4360.77,7851.36 L 3831.15,7545.58 Z " />
<path stroke="transparent" fill="#000000" transform="matrix(0.0666667 0 0 0.0666667 -252.433 -433.433)" d="M 3831.15,6934.04 L 3851.15,6945.58 L 3851.15,7534.04 L 3831.15,7545.58 L 3831.15,6934.04 Z " />
<path stroke="transparent" fill="#000000" transform="matrix(0.0666667 0 0 0.0666667 -252.433 -433.433)" d="M 3903.15,6981.38 L 3923.15,6981.38 L 3923.15,7498.24 L 3903.15,7498.24 L 3903.15,6981.38 Z " />
<path stroke="transparent" fill="#000000" transform="matrix(0.0666667 0 0 0.0666667 -252.433 -433.433)" d="M 4360.77,6628.26 L 4360.77,6651.36 L 3851.15,6945.58 L 3831.15,6934.04 L 4360.77,6628.26 Z " />
<path stroke="transparent" fill="#000000" transform="matrix(0.0666667 0 0 0.0666667 -252.433 -433.433)" d="M 4360.77,6651.36 L 4360.77,6628.26 L 4880.38,6928.26 L 4880.38,6939.81 L 4870.38,6945.58 L 4360.77,6651.36 Z " />
<path stroke="transparent" fill="#000000" transform="matrix(0.0666667 0 0 0.0666667 -252.433 -433.433)" d="M 4355.77,6731.61 L 4365.77,6714.29 L 4813.38,6972.72 L 4803.38,6990.04 L 4355.77,6731.61 Z " />
<path stroke="transparent" fill="#000000" transform="matrix(0.0666667 0 0 0.0666667 -252.433 -433.433)" d="M 4890.38,6945.58 L 4880.38,6939.81 L 4880.38,6928.26 L 5295.4,6688.66 L 5305.4,6705.98 L 4890.38,6945.58 Z " />
<path stroke="transparent" fill="#000000" transform="matrix(0.0666667 0 0 0.0666667 -252.433 -433.433)" d="M 6439.23,6628.26 L 6439.23,6651.36 L 5929.62,6945.58 L 5919.62,6939.81 L 5919.62,6928.26 L 6439.23,6628.26 Z " />
<path stroke="transparent" fill="#000000" transform="matrix(0.0666667 0 0 0.0666667 -252.433 -433.433)" d="M 6968.85,6934.04 L 6948.85,6945.58 L 6439.23,6651.36 L 6439.23,6628.26 L 6968.85,6934.04 Z " />
<path stroke="transparent" fill="#000000" transform="matrix(0.0666667 0 0 0.0666667 -252.433 -433.433)" d="M 6891.85,6972.72 L 6881.85,6990.04 L 6434.23,6731.61 L 6444.23,6714.29 L 6891.85,6972.72 Z " />
<path stroke="transparent" fill="#000000" transform="matrix(0.0666667 0 0 0.0666667 -252.433 -433.433)" d="M 6968.85,7545.58 L 6948.85,7534.04 L 6948.85,6945.58 L 6968.85,6934.04 L 6968.85,7545.58 Z " />
<path stroke="transparent" fill="#000000" transform="matrix(0.0666667 0 0 0.0666667 -252.433 -433.433)" d="M 6439.23,7851.36 L 6439.23,7828.26 L 6948.85,7534.04 L 6968.85,7545.58 L 6439.23,7851.36 Z " />
<path stroke="transparent" fill="#000000" transform="matrix(0.0666667 0 0 0.0666667 -252.433 -433.433)" d="M 6444.23,7765.33 L 6434.23,7748.01 L 6881.85,7489.58 L 6891.85,7506.9 L 6444.23,7765.33 Z " />
<path stroke="transparent" fill="#000000" transform="matrix(0.0666667 0 0 0.0666667 -252.433 -433.433)" d="M 5909.62,7545.58 L 5929.62,7534.04 L 6439.23,7828.26 L 6439.23,7851.36 L 5909.62,7545.58 Z " />
<path stroke="transparent" fill="#000000" transform="matrix(0.0666667 0 0 0.0666667 -252.433 -433.433)" d="M 5929.62,7534.04 L 5909.62,7545.58 L 5909.62,6945.58 L 5919.62,6939.81 L 5929.62,6945.58 L 5929.62,7534.04 Z " />
<path stroke="transparent" fill="#000000" transform="matrix(0.0666667 0 0 0.0666667 -252.433 -433.433)" d="M 6001.62,7498.24 L 5981.62,7498.24 L 5981.62,6981.38 L 6001.62,6981.38 L 6001.62,7498.24 Z " />
<path stroke="transparent" fill="#000000" transform="matrix(0.0666667 0 0 0.0666667 -252.433 -433.433)" d="M 5919.62,6928.26 L 5919.62,6939.81 L 5909.62,6945.58 L 5495.04,6706.23 L 5505.04,6688.91 L 5919.62,6928.26 Z " />
</svg>
