<?xml version="1.0" standalone="no" ?>
<!DOCTYPE svg PUBLIC "-//W3C//DTD SVG 1.1//EN" "http://www.w3.org/Graphics/SVG/1.1/DTD/svg11.dtd">
<svg width="284px" height="177px" viewBox="0 0 284 177" xmlns="http://www.w3.org/2000/svg" xmlns:xlink="http://www.w3.org/1999/xlink" version="1.1" >
<text x="0" y="0" stroke="transparent" fill="#000000" transform="matrix(0.0666667 0 0 0.0666667 67.0846 114.139)" style="font:normal normal normal 200px 'Arial'" >
O</text>
<text x="0" y="0" stroke="transparent" fill="#000000" transform="matrix(0.0666667 0 0 0.0666667 136.367 74.1389)" style="font:normal normal normal 200px 'Arial'" >
O</text>
<text x="0" y="0" stroke="transparent" fill="#000000" transform="matrix(0.0666667 0 0 0.0666667 205.649 114.139)" style="font:normal normal normal 200px 'Arial'" >
O</text>
<text x="0" y="0" stroke="transparent" fill="#000000" transform="matrix(0.0666667 0 0 0.0666667 32.4436 174.139)" style="font:normal normal normal 200px 'Arial'" >
O</text>
<text x="0" y="0" stroke="transparent" fill="#000000" transform="matrix(0.0666667 0 0 0.0666667 101.726 14.1389)" style="font:normal normal normal 200px 'Arial'" >
O</text>
<text x="0" y="0" stroke="transparent" fill="#000000" transform="matrix(0.0666667 0 0 0.0666667 240.29 174.139)" style="font:normal normal normal 200px 'Arial'" >
O</text>
<path stroke="transparent" fill="#000000" transform="matrix(0.0666667 0 0 0.0666667 -218.433 -391.433)" d="M 4880.38,7794.04 L 4880.38,7817.13 L 4455.81,7572 L 4465.81,7554.68 L 4880.38,7794.04 Z " />
<path stroke="transparent" fill="#000000" transform="matrix(0.0666667 0 0 0.0666667 -218.433 -391.433)" d="M 5390,7499.81 L 5400,7505.58 L 5400,7517.13 L 4880.38,7817.13 L 4880.38,7794.04 L 5390,7499.81 Z " />
<path stroke="transparent" fill="#000000" transform="matrix(0.0666667 0 0 0.0666667 -218.433 -391.433)" d="M 5390,7025.42 L 5410,7025.42 L 5410,7499.81 L 5400,7505.58 L 5390,7499.81 L 5390,7025.42 Z " />
<path stroke="transparent" fill="#000000" transform="matrix(0.0666667 0 0 0.0666667 -218.433 -391.433)" d="M 5919.62,7794.04 L 5919.62,7817.13 L 5400,7517.13 L 5400,7505.58 L 5410,7499.81 L 5919.62,7794.04 Z " />
<path stroke="transparent" fill="#000000" transform="matrix(0.0666667 0 0 0.0666667 -218.433 -391.433)" d="M 6334.63,7554.43 L 6344.63,7571.75 L 5919.62,7817.13 L 5919.62,7794.04 L 6334.63,7554.43 Z " />
<path stroke="transparent" fill="#000000" transform="matrix(0.0666667 0 0 0.0666667 -218.433 -391.433)" d="M 3887.15,8300.42 L 3867.15,8300.42 L 3867.15,7784.8 L 3887.15,7784.8 L 3887.15,8300.42 Z " />
<path stroke="transparent" fill="#000000" transform="matrix(0.0666667 0 0 0.0666667 -218.433 -391.433)" d="M 3815.15,8300.42 L 3795.15,8300.42 L 3795.15,7784.8 L 3815.15,7784.8 L 3815.15,8300.42 Z " />
<path stroke="transparent" fill="#000000" transform="matrix(0.0666667 0 0 0.0666667 -218.433 -391.433)" d="M 3316.54,7514.24 L 3326.54,7496.92 L 3841.15,7794.04 L 3841.15,7817.13 L 3316.54,7514.24 Z " />
<path stroke="transparent" fill="#000000" transform="matrix(0.0666667 0 0 0.0666667 -218.433 -391.433)" d="M 3841.15,7817.13 L 3841.15,7794.04 L 4256.17,7554.43 L 4266.17,7571.75 L 3841.15,7817.13 Z " />
<path stroke="transparent" fill="#000000" transform="matrix(0.0666667 0 0 0.0666667 -218.433 -391.433)" d="M 4834.38,6125.42 L 4854.38,6125.42 L 4854.38,6626.37 L 4834.38,6626.37 L 4834.38,6125.42 Z " />
<path stroke="transparent" fill="#000000" transform="matrix(0.0666667 0 0 0.0666667 -218.433 -391.433)" d="M 4906.38,6125.42 L 4926.38,6125.42 L 4926.38,6626.37 L 4906.38,6626.37 L 4906.38,6125.42 Z " />
<path stroke="transparent" fill="#000000" transform="matrix(0.0666667 0 0 0.0666667 -218.433 -391.433)" d="M 4365.77,6914.24 L 4355.77,6896.92 L 4880.38,6594.04 L 4880.38,6617.13 L 4365.77,6914.24 Z " />
<path stroke="transparent" fill="#000000" transform="matrix(0.0666667 0 0 0.0666667 -218.433 -391.433)" d="M 4880.38,6617.13 L 4880.38,6594.04 L 5312.38,6843.45 L 5302.38,6860.77 L 4880.38,6617.13 Z " />
<path stroke="transparent" fill="#000000" transform="matrix(0.0666667 0 0 0.0666667 -218.433 -391.433)" d="M 7004.85,8300.42 L 6984.85,8300.42 L 6984.85,7784.8 L 7004.85,7784.8 L 7004.85,8300.42 Z " />
<path stroke="transparent" fill="#000000" transform="matrix(0.0666667 0 0 0.0666667 -218.433 -391.433)" d="M 6932.85,8300.42 L 6912.85,8300.42 L 6912.85,7784.8 L 6932.85,7784.8 L 6932.85,8300.42 Z " />
<path stroke="transparent" fill="#000000" transform="matrix(0.0666667 0 0 0.0666667 -218.433 -391.433)" d="M 7473.46,7496.92 L 7483.46,7514.24 L 6958.85,7817.13 L 6958.85,7794.04 L 7473.46,7496.92 Z " />
<path stroke="transparent" fill="#000000" transform="matrix(0.0666667 0 0 0.0666667 -218.433 -391.433)" d="M 6958.85,7794.04 L 6958.85,7817.13 L 6534.27,7572 L 6544.27,7554.68 L 6958.85,7794.04 Z " />
</svg>
