<?xml version="1.0" standalone="no" ?>
<!DOCTYPE svg PUBLIC "-//W3C//DTD SVG 1.1//EN" "http://www.w3.org/Graphics/SVG/1.1/DTD/svg11.dtd">
<svg width="181px" height="93px" viewBox="0 0 181 93" xmlns="http://www.w3.org/2000/svg" xmlns:xlink="http://www.w3.org/1999/xlink" version="1.1" >
<text x="0" y="0" stroke="transparent" fill="#000000" transform="matrix(0.0666667 0 0 0.0666667 102.854 89.4849)" style="font:normal normal normal 200px 'Arial'" >
O</text>
<path stroke="transparent" fill="#000000" transform="matrix(0.0666667 0 0 0.0666667 -269.433 -433.433)" d="M 4623.08,7777.32 L 4623.08,7754.23 L 5132.69,7460 L 5142.69,7465.77 L 5142.69,7477.32 L 4623.08,7777.32 Z " />
<path stroke="transparent" fill="#000000" transform="matrix(0.0666667 0 0 0.0666667 -269.433 -433.433)" d="M 4093.46,7471.55 L 4113.46,7460 L 4623.08,7754.23 L 4623.08,7777.32 L 4093.46,7471.55 Z " />
<path stroke="transparent" fill="#000000" transform="matrix(0.0666667 0 0 0.0666667 -269.433 -433.433)" d="M 4170.46,7432.86 L 4180.46,7415.54 L 4628.08,7673.97 L 4618.08,7691.3 L 4170.46,7432.86 Z " />
<path stroke="transparent" fill="#000000" transform="matrix(0.0666667 0 0 0.0666667 -269.433 -433.433)" d="M 4093.46,6860 L 4113.46,6871.55 L 4113.46,7460 L 4093.46,7471.55 L 4093.46,6860 Z " />
<path stroke="transparent" fill="#000000" transform="matrix(0.0666667 0 0 0.0666667 -269.433 -433.433)" d="M 4623.08,6554.23 L 4623.08,6577.32 L 4113.46,6871.55 L 4093.46,6860 L 4623.08,6554.23 Z " />
<path stroke="transparent" fill="#000000" transform="matrix(0.0666667 0 0 0.0666667 -269.433 -433.433)" d="M 4618.08,6640.25 L 4628.08,6657.57 L 4180.46,6916 L 4170.46,6898.68 L 4618.08,6640.25 Z " />
<path stroke="transparent" fill="#000000" transform="matrix(0.0666667 0 0 0.0666667 -269.433 -433.433)" d="M 5152.69,6860 L 5132.69,6871.55 L 4623.08,6577.32 L 4623.08,6554.23 L 5152.69,6860 Z " />
<path stroke="transparent" fill="#000000" transform="matrix(0.0666667 0 0 0.0666667 -269.433 -433.433)" d="M 5132.69,6871.55 L 5152.69,6860 L 5152.69,7460 L 5142.69,7465.77 L 5132.69,7460 L 5132.69,6871.55 Z " />
<path stroke="transparent" fill="#000000" transform="matrix(0.0666667 0 0 0.0666667 -269.433 -433.433)" d="M 5060.69,6907.34 L 5080.69,6907.34 L 5080.69,7424.2 L 5060.69,7424.2 L 5060.69,6907.34 Z " />
<path stroke="transparent" fill="#000000" transform="matrix(0.0666667 0 0 0.0666667 -269.433 -433.433)" d="M 6706.54,7757.11 L 6696.54,7774.43 L 6181.92,7477.32 L 6181.92,7454.23 L 6706.54,7757.11 Z " />
<path stroke="transparent" fill="#000000" transform="matrix(0.0666667 0 0 0.0666667 -269.433 -433.433)" d="M 6181.92,7454.23 L 6181.92,7477.32 L 5759.93,7720.96 L 5749.93,7703.64 L 6181.92,7454.23 Z " />
<path stroke="transparent" fill="#000000" transform="matrix(0.0666667 0 0 0.0666667 -269.433 -433.433)" d="M 5574.69,7703.64 L 5564.69,7720.96 L 5142.69,7477.32 L 5142.69,7465.77 L 5152.69,7460 L 5574.69,7703.64 Z " />
</svg>
