<?xml version="1.0" standalone="no" ?>
<!DOCTYPE svg PUBLIC "-//W3C//DTD SVG 1.1//EN" "http://www.w3.org/Graphics/SVG/1.1/DTD/svg11.dtd">
<svg width="284px" height="133px" viewBox="0 0 284 133" xmlns="http://www.w3.org/2000/svg" xmlns:xlink="http://www.w3.org/1999/xlink" version="1.1" >
<text x="0" y="0" stroke="transparent" fill="#000000" transform="matrix(0.0666667 0 0 0.0666667 32.4436 14.5169)" style="font:normal normal normal 200px 'Arial'" >
O</text>
<text x="0" y="0" stroke="transparent" fill="#000000" transform="matrix(0.0666667 0 0 0.0666667 67.0846 74.5169)" style="font:normal normal normal 200px 'Arial'" >
O</text>
<path stroke="transparent" fill="#000000" transform="matrix(0.0666667 0 0 0.0666667 -218.433 -413.433)" d="M 3326.54,7249.91 L 3316.54,7232.59 L 3841.15,6929.71 L 3841.15,6952.8 L 3326.54,7249.91 Z " />
<path stroke="transparent" fill="#000000" transform="matrix(0.0666667 0 0 0.0666667 -218.433 -413.433)" d="M 3795.15,6461.09 L 3815.15,6461.09 L 3815.15,6962.04 L 3795.15,6962.04 L 3795.15,6461.09 Z " />
<path stroke="transparent" fill="#000000" transform="matrix(0.0666667 0 0 0.0666667 -218.433 -413.433)" d="M 3867.15,6461.09 L 3887.15,6461.09 L 3887.15,6962.04 L 3867.15,6962.04 L 3867.15,6461.09 Z " />
<path stroke="transparent" fill="#000000" transform="matrix(0.0666667 0 0 0.0666667 -218.433 -413.433)" d="M 4273.15,7179.12 L 4263.15,7196.44 L 3841.15,6952.8 L 3841.15,6929.71 L 4273.15,7179.12 Z " />
<path stroke="transparent" fill="#000000" transform="matrix(0.0666667 0 0 0.0666667 -218.433 -413.433)" d="M 5400,7229.71 L 5400,7241.25 L 5390,7247.03 L 4880.38,6952.8 L 4880.38,6929.71 L 5400,7229.71 Z " />
<path stroke="transparent" fill="#000000" transform="matrix(0.0666667 0 0 0.0666667 -218.433 -413.433)" d="M 5919.62,6929.71 L 5919.62,6952.8 L 5410,7247.03 L 5400,7241.25 L 5400,7229.71 L 5919.62,6929.71 Z " />
<path stroke="transparent" fill="#000000" transform="matrix(0.0666667 0 0 0.0666667 -218.433 -413.433)" d="M 6439.23,7229.71 L 6439.23,7252.8 L 5919.62,6952.8 L 5919.62,6929.71 L 6439.23,7229.71 Z " />
<path stroke="transparent" fill="#000000" transform="matrix(0.0666667 0 0 0.0666667 -218.433 -413.433)" d="M 6958.85,6929.71 L 6958.85,6952.8 L 6439.23,7252.8 L 6439.23,7229.71 L 6958.85,6929.71 Z " />
<path stroke="transparent" fill="#000000" transform="matrix(0.0666667 0 0 0.0666667 -218.433 -413.433)" d="M 7483.46,7232.59 L 7473.46,7249.91 L 6958.85,6952.8 L 6958.85,6929.71 L 7483.46,7232.59 Z " />
<path stroke="transparent" fill="#000000" transform="matrix(0.0666667 0 0 0.0666667 -218.433 -413.433)" d="M 5924.62,8132.59 L 5914.62,8149.91 L 5390,7847.03 L 5410,7835.48 L 5924.62,8132.59 Z " />
<path stroke="transparent" fill="#000000" transform="matrix(0.0666667 0 0 0.0666667 -218.433 -413.433)" d="M 5410,7835.48 L 5390,7847.03 L 5390,7247.03 L 5400,7241.25 L 5410,7247.03 L 5410,7835.48 Z " />
<path stroke="transparent" fill="#000000" transform="matrix(0.0666667 0 0 0.0666667 -218.433 -413.433)" d="M 4880.38,6929.71 L 4880.38,6952.8 L 4458.39,7196.44 L 4448.39,7179.12 L 4880.38,6929.71 Z " />
</svg>
