<?xml version="1.0" standalone="no" ?>
<!DOCTYPE svg PUBLIC "-//W3C//DTD SVG 1.1//EN" "http://www.w3.org/Graphics/SVG/1.1/DTD/svg11.dtd">
<svg width="229px" height="87px" viewBox="0 0 229 87" xmlns="http://www.w3.org/2000/svg" xmlns:xlink="http://www.w3.org/1999/xlink" version="1.1" >
<text x="0" y="0" stroke="transparent" fill="#000000" transform="matrix(0.0666667 0 0 0.0666667 206.042 68.6704)" style="font:normal normal normal 200px 'Arial'" >
OH</text>
<path stroke="transparent" fill="#000000" transform="matrix(0.0666667 0 0 0.0666667 -245.433 -436.433)" d="M 5810.9,7510.1 L 5810.9,7498.56 L 5820.9,7492.78 L 6330.51,7787.01 L 6330.51,7810.1 L 5810.9,7510.1 Z " />
<path stroke="transparent" fill="#000000" transform="matrix(0.0666667 0 0 0.0666667 -245.433 -436.433)" d="M 5291.28,7810.1 L 5291.28,7787.01 L 5800.9,7492.78 L 5810.9,7498.56 L 5810.9,7510.1 L 5291.28,7810.1 Z " />
<path stroke="transparent" fill="#000000" transform="matrix(0.0666667 0 0 0.0666667 -245.433 -436.433)" d="M 4771.67,7510.1 L 4771.67,7487.01 L 5291.28,7787.01 L 5291.28,7810.1 L 4771.67,7510.1 Z " />
<path stroke="transparent" fill="#000000" transform="matrix(0.0666667 0 0 0.0666667 -245.433 -436.433)" d="M 4252.05,7810.1 L 4252.05,7787.01 L 4771.67,7487.01 L 4771.67,7510.1 L 4252.05,7810.1 Z " />
<path stroke="transparent" fill="#000000" transform="matrix(0.0666667 0 0 0.0666667 -245.433 -436.433)" d="M 3727.44,7507.22 L 3737.44,7489.9 L 4252.05,7787.01 L 4252.05,7810.1 L 3727.44,7507.22 Z " />
<path stroke="transparent" fill="#000000" transform="matrix(0.0666667 0 0 0.0666667 -245.433 -436.433)" d="M 6745.53,7547.4 L 6755.53,7564.72 L 6330.51,7810.1 L 6330.51,7787.01 L 6745.53,7547.4 Z " />
<path stroke="transparent" fill="#000000" transform="matrix(0.0666667 0 0 0.0666667 -245.433 -436.433)" d="M 6325.51,6589.9 L 6335.51,6607.22 L 5820.9,6904.33 L 5800.9,6892.78 L 6325.51,6589.9 Z " />
<path stroke="transparent" fill="#000000" transform="matrix(0.0666667 0 0 0.0666667 -245.433 -436.433)" d="M 5800.9,6892.78 L 5820.9,6904.33 L 5820.9,7492.78 L 5810.9,7498.56 L 5800.9,7492.78 L 5800.9,6892.78 Z " />
</svg>
