<?xml version="1.0" standalone="no" ?>
<!DOCTYPE svg PUBLIC "-//W3C//DTD SVG 1.1//EN" "http://www.w3.org/Graphics/SVG/1.1/DTD/svg11.dtd">
<svg width="249px" height="117px" viewBox="0 0 249 117" xmlns="http://www.w3.org/2000/svg" xmlns:xlink="http://www.w3.org/1999/xlink" version="1.1" >
<text x="0" y="0" stroke="transparent" fill="#000000" transform="matrix(0.0666667 0 0 0.0666667 67.4051 114.139)" style="font:normal normal normal 200px 'Arial'" >
O</text>
<text x="0" y="0" stroke="transparent" fill="#000000" transform="matrix(0.0666667 0 0 0.0666667 32.7641 54.1389)" style="font:normal normal normal 200px 'Arial'" >
O</text>
<text x="0" y="0" stroke="transparent" fill="#000000" transform="matrix(0.0666667 0 0 0.0666667 171.328 14.1389)" style="font:normal normal normal 200px 'Arial'" >
O</text>
<text x="0" y="0" stroke="transparent" fill="#000000" transform="matrix(0.0666667 0 0 0.0666667 205.969 74.1389)" style="font:normal normal normal 200px 'Arial'" >
O</text>
<path stroke="transparent" fill="#000000" transform="matrix(0.0666667 0 0 0.0666667 -235.433 -421.433)" d="M 5140.19,7044.04 L 5140.19,7067.13 L 4620.58,7367.13 L 4620.58,7344.04 L 5140.19,7044.04 Z " />
<path stroke="transparent" fill="#000000" transform="matrix(0.0666667 0 0 0.0666667 -235.433 -421.433)" d="M 5659.81,7344.04 L 5659.81,7367.13 L 5140.19,7067.13 L 5140.19,7044.04 L 5659.81,7344.04 Z " />
<path stroke="transparent" fill="#000000" transform="matrix(0.0666667 0 0 0.0666667 -235.433 -421.433)" d="M 6179.42,7044.04 L 6179.42,7067.13 L 5659.81,7367.13 L 5659.81,7344.04 L 6179.42,7044.04 Z " />
<path stroke="transparent" fill="#000000" transform="matrix(0.0666667 0 0 0.0666667 -235.433 -421.433)" d="M 4666.58,7850.42 L 4646.58,7850.42 L 4646.58,7334.8 L 4666.58,7334.8 L 4666.58,7850.42 Z " />
<path stroke="transparent" fill="#000000" transform="matrix(0.0666667 0 0 0.0666667 -235.433 -421.433)" d="M 4594.58,7850.42 L 4574.58,7850.42 L 4574.58,7334.8 L 4594.58,7334.8 L 4594.58,7850.42 Z " />
<path stroke="transparent" fill="#000000" transform="matrix(0.0666667 0 0 0.0666667 -235.433 -421.433)" d="M 4196,7122 L 4206,7104.68 L 4620.58,7344.04 L 4620.58,7367.13 L 4196,7122 Z " />
<path stroke="transparent" fill="#000000" transform="matrix(0.0666667 0 0 0.0666667 -235.433 -421.433)" d="M 6133.42,6575.42 L 6153.42,6575.42 L 6153.42,7076.37 L 6133.42,7076.37 L 6133.42,6575.42 Z " />
<path stroke="transparent" fill="#000000" transform="matrix(0.0666667 0 0 0.0666667 -235.433 -421.433)" d="M 6205.42,6575.42 L 6225.42,6575.42 L 6225.42,7076.37 L 6205.42,7076.37 L 6205.42,6575.42 Z " />
<path stroke="transparent" fill="#000000" transform="matrix(0.0666667 0 0 0.0666667 -235.433 -421.433)" d="M 6611.42,7293.45 L 6601.42,7310.77 L 6179.42,7067.13 L 6179.42,7044.04 L 6611.42,7293.45 Z " />
<path stroke="transparent" fill="#000000" transform="matrix(0.0666667 0 0 0.0666667 -235.433 -421.433)" d="M 3586.35,7364.24 L 3576.35,7346.92 L 3996.36,7104.43 L 4006.36,7121.75 L 3586.35,7364.24 Z " />
<path stroke="transparent" fill="#000000" transform="matrix(0.0666667 0 0 0.0666667 -235.433 -421.433)" d="M 7213.65,7046.92 L 7223.65,7064.24 L 6796.66,7310.77 L 6786.66,7293.45 L 7213.65,7046.92 Z " />
</svg>
