<?xml version="1.0" standalone="no" ?>
<!DOCTYPE svg PUBLIC "-//W3C//DTD SVG 1.1//EN" "http://www.w3.org/Graphics/SVG/1.1/DTD/svg11.dtd">
<svg width="145px" height="88px" viewBox="0 0 145 88" xmlns="http://www.w3.org/2000/svg" xmlns:xlink="http://www.w3.org/1999/xlink" version="1.1" >
<path stroke="transparent" fill="#000000" transform="matrix(0.0666667 0 0 0.0666667 -287.433 -436.433)" d="M 5929.62,6905.77 L 5919.62,6900 L 5919.62,6888.45 L 6434.23,6591.34 L 6444.23,6608.66 L 5929.62,6905.77 Z " />
<path stroke="transparent" fill="#000000" transform="matrix(0.0666667 0 0 0.0666667 -287.433 -436.433)" d="M 5929.62,7505.77 L 5909.62,7494.23 L 5909.62,6905.77 L 5919.62,6900 L 5929.62,6905.77 L 5929.62,7505.77 Z " />
<path stroke="transparent" fill="#000000" transform="matrix(0.0666667 0 0 0.0666667 -287.433 -436.433)" d="M 5400,7811.55 L 5400,7788.45 L 5909.62,7494.23 L 5929.62,7505.77 L 5400,7811.55 Z " />
<path stroke="transparent" fill="#000000" transform="matrix(0.0666667 0 0 0.0666667 -287.433 -436.433)" d="M 5405,7725.52 L 5395,7708.2 L 5842.62,7449.77 L 5852.62,7467.09 L 5405,7725.52 Z " />
<path stroke="transparent" fill="#000000" transform="matrix(0.0666667 0 0 0.0666667 -287.433 -436.433)" d="M 4880.38,7511.55 L 4880.38,7500 L 4890.38,7494.23 L 5400,7788.45 L 5400,7811.55 L 4880.38,7511.55 Z " />
<path stroke="transparent" fill="#000000" transform="matrix(0.0666667 0 0 0.0666667 -287.433 -436.433)" d="M 4870.38,6894.23 L 4890.38,6905.77 L 4890.38,7494.23 L 4880.38,7500 L 4870.38,7494.23 L 4870.38,6894.23 Z " />
<path stroke="transparent" fill="#000000" transform="matrix(0.0666667 0 0 0.0666667 -287.433 -436.433)" d="M 4942.38,6941.57 L 4962.38,6941.57 L 4962.38,7458.43 L 4942.38,7458.43 L 4942.38,6941.57 Z " />
<path stroke="transparent" fill="#000000" transform="matrix(0.0666667 0 0 0.0666667 -287.433 -436.433)" d="M 5400,6588.45 L 5400,6611.55 L 4890.38,6905.77 L 4870.38,6894.23 L 5400,6588.45 Z " />
<path stroke="transparent" fill="#000000" transform="matrix(0.0666667 0 0 0.0666667 -287.433 -436.433)" d="M 5400,6611.55 L 5400,6588.45 L 5919.62,6888.45 L 5919.62,6900 L 5909.62,6905.77 L 5400,6611.55 Z " />
<path stroke="transparent" fill="#000000" transform="matrix(0.0666667 0 0 0.0666667 -287.433 -436.433)" d="M 5395,6691.8 L 5405,6674.48 L 5852.62,6932.91 L 5842.62,6950.23 L 5395,6691.8 Z " />
<path stroke="transparent" fill="#000000" transform="matrix(0.0666667 0 0 0.0666667 -287.433 -436.433)" d="M 4365.77,7808.66 L 4355.77,7791.34 L 4870.38,7494.23 L 4880.38,7500 L 4880.38,7511.55 L 4365.77,7808.66 Z " />
</svg>
