<?xml version="1.0" standalone="no" ?>
<!DOCTYPE svg PUBLIC "-//W3C//DTD SVG 1.1//EN" "http://www.w3.org/Graphics/SVG/1.1/DTD/svg11.dtd">
<svg width="129px" height="37px" viewBox="0 0 129 37" xmlns="http://www.w3.org/2000/svg" xmlns:xlink="http://www.w3.org/1999/xlink" version="1.1" >
<text x="0" y="0" stroke="transparent" fill="#000000" transform="matrix(0.0666667 0 0 0.0666667 113.395 34.1389)" style="font:normal normal normal 200px 'Arial'" >
Cl</text>
<text x="0" y="0" stroke="transparent" fill="#000000" transform="matrix(0.0666667 0 0 0.0666667 3.14733 14.1389)" style="font:normal normal normal 200px 'Arial'" >
Cl</text>
<path stroke="transparent" fill="#000000" transform="matrix(0.0666667 0 0 0.0666667 -295.433 -461.433)" d="M 5684.81,7044.04 L 5684.81,7067.13 L 5165.19,7367.13 L 5165.19,7344.04 L 5684.81,7044.04 Z " />
<path stroke="transparent" fill="#000000" transform="matrix(0.0666667 0 0 0.0666667 -295.433 -461.433)" d="M 6121.1,7295.93 L 6111.1,7313.25 L 5684.81,7067.13 L 5684.81,7044.04 L 6121.1,7295.93 Z " />
<path stroke="transparent" fill="#000000" transform="matrix(0.0666667 0 0 0.0666667 -295.433 -461.433)" d="M 4707.34,7102.79 L 4717.34,7085.47 L 5165.19,7344.04 L 5165.19,7367.13 L 4707.34,7102.79 Z " />
</svg>
