<?xml version="1.0" standalone="no" ?>
<!DOCTYPE svg PUBLIC "-//W3C//DTD SVG 1.1//EN" "http://www.w3.org/Graphics/SVG/1.1/DTD/svg11.dtd">
<svg width="116px" height="93px" viewBox="0 0 116 93" xmlns="http://www.w3.org/2000/svg" xmlns:xlink="http://www.w3.org/1999/xlink" version="1.1" >
<text x="0" y="0" stroke="transparent" fill="#000000" transform="matrix(0.0666667 0 0 0.0666667 102.062 14.4207)" style="font:normal normal normal 200px 'Arial'" >
O</text>
<path stroke="transparent" fill="#000000" transform="matrix(0.0666667 0 0 0.0666667 -302.433 -433.433)" d="M 5635.81,7545.58 L 5615.81,7534.04 L 5615.81,6945.58 L 5635.81,6934.04 L 5635.81,7545.58 Z " />
<path stroke="transparent" fill="#000000" transform="matrix(0.0666667 0 0 0.0666667 -302.433 -433.433)" d="M 5106.19,7851.36 L 5106.19,7828.26 L 5615.81,7534.04 L 5635.81,7545.58 L 5106.19,7851.36 Z " />
<path stroke="transparent" fill="#000000" transform="matrix(0.0666667 0 0 0.0666667 -302.433 -433.433)" d="M 4576.58,7545.58 L 4596.58,7534.04 L 5106.19,7828.26 L 5106.19,7851.36 L 4576.58,7545.58 Z " />
<path stroke="transparent" fill="#000000" transform="matrix(0.0666667 0 0 0.0666667 -302.433 -433.433)" d="M 4576.58,6934.04 L 4596.58,6945.58 L 4596.58,7534.04 L 4576.58,7545.58 L 4576.58,6934.04 Z " />
<path stroke="transparent" fill="#000000" transform="matrix(0.0666667 0 0 0.0666667 -302.433 -433.433)" d="M 5106.19,6628.26 L 5106.19,6651.36 L 4596.58,6945.58 L 4576.58,6934.04 L 5106.19,6628.26 Z " />
<path stroke="transparent" fill="#000000" transform="matrix(0.0666667 0 0 0.0666667 -302.433 -433.433)" d="M 5106.19,6651.36 L 5106.19,6628.26 L 5635.81,6934.04 L 5615.81,6945.58 L 5106.19,6651.36 Z " />
<path stroke="transparent" fill="#000000" transform="matrix(0.0666667 0 0 0.0666667 -302.433 -433.433)" d="M 6022.82,6657.48 L 6032.82,6674.8 L 5594.81,6927.69 L 5584.81,6910.36 L 6022.82,6657.48 Z " />
<path stroke="transparent" fill="#000000" transform="matrix(0.0666667 0 0 0.0666667 -302.433 -433.433)" d="M 6058.82,6719.83 L 6068.82,6737.15 L 5630.81,6990.04 L 5620.81,6972.72 L 6058.82,6719.83 Z " />
</svg>
