<?xml version="1.0" standalone="no" ?>
<!DOCTYPE svg PUBLIC "-//W3C//DTD SVG 1.1//EN" "http://www.w3.org/Graphics/SVG/1.1/DTD/svg11.dtd">
<svg width="145px" height="127px" viewBox="0 0 145 127" xmlns="http://www.w3.org/2000/svg" xmlns:xlink="http://www.w3.org/1999/xlink" version="1.1" >
<path stroke="transparent" fill="#000000" transform="matrix(0.0666667 0 0 0.0666667 -287.433 -416.433)" d="M 5929.62,7211.55 L 5909.62,7200 L 5909.62,6611.55 L 5919.62,6605.77 L 5929.62,6611.55 L 5929.62,7211.55 Z " />
<path stroke="transparent" fill="#000000" transform="matrix(0.0666667 0 0 0.0666667 -287.433 -416.433)" d="M 5410,7511.55 L 5400,7505.77 L 5400,7494.23 L 5909.62,7200 L 5929.62,7211.55 L 5410,7511.55 Z " />
<path stroke="transparent" fill="#000000" transform="matrix(0.0666667 0 0 0.0666667 -287.433 -416.433)" d="M 5405,7431.3 L 5395,7413.97 L 5842.62,7155.54 L 5852.62,7172.86 L 5405,7431.3 Z " />
<path stroke="transparent" fill="#000000" transform="matrix(0.0666667 0 0 0.0666667 -287.433 -416.433)" d="M 5410,8105.77 L 5390,8105.77 L 5390,7511.55 L 5400,7505.77 L 5410,7511.55 L 5410,8105.77 Z " />
<path stroke="transparent" fill="#000000" transform="matrix(0.0666667 0 0 0.0666667 -287.433 -416.433)" d="M 4870.38,7211.55 L 4890.38,7200 L 5400,7494.23 L 5400,7505.77 L 5390,7511.55 L 4870.38,7211.55 Z " />
<path stroke="transparent" fill="#000000" transform="matrix(0.0666667 0 0 0.0666667 -287.433 -416.433)" d="M 4870.38,6611.55 L 4880.38,6605.77 L 4890.38,6611.55 L 4890.38,7200 L 4870.38,7211.55 L 4870.38,6611.55 Z " />
<path stroke="transparent" fill="#000000" transform="matrix(0.0666667 0 0 0.0666667 -287.433 -416.433)" d="M 4942.38,6647.34 L 4962.38,6647.34 L 4962.38,7164.2 L 4942.38,7164.2 L 4942.38,6647.34 Z " />
<path stroke="transparent" fill="#000000" transform="matrix(0.0666667 0 0 0.0666667 -287.433 -416.433)" d="M 4355.77,6314.43 L 4365.77,6297.11 L 4880.38,6594.23 L 4880.38,6605.77 L 4870.38,6611.55 L 4355.77,6314.43 Z " />
<path stroke="transparent" fill="#000000" transform="matrix(0.0666667 0 0 0.0666667 -287.433 -416.433)" d="M 5400,6294.23 L 5400,6317.32 L 4890.38,6611.55 L 4880.38,6605.77 L 4880.38,6594.23 L 5400,6294.23 Z " />
<path stroke="transparent" fill="#000000" transform="matrix(0.0666667 0 0 0.0666667 -287.433 -416.433)" d="M 5400,6317.32 L 5400,6294.23 L 5919.62,6594.23 L 5919.62,6605.77 L 5909.62,6611.55 L 5400,6317.32 Z " />
<path stroke="transparent" fill="#000000" transform="matrix(0.0666667 0 0 0.0666667 -287.433 -416.433)" d="M 5395,6397.57 L 5405,6380.25 L 5852.62,6638.68 L 5842.62,6656 L 5395,6397.57 Z " />
<path stroke="transparent" fill="#000000" transform="matrix(0.0666667 0 0 0.0666667 -287.433 -416.433)" d="M 6434.23,6297.11 L 6444.23,6314.43 L 5929.62,6611.55 L 5919.62,6605.77 L 5919.62,6594.23 L 6434.23,6297.11 Z " />
</svg>
