<?xml version="1.0" standalone="no" ?>
<!DOCTYPE svg PUBLIC "-//W3C//DTD SVG 1.1//EN" "http://www.w3.org/Graphics/SVG/1.1/DTD/svg11.dtd">
<svg width="145px" height="74px" viewBox="0 0 145 74" xmlns="http://www.w3.org/2000/svg" xmlns:xlink="http://www.w3.org/1999/xlink" version="1.1" >
<text x="0" y="0" stroke="transparent" fill="#000000" transform="matrix(0.0666667 0 0 0.0666667 32.721 14.934)" style="font:normal normal normal 200px 'Arial'" >
O</text>
<path stroke="transparent" fill="#000000" transform="matrix(0.0666667 0 0 0.0666667 -287.433 -443.433)" d="M 4880.31,7385.75 L 4880.32,7408.83 L 4365.59,7705.77 L 4355.6,7688.45 L 4880.31,7385.75 Z " />
<path stroke="transparent" fill="#000000" transform="matrix(0.0666667 0 0 0.0666667 -287.433 -443.433)" d="M 5400.08,7685.57 L 5400.08,7708.66 L 4880.32,7408.83 L 4880.31,7385.75 L 5400.08,7685.57 Z " />
<path stroke="transparent" fill="#000000" transform="matrix(0.0666667 0 0 0.0666667 -287.433 -443.433)" d="M 4834.33,6917.34 L 4854.33,6917.34 L 4854.33,7418.05 L 4834.33,7418.05 L 4834.33,6917.34 Z " />
<path stroke="transparent" fill="#000000" transform="matrix(0.0666667 0 0 0.0666667 -287.433 -443.433)" d="M 4906.3,6917.34 L 4926.3,6917.34 L 4926.3,7418.05 L 4906.3,7418.05 L 4906.3,6917.34 Z " />
<path stroke="transparent" fill="#000000" transform="matrix(0.0666667 0 0 0.0666667 -287.433 -443.433)" d="M 5909.8,7391.51 L 5919.8,7397.29 L 5919.8,7408.83 L 5400.08,7708.66 L 5400.08,7685.57 L 5909.8,7391.51 Z " />
<path stroke="transparent" fill="#000000" transform="matrix(0.0666667 0 0 0.0666667 -287.433 -443.433)" d="M 6444.4,7688.45 L 6434.4,7705.77 L 5919.8,7408.83 L 5919.8,7397.29 L 5929.8,7391.51 L 6444.4,7688.45 Z " />
<path stroke="transparent" fill="#000000" transform="matrix(0.0666667 0 0 0.0666667 -287.433 -443.433)" d="M 5909.8,6797.51 L 5929.8,6797.51 L 5929.8,7391.51 L 5919.8,7397.29 L 5909.8,7391.51 L 5909.8,6797.51 Z " />
</svg>
