<?xml version="1.0" standalone="no" ?>
<!DOCTYPE svg PUBLIC "-//W3C//DTD SVG 1.1//EN" "http://www.w3.org/Graphics/SVG/1.1/DTD/svg11.dtd">
<svg width="145px" height="71px" viewBox="0 0 145 71" xmlns="http://www.w3.org/2000/svg" xmlns:xlink="http://www.w3.org/1999/xlink" version="1.1" >
<text x="0" y="0" stroke="transparent" fill="#000000" transform="matrix(0.0666667 0 0 0.0666667 67.3667 68.1)" style="font:normal normal normal 200px 'Arial'" >
O</text>
<path stroke="transparent" fill="#000000" transform="matrix(0.0666667 0 0 0.0666667 -287.433 -444.433)" d="M 5909.62,6710 L 5929.62,6710 L 5929.62,7304.23 L 5919.62,7310 L 5909.62,7304.23 L 5909.62,6710 Z " />
<path stroke="transparent" fill="#000000" transform="matrix(0.0666667 0 0 0.0666667 -287.433 -444.433)" d="M 6444.23,7601.34 L 6434.23,7618.66 L 5919.62,7321.55 L 5919.62,7310 L 5929.62,7304.23 L 6444.23,7601.34 Z " />
<path stroke="transparent" fill="#000000" transform="matrix(0.0666667 0 0 0.0666667 -287.433 -444.433)" d="M 5909.62,7304.23 L 5919.62,7310 L 5919.62,7321.55 L 5497.62,7565.19 L 5487.62,7547.87 L 5909.62,7304.23 Z " />
<path stroke="transparent" fill="#000000" transform="matrix(0.0666667 0 0 0.0666667 -287.433 -444.433)" d="M 4365.77,7618.66 L 4355.77,7601.34 L 4870.38,7304.23 L 4880.38,7310 L 4880.38,7321.55 L 4365.77,7618.66 Z " />
<path stroke="transparent" fill="#000000" transform="matrix(0.0666667 0 0 0.0666667 -287.433 -444.433)" d="M 4870.38,6710 L 4890.38,6710 L 4890.38,7304.23 L 4880.38,7310 L 4870.38,7304.23 L 4870.38,6710 Z " />
<path stroke="transparent" fill="#000000" transform="matrix(0.0666667 0 0 0.0666667 -287.433 -444.433)" d="M 4880.38,7321.55 L 4880.38,7310 L 4890.38,7304.23 L 5312.38,7547.87 L 5302.38,7565.19 L 4880.38,7321.55 Z " />
</svg>
