<?xml version="1.0" standalone="no" ?>
<!DOCTYPE svg PUBLIC "-//W3C//DTD SVG 1.1//EN" "http://www.w3.org/Graphics/SVG/1.1/DTD/svg11.dtd">
<svg width="89px" height="147px" viewBox="0 0 89 147" xmlns="http://www.w3.org/2000/svg" xmlns:xlink="http://www.w3.org/1999/xlink" version="1.1" >
<text x="0" y="0" stroke="transparent" fill="#000000" transform="matrix(0.0666667 0 0 0.0666667 68.507 78.1466)" style="font:normal normal normal 200px 'Arial'" >
O</text>
<text x="0" y="0" stroke="transparent" fill="#000000" transform="matrix(0.0666667 0 0 0.0666667 3.57889 78.1466)" style="font:normal normal normal 200px 'Arial'" >
O</text>
<text x="0" y="0" stroke="transparent" fill="#000000" transform="matrix(0.0666667 0 0 0.0666667 36.0416 14.8239)" style="font:normal normal normal 200px 'Arial'" >
O</text>
<path stroke="transparent" fill="#000000" transform="matrix(0.0666667 0 0 0.0666667 -315.433 -413.433)" d="M 5646.23,7854.41 L 5653.51,7864.41 L 5648.42,7874.41 L 5047.57,7874.41 L 5061.94,7854.41 L 5646.23,7854.41 Z " />
<path stroke="transparent" fill="#000000" transform="matrix(0.0666667 0 0 0.0666667 -315.433 -413.433)" d="M 5790.17,7408.55 L 5809.2,7414.69 L 5664.59,7862.64 L 5653.51,7864.41 L 5646.23,7854.41 L 5790.17,7408.55 Z " />
<path stroke="transparent" fill="#000000" transform="matrix(0.0666667 0 0 0.0666667 -315.433 -413.433)" d="M 5350.12,6956.77 L 5350.12,6932.11 L 5756.23,7225.03 L 5744.53,7241.25 L 5350.12,6956.77 Z " />
<path stroke="transparent" fill="#000000" transform="matrix(0.0666667 0 0 0.0666667 -315.433 -413.433)" d="M 4955.76,7241.25 L 4944.06,7225.03 L 5350.12,6932.11 L 5350.12,6956.77 L 4955.76,7241.25 Z " />
<path stroke="transparent" fill="#000000" transform="matrix(0.0666667 0 0 0.0666667 -315.433 -413.433)" d="M 4892.57,7414.27 L 4911.53,7407.89 L 5061.94,7854.41 L 5047.57,7874.41 L 4892.57,7414.27 Z " />
<path stroke="transparent" fill="#000000" transform="matrix(0.0666667 0 0 0.0666667 -315.433 -413.433)" d="M 5304.21,6465.69 L 5324.21,6465.69 L 5324.21,6970.35 L 5304.21,6970.35 L 5304.21,6465.69 Z " />
<path stroke="transparent" fill="#000000" transform="matrix(0.0666667 0 0 0.0666667 -315.433 -413.433)" d="M 5376.04,6465.69 L 5396.04,6465.69 L 5396.04,6970.34 L 5376.04,6970.34 L 5376.04,6465.69 Z " />
<path stroke="transparent" fill="#000000" transform="matrix(0.0666667 0 0 0.0666667 -315.433 -413.433)" d="M 6014.82,8343.53 L 5998.65,8355.31 L 5648.42,7874.41 L 5653.51,7864.41 L 5664.59,7862.64 L 6014.82,8343.53 Z " />
</svg>
