<?xml version="1.0" standalone="no" ?>
<!DOCTYPE svg PUBLIC "-//W3C//DTD SVG 1.1//EN" "http://www.w3.org/Graphics/SVG/1.1/DTD/svg11.dtd">
<svg width="125px" height="93px" viewBox="0 0 125 93" xmlns="http://www.w3.org/2000/svg" xmlns:xlink="http://www.w3.org/1999/xlink" version="1.1" >
<text x="0" y="0" stroke="transparent" fill="#000000" transform="matrix(0.0666667 0 0 0.0666667 102.247 14.4207)" style="font:normal normal normal 200px 'Arial'" >
OH</text>
<path stroke="transparent" fill="#000000" transform="matrix(0.0666667 0 0 0.0666667 -297.433 -433.433)" d="M 5563.59,7545.58 L 5543.59,7534.04 L 5543.59,6945.58 L 5553.59,6939.81 L 5563.59,6945.58 L 5563.59,7545.58 Z " />
<path stroke="transparent" fill="#000000" transform="matrix(0.0666667 0 0 0.0666667 -297.433 -433.433)" d="M 5033.98,7851.36 L 5033.98,7828.26 L 5543.59,7534.04 L 5563.59,7545.58 L 5033.98,7851.36 Z " />
<path stroke="transparent" fill="#000000" transform="matrix(0.0666667 0 0 0.0666667 -297.433 -433.433)" d="M 4504.36,7545.58 L 4524.36,7534.04 L 5033.98,7828.26 L 5033.98,7851.36 L 4504.36,7545.58 Z " />
<path stroke="transparent" fill="#000000" transform="matrix(0.0666667 0 0 0.0666667 -297.433 -433.433)" d="M 4504.36,6934.04 L 4524.36,6945.58 L 4524.36,7534.04 L 4504.36,7545.58 L 4504.36,6934.04 Z " />
<path stroke="transparent" fill="#000000" transform="matrix(0.0666667 0 0 0.0666667 -297.433 -433.433)" d="M 5033.98,6628.26 L 5033.98,6651.36 L 4524.36,6945.58 L 4504.36,6934.04 L 5033.98,6628.26 Z " />
<path stroke="transparent" fill="#000000" transform="matrix(0.0666667 0 0 0.0666667 -297.433 -433.433)" d="M 5033.98,6651.36 L 5033.98,6628.26 L 5553.59,6928.26 L 5553.59,6939.81 L 5543.59,6945.58 L 5033.98,6651.36 Z " />
<path stroke="transparent" fill="#000000" transform="matrix(0.0666667 0 0 0.0666667 -297.433 -433.433)" d="M 5968.6,6688.66 L 5978.6,6705.98 L 5563.59,6945.58 L 5553.59,6939.81 L 5553.59,6928.26 L 5968.6,6688.66 Z " />
</svg>
