<?xml version="1.0" standalone="no" ?>
<!DOCTYPE svg PUBLIC "-//W3C//DTD SVG 1.1//EN" "http://www.w3.org/Graphics/SVG/1.1/DTD/svg11.dtd">
<svg width="145px" height="77px" viewBox="0 0 145 77" xmlns="http://www.w3.org/2000/svg" xmlns:xlink="http://www.w3.org/1999/xlink" version="1.1" >
<text x="0" y="0" stroke="transparent" fill="#000000" transform="matrix(0.0666667 0 0 0.0666667 32.7256 14.1389)" style="font:normal normal normal 200px 'Arial'" >
O</text>
<text x="0" y="0" stroke="transparent" fill="#000000" transform="matrix(0.0666667 0 0 0.0666667 67.3667 74.1389)" style="font:normal normal normal 200px 'Arial'" >
O</text>
<path stroke="transparent" fill="#000000" transform="matrix(0.0666667 0 0 0.0666667 -287.433 -441.433)" d="M 4365.77,7664.24 L 4355.77,7646.92 L 4880.38,7344.04 L 4880.38,7367.13 L 4365.77,7664.24 Z " />
<path stroke="transparent" fill="#000000" transform="matrix(0.0666667 0 0 0.0666667 -287.433 -441.433)" d="M 4834.38,6875.42 L 4854.38,6875.42 L 4854.38,7376.37 L 4834.38,7376.37 L 4834.38,6875.42 Z " />
<path stroke="transparent" fill="#000000" transform="matrix(0.0666667 0 0 0.0666667 -287.433 -441.433)" d="M 4906.38,6875.42 L 4926.38,6875.42 L 4926.38,7376.37 L 4906.38,7376.37 L 4906.38,6875.42 Z " />
<path stroke="transparent" fill="#000000" transform="matrix(0.0666667 0 0 0.0666667 -287.433 -441.433)" d="M 5312.38,7593.45 L 5302.38,7610.77 L 4880.38,7367.13 L 4880.38,7344.04 L 5312.38,7593.45 Z " />
<path stroke="transparent" fill="#000000" transform="matrix(0.0666667 0 0 0.0666667 -287.433 -441.433)" d="M 5909.62,6755.58 L 5929.62,6755.58 L 5929.62,7349.81 L 5919.62,7355.58 L 5909.62,7349.81 L 5909.62,6755.58 Z " />
<path stroke="transparent" fill="#000000" transform="matrix(0.0666667 0 0 0.0666667 -287.433 -441.433)" d="M 6444.23,7646.92 L 6434.23,7664.24 L 5919.62,7367.13 L 5919.62,7355.58 L 5929.62,7349.81 L 6444.23,7646.92 Z " />
<path stroke="transparent" fill="#000000" transform="matrix(0.0666667 0 0 0.0666667 -287.433 -441.433)" d="M 5909.62,7349.81 L 5919.62,7355.58 L 5919.62,7367.13 L 5497.62,7610.77 L 5487.62,7593.45 L 5909.62,7349.81 Z " />
</svg>
