<?xml version="1.0" standalone="no" ?>
<!DOCTYPE svg PUBLIC "-//W3C//DTD SVG 1.1//EN" "http://www.w3.org/Graphics/SVG/1.1/DTD/svg11.dtd">
<svg width="145px" height="133px" viewBox="0 0 145 133" xmlns="http://www.w3.org/2000/svg" xmlns:xlink="http://www.w3.org/1999/xlink" version="1.1" >
<text x="0" y="0" stroke="transparent" fill="#000000" transform="matrix(0.0666667 0 0 0.0666667 67.7667 14.7278)" style="font:normal normal normal 200px 'Arial'" >
N</text>
<path stroke="transparent" fill="#000000" transform="matrix(0.0666667 0 0 0.0666667 -287.433 -413.433)" d="M 5929.62,7250.19 L 5909.62,7238.64 L 5909.62,6650.19 L 5919.62,6644.42 L 5929.62,6650.19 L 5929.62,7250.19 Z " />
<path stroke="transparent" fill="#000000" transform="matrix(0.0666667 0 0 0.0666667 -287.433 -413.433)" d="M 5410,7550.19 L 5400,7544.42 L 5400,7532.87 L 5909.62,7238.64 L 5929.62,7250.19 L 5410,7550.19 Z " />
<path stroke="transparent" fill="#000000" transform="matrix(0.0666667 0 0 0.0666667 -287.433 -413.433)" d="M 5405,7469.94 L 5395,7452.62 L 5842.62,7194.19 L 5852.62,7211.51 L 5405,7469.94 Z " />
<path stroke="transparent" fill="#000000" transform="matrix(0.0666667 0 0 0.0666667 -287.433 -413.433)" d="M 4870.38,7250.19 L 4890.38,7238.64 L 5400,7532.87 L 5400,7544.42 L 5390,7550.19 L 4870.38,7250.19 Z " />
<path stroke="transparent" fill="#000000" transform="matrix(0.0666667 0 0 0.0666667 -287.433 -413.433)" d="M 4870.38,6650.19 L 4880.38,6644.42 L 4890.38,6650.19 L 4890.38,7238.64 L 4870.38,7250.19 L 4870.38,6650.19 Z " />
<path stroke="transparent" fill="#000000" transform="matrix(0.0666667 0 0 0.0666667 -287.433 -413.433)" d="M 4942.38,6685.99 L 4962.38,6685.99 L 4962.38,7202.85 L 4942.38,7202.85 L 4942.38,6685.99 Z " />
<path stroke="transparent" fill="#000000" transform="matrix(0.0666667 0 0 0.0666667 -287.433 -413.433)" d="M 5284.94,6399.3 L 5294.94,6416.62 L 4890.38,6650.19 L 4880.38,6644.42 L 4880.38,6632.87 L 5284.94,6399.3 Z " />
<path stroke="transparent" fill="#000000" transform="matrix(0.0666667 0 0 0.0666667 -287.433 -413.433)" d="M 5505.06,6416.62 L 5515.06,6399.3 L 5919.62,6632.87 L 5919.62,6644.42 L 5909.62,6650.19 L 5505.06,6416.62 Z " />
<path stroke="transparent" fill="#000000" transform="matrix(0.0666667 0 0 0.0666667 -287.433 -413.433)" d="M 5469.06,6478.97 L 5479.06,6461.65 L 5852.62,6677.33 L 5842.62,6694.65 L 5469.06,6478.97 Z " />
<path stroke="transparent" fill="#000000" transform="matrix(0.0666667 0 0 0.0666667 -287.433 -413.433)" d="M 4355.77,6353.08 L 4365.77,6335.76 L 4880.38,6632.87 L 4880.38,6644.42 L 4870.38,6650.19 L 4355.77,6353.08 Z " />
<path stroke="transparent" fill="#000000" transform="matrix(0.0666667 0 0 0.0666667 -287.433 -413.433)" d="M 5410,8144.42 L 5390,8144.42 L 5390,7550.19 L 5400,7544.42 L 5410,7550.19 L 5410,8144.42 Z " />
<path stroke="transparent" fill="#000000" transform="matrix(0.0666667 0 0 0.0666667 -287.433 -413.433)" d="M 6434.23,6335.76 L 6444.23,6353.08 L 5929.62,6650.19 L 5919.62,6644.42 L 5919.62,6632.87 L 6434.23,6335.76 Z " />
</svg>
