<?xml version="1.0" standalone="no" ?>
<!DOCTYPE svg PUBLIC "-//W3C//DTD SVG 1.1//EN" "http://www.w3.org/Graphics/SVG/1.1/DTD/svg11.dtd">
<svg width="111px" height="88px" viewBox="0 0 111 88" xmlns="http://www.w3.org/2000/svg" xmlns:xlink="http://www.w3.org/1999/xlink" version="1.1" >
<path stroke="transparent" fill="#000000" transform="matrix(0.0666667 0 0 0.0666667 -304.433 -436.433)" d="M 5672.31,7505.77 L 5652.31,7494.23 L 5652.31,6905.77 L 5662.31,6900 L 5672.31,6905.77 L 5672.31,7505.77 Z " />
<path stroke="transparent" fill="#000000" transform="matrix(0.0666667 0 0 0.0666667 -304.433 -436.433)" d="M 5142.69,6611.55 L 5142.69,6588.45 L 5662.31,6888.45 L 5662.31,6900 L 5652.31,6905.77 L 5142.69,6611.55 Z " />
<path stroke="transparent" fill="#000000" transform="matrix(0.0666667 0 0 0.0666667 -304.433 -436.433)" d="M 5137.69,6691.8 L 5147.69,6674.48 L 5595.31,6932.91 L 5585.31,6950.23 L 5137.69,6691.8 Z " />
<path stroke="transparent" fill="#000000" transform="matrix(0.0666667 0 0 0.0666667 -304.433 -436.433)" d="M 5142.69,7811.55 L 5142.69,7788.45 L 5652.31,7494.23 L 5672.31,7505.77 L 5142.69,7811.55 Z " />
<path stroke="transparent" fill="#000000" transform="matrix(0.0666667 0 0 0.0666667 -304.433 -436.433)" d="M 5147.69,7725.52 L 5137.69,7708.2 L 5585.31,7449.77 L 5595.31,7467.09 L 5147.69,7725.52 Z " />
<path stroke="transparent" fill="#000000" transform="matrix(0.0666667 0 0 0.0666667 -304.433 -436.433)" d="M 5142.69,7788.45 L 5142.69,7811.55 L 4613.08,7505.77 L 4633.08,7494.23 L 5142.69,7788.45 Z " />
<path stroke="transparent" fill="#000000" transform="matrix(0.0666667 0 0 0.0666667 -304.433 -436.433)" d="M 4613.08,6894.23 L 4633.08,6905.77 L 4633.08,7494.23 L 4613.08,7505.77 L 4613.08,6894.23 Z " />
<path stroke="transparent" fill="#000000" transform="matrix(0.0666667 0 0 0.0666667 -304.433 -436.433)" d="M 4685.08,6941.57 L 4705.08,6941.57 L 4705.08,7458.43 L 4685.08,7458.43 L 4685.08,6941.57 Z " />
<path stroke="transparent" fill="#000000" transform="matrix(0.0666667 0 0 0.0666667 -304.433 -436.433)" d="M 4633.08,6905.77 L 4613.08,6894.23 L 5142.69,6588.45 L 5142.69,6611.55 L 4633.08,6905.77 Z " />
<path stroke="transparent" fill="#000000" transform="matrix(0.0666667 0 0 0.0666667 -304.433 -436.433)" d="M 6176.92,6591.34 L 6186.92,6608.66 L 5672.31,6905.77 L 5662.31,6900 L 5662.31,6888.45 L 6176.92,6591.34 Z " />
</svg>
