<?xml version="1.0" standalone="no" ?>
<!DOCTYPE svg PUBLIC "-//W3C//DTD SVG 1.1//EN" "http://www.w3.org/Graphics/SVG/1.1/DTD/svg11.dtd">
<svg width="119px" height="93px" viewBox="0 0 119 93" xmlns="http://www.w3.org/2000/svg" xmlns:xlink="http://www.w3.org/1999/xlink" version="1.1" >
<text x="0" y="0" stroke="transparent" fill="#000000" transform="matrix(0.0666667 0 0 0.0666667 103.166 14.4207)" style="font:normal normal normal 200px 'Arial'" >
Cl</text>
<path stroke="transparent" fill="#000000" transform="matrix(0.0666667 0 0 0.0666667 -300.433 -433.433)" d="M 5616.37,7545.58 L 5596.37,7534.04 L 5596.37,6945.58 L 5606.37,6939.81 L 5616.37,6945.58 L 5616.37,7545.58 Z " />
<path stroke="transparent" fill="#000000" transform="matrix(0.0666667 0 0 0.0666667 -300.433 -433.433)" d="M 5086.76,7851.36 L 5086.76,7828.26 L 5596.37,7534.04 L 5616.37,7545.58 L 5086.76,7851.36 Z " />
<path stroke="transparent" fill="#000000" transform="matrix(0.0666667 0 0 0.0666667 -300.433 -433.433)" d="M 5091.76,7765.33 L 5081.76,7748.01 L 5529.37,7489.58 L 5539.37,7506.9 L 5091.76,7765.33 Z " />
<path stroke="transparent" fill="#000000" transform="matrix(0.0666667 0 0 0.0666667 -300.433 -433.433)" d="M 4557.14,7545.58 L 4577.14,7534.04 L 5086.76,7828.26 L 5086.76,7851.36 L 4557.14,7545.58 Z " />
<path stroke="transparent" fill="#000000" transform="matrix(0.0666667 0 0 0.0666667 -300.433 -433.433)" d="M 4557.14,6934.04 L 4577.14,6945.58 L 4577.14,7534.04 L 4557.14,7545.58 L 4557.14,6934.04 Z " />
<path stroke="transparent" fill="#000000" transform="matrix(0.0666667 0 0 0.0666667 -300.433 -433.433)" d="M 4629.14,6981.38 L 4649.14,6981.38 L 4649.14,7498.24 L 4629.14,7498.24 L 4629.14,6981.38 Z " />
<path stroke="transparent" fill="#000000" transform="matrix(0.0666667 0 0 0.0666667 -300.433 -433.433)" d="M 5086.76,6628.26 L 5086.76,6651.36 L 4577.14,6945.58 L 4557.14,6934.04 L 5086.76,6628.26 Z " />
<path stroke="transparent" fill="#000000" transform="matrix(0.0666667 0 0 0.0666667 -300.433 -433.433)" d="M 5086.76,6651.36 L 5086.76,6628.26 L 5606.37,6928.26 L 5606.37,6939.81 L 5596.37,6945.58 L 5086.76,6651.36 Z " />
<path stroke="transparent" fill="#000000" transform="matrix(0.0666667 0 0 0.0666667 -300.433 -433.433)" d="M 5081.76,6731.61 L 5091.76,6714.29 L 5539.37,6972.72 L 5529.37,6990.04 L 5081.76,6731.61 Z " />
<path stroke="transparent" fill="#000000" transform="matrix(0.0666667 0 0 0.0666667 -300.433 -433.433)" d="M 6025.42,6686.33 L 6035.42,6703.65 L 5616.37,6945.58 L 5606.37,6939.81 L 5606.37,6928.26 L 6025.42,6686.33 Z " />
</svg>
