<?xml version="1.0" standalone="no" ?>
<!DOCTYPE svg PUBLIC "-//W3C//DTD SVG 1.1//EN" "http://www.w3.org/Graphics/SVG/1.1/DTD/svg11.dtd">
<svg width="105px" height="142px" viewBox="0 0 105 142" xmlns="http://www.w3.org/2000/svg" xmlns:xlink="http://www.w3.org/1999/xlink" version="1.1" >
<text x="0" y="0" stroke="transparent" fill="#000000" transform="matrix(0.0666667 0 0 0.0666667 91.7732 14.0743)" style="font:normal normal normal 200px 'Arial'" >
O</text>
<text x="0" y="0" stroke="transparent" fill="#000000" transform="matrix(0.0666667 0 0 0.0666667 68.215 42.3414)" style="font:normal normal normal 200px 'Arial'" >
O</text>
<text x="0" y="0" stroke="transparent" fill="#000000" transform="matrix(0.0666667 0 0 0.0666667 87.5909 138.203)" style="font:normal normal normal 200px 'Arial'" >
O</text>
<path stroke="transparent" fill="#000000" transform="matrix(0.0666667 0 0 0.0666667 -307.433 -416.433)" d="M 6063.73,7252.45 L 6074,7282.66 L 6060.95,7281.97 L 5777.14,6905.65 L 5793.11,6893.61 L 6063.73,7252.45 Z " />
<path stroke="transparent" fill="#000000" transform="matrix(0.0666667 0 0 0.0666667 -307.433 -416.433)" d="M 6084.02,7285.57 L 6074,7282.66 L 6063.73,7252.45 L 6057.15,6499.53 L 6077.15,6499.35 L 6084.02,7285.57 Z " />
<path stroke="transparent" fill="#000000" transform="matrix(0.0666667 0 0 0.0666667 -307.433 -416.433)" d="M 5777.8,7748.13 L 5639.97,7728.13 L 6060.95,7281.97 L 6074,7282.66 L 6084.02,7285.57 L 5777.8,7748.13 Z " />
<path stroke="transparent" fill="#000000" transform="matrix(0.0666667 0 0 0.0666667 -307.433 -416.433)" d="M 5639.97,7728.13 L 5777.8,7748.13 L 5014.18,7748.13 L 5024.02,7728.13 L 5639.97,7728.13 Z " />
<path stroke="transparent" fill="#000000" transform="matrix(0.0666667 0 0 0.0666667 -307.433 -416.433)" d="M 5024.02,7728.13 L 5014.18,7748.13 L 4655.9,7282.82 L 4680.91,7282.51 L 5024.02,7728.13 Z " />
<path stroke="transparent" fill="#000000" transform="matrix(0.0666667 0 0 0.0666667 -307.433 -416.433)" d="M 5604.73,6793.62 L 5604.73,6813.62 L 5024.17,6813.62 L 5019.1,6803.62 L 5029.04,6793.62 L 5604.73,6793.62 Z " />
<path stroke="transparent" fill="#000000" transform="matrix(0.0666667 0 0 0.0666667 -307.433 -416.433)" d="M 5958.1,6369.61 L 5958.1,6389.61 L 5026.62,6389.61 L 5006.5,6369.61 L 5958.1,6369.61 Z " />
<path stroke="transparent" fill="#000000" transform="matrix(0.0666667 0 0 0.0666667 -307.433 -416.433)" d="M 5006.5,6369.61 L 5026.62,6389.61 L 5029.04,6793.62 L 5019.1,6803.62 L 5009.08,6800.38 L 5006.5,6369.61 Z " />
<path stroke="transparent" fill="#000000" transform="matrix(0.0666667 0 0 0.0666667 -307.433 -416.433)" d="M 4680.91,7282.51 L 4655.9,7282.82 L 5009.08,6800.38 L 5019.1,6803.62 L 5024.17,6813.62 L 4680.91,7282.51 Z " />
<path stroke="transparent" fill="#000000" transform="matrix(0.0666667 0 0 0.0666667 -307.433 -416.433)" d="M 5988.98,8126.87 L 5971.66,8136.87 L 5727.37,7713.75 L 5744.69,7703.75 L 5988.98,8126.87 Z " />
<path stroke="transparent" fill="#000000" transform="matrix(0.0666667 0 0 0.0666667 -307.433 -416.433)" d="M 5928.57,8161.75 L 5911.25,8171.75 L 5663.79,7743.13 L 5681.11,7733.13 L 5928.57,8161.75 Z " />
</svg>
