<?xml version="1.0" standalone="no" ?>
<!DOCTYPE svg PUBLIC "-//W3C//DTD SVG 1.1//EN" "http://www.w3.org/Graphics/SVG/1.1/DTD/svg11.dtd">
<svg width="145px" height="33px" viewBox="0 0 145 33" xmlns="http://www.w3.org/2000/svg" xmlns:xlink="http://www.w3.org/1999/xlink" version="1.1" >
<text x="0" y="0" stroke="transparent" fill="#000000" transform="matrix(0.0666667 0 0 0.0666667 32.7256 14.4206)" style="font:normal normal normal 200px 'Arial'" >
O</text>
<text x="0" y="0" stroke="transparent" fill="#000000" transform="matrix(0.0666667 0 0 0.0666667 102.008 14.4206)" style="font:normal normal normal 200px 'Arial'" >
O</text>
<path stroke="transparent" fill="#000000" transform="matrix(0.0666667 0 0 0.0666667 -287.433 -463.433)" d="M 4365.77,7398.47 L 4355.77,7381.15 L 4775.78,7138.66 L 4785.78,7155.98 L 4365.77,7398.47 Z " />
<path stroke="transparent" fill="#000000" transform="matrix(0.0666667 0 0 0.0666667 -287.433 -463.433)" d="M 4975.42,7156.23 L 4985.42,7138.91 L 5400,7378.26 L 5400,7401.36 L 4975.42,7156.23 Z " />
<path stroke="transparent" fill="#000000" transform="matrix(0.0666667 0 0 0.0666667 -287.433 -463.433)" d="M 6444.23,7381.15 L 6434.23,7398.47 L 6014.65,7156.23 L 6024.65,7138.91 L 6444.23,7381.15 Z " />
<path stroke="transparent" fill="#000000" transform="matrix(0.0666667 0 0 0.0666667 -287.433 -463.433)" d="M 5815.01,7138.66 L 5825.01,7155.98 L 5400,7401.36 L 5400,7378.26 L 5815.01,7138.66 Z " />
</svg>
