<?xml version="1.0" standalone="no" ?>
<!DOCTYPE svg PUBLIC "-//W3C//DTD SVG 1.1//EN" "http://www.w3.org/Graphics/SVG/1.1/DTD/svg11.dtd">
<svg width="73px" height="75px" viewBox="0 0 73 75" xmlns="http://www.w3.org/2000/svg" xmlns:xlink="http://www.w3.org/1999/xlink" version="1.1" >
<text x="0" y="0" stroke="transparent" fill="#000000" transform="matrix(0.0666667 0 0 0.0666667 51.3667 14.6167)" style="font:normal normal normal 200px 'Arial'" >
O</text>
<path stroke="transparent" fill="#000000" transform="matrix(0.0666667 0 0 0.0666667 -323.433 -442.433)" d="M 5897.17,7352.2 L 5873.65,7344.56 L 5728.13,6896.68 L 5747.15,6890.5 L 5897.17,7352.2 Z " />
<path stroke="transparent" fill="#000000" transform="matrix(0.0666667 0 0 0.0666667 -323.433 -442.433)" d="M 5400,7713.42 L 5400,7688.69 L 5873.65,7344.56 L 5897.17,7352.2 L 5400,7713.42 Z " />
<path stroke="transparent" fill="#000000" transform="matrix(0.0666667 0 0 0.0666667 -323.433 -442.433)" d="M 4902.83,7352.2 L 4926.35,7344.56 L 5400,7688.69 L 5400,7713.42 L 4902.83,7352.2 Z " />
<path stroke="transparent" fill="#000000" transform="matrix(0.0666667 0 0 0.0666667 -323.433 -442.433)" d="M 5092.73,6767.75 L 5107.27,6787.75 L 4926.35,7344.56 L 4902.83,7352.2 L 5092.73,6767.75 Z " />
<path stroke="transparent" fill="#000000" transform="matrix(0.0666667 0 0 0.0666667 -323.433 -442.433)" d="M 5107.27,6787.75 L 5092.73,6767.75 L 5592,6767.75 L 5592,6787.75 L 5107.27,6787.75 Z " />
</svg>
