<?xml version="1.0" standalone="no" ?>
<!DOCTYPE svg PUBLIC "-//W3C//DTD SVG 1.1//EN" "http://www.w3.org/Graphics/SVG/1.1/DTD/svg11.dtd">
<svg width="145px" height="28px" viewBox="0 0 145 28" xmlns="http://www.w3.org/2000/svg" xmlns:xlink="http://www.w3.org/1999/xlink" version="1.1" >
<path stroke="transparent" fill="#000000" transform="matrix(0.0666667 0 0 0.0666667 -287.433 -466.433)" d="M 4880.38,7038.45 L 4880.38,7061.55 L 4365.77,7358.66 L 4355.77,7341.34 L 4880.38,7038.45 Z " />
<path stroke="transparent" fill="#000000" transform="matrix(0.0666667 0 0 0.0666667 -287.433 -466.433)" d="M 5400,7338.45 L 5400,7361.55 L 4880.38,7061.55 L 4880.38,7038.45 L 5400,7338.45 Z " />
<path stroke="transparent" fill="#000000" transform="matrix(0.0666667 0 0 0.0666667 -287.433 -466.433)" d="M 5919.62,7038.45 L 5919.62,7061.55 L 5400,7361.55 L 5400,7338.45 L 5919.62,7038.45 Z " />
<path stroke="transparent" fill="#000000" transform="matrix(0.0666667 0 0 0.0666667 -287.433 -466.433)" d="M 6444.23,7341.34 L 6434.23,7358.66 L 5919.62,7061.55 L 5919.62,7038.45 L 6444.23,7341.34 Z " />
</svg>
