<?xml version="1.0" standalone="no" ?>
<!DOCTYPE svg PUBLIC "-//W3C//DTD SVG 1.1//EN" "http://www.w3.org/Graphics/SVG/1.1/DTD/svg11.dtd">
<svg width="181px" height="77px" viewBox="0 0 181 77" xmlns="http://www.w3.org/2000/svg" xmlns:xlink="http://www.w3.org/1999/xlink" version="1.1" >
<text x="0" y="0" stroke="transparent" fill="#000000" transform="matrix(0.0666667 0 0 0.0666667 33.4051 14.1389)" style="font:normal normal normal 200px 'Arial'" >
O</text>
<text x="0" y="0" stroke="transparent" fill="#000000" transform="matrix(0.0666667 0 0 0.0666667 68.0462 74.1389)" style="font:normal normal normal 200px 'Arial'" >
O</text>
<path stroke="transparent" fill="#000000" transform="matrix(0.0666667 0 0 0.0666667 -269.433 -441.433)" d="M 4105.96,7664.24 L 4095.96,7646.92 L 4620.58,7344.04 L 4620.58,7367.13 L 4105.96,7664.24 Z " />
<path stroke="transparent" fill="#000000" transform="matrix(0.0666667 0 0 0.0666667 -269.433 -441.433)" d="M 4574.58,6875.42 L 4594.58,6875.42 L 4594.58,7376.37 L 4574.58,7376.37 L 4574.58,6875.42 Z " />
<path stroke="transparent" fill="#000000" transform="matrix(0.0666667 0 0 0.0666667 -269.433 -441.433)" d="M 4646.58,6875.42 L 4666.58,6875.42 L 4666.58,7376.37 L 4646.58,7376.37 L 4646.58,6875.42 Z " />
<path stroke="transparent" fill="#000000" transform="matrix(0.0666667 0 0 0.0666667 -269.433 -441.433)" d="M 5052.57,7593.45 L 5042.57,7610.77 L 4620.58,7367.13 L 4620.58,7344.04 L 5052.57,7593.45 Z " />
<path stroke="transparent" fill="#000000" transform="matrix(0.0666667 0 0 0.0666667 -269.433 -441.433)" d="M 6179.42,7644.04 L 6179.42,7667.13 L 5659.81,7367.13 L 5659.81,7344.04 L 6179.42,7644.04 Z " />
<path stroke="transparent" fill="#000000" transform="matrix(0.0666667 0 0 0.0666667 -269.433 -441.433)" d="M 6694.04,7346.92 L 6704.04,7364.24 L 6179.42,7667.13 L 6179.42,7644.04 L 6694.04,7346.92 Z " />
<path stroke="transparent" fill="#000000" transform="matrix(0.0666667 0 0 0.0666667 -269.433 -441.433)" d="M 5659.81,7344.04 L 5659.81,7367.13 L 5237.81,7610.77 L 5227.81,7593.45 L 5659.81,7344.04 Z " />
</svg>
