<?xml version="1.0" standalone="no" ?>
<!DOCTYPE svg PUBLIC "-//W3C//DTD SVG 1.1//EN" "http://www.w3.org/Graphics/SVG/1.1/DTD/svg11.dtd">
<svg width="209px" height="37px" viewBox="0 0 209 37" xmlns="http://www.w3.org/2000/svg" xmlns:xlink="http://www.w3.org/1999/xlink" version="1.1" >
<text x="0" y="0" stroke="transparent" fill="#000000" transform="matrix(0.0666667 0 0 0.0666667 3.1352 34.1389)" style="font:normal normal normal 200px 'Arial'" >
HO</text>
<text x="0" y="0" stroke="transparent" fill="#000000" transform="matrix(0.0666667 0 0 0.0666667 185.969 14.1389)" style="font:normal normal normal 200px 'Arial'" >
OH</text>
<path stroke="transparent" fill="#000000" transform="matrix(0.0666667 0 0 0.0666667 -255.433 -461.433)" d="M 5140.19,7344.04 L 5140.19,7367.13 L 4620.58,7067.13 L 4620.58,7044.04 L 5140.19,7344.04 Z " />
<path stroke="transparent" fill="#000000" transform="matrix(0.0666667 0 0 0.0666667 -255.433 -461.433)" d="M 5659.81,7044.04 L 5659.81,7067.13 L 5140.19,7367.13 L 5140.19,7344.04 L 5659.81,7044.04 Z " />
<path stroke="transparent" fill="#000000" transform="matrix(0.0666667 0 0 0.0666667 -255.433 -461.433)" d="M 6179.42,7344.04 L 6179.42,7367.13 L 5659.81,7067.13 L 5659.81,7044.04 L 6179.42,7344.04 Z " />
<path stroke="transparent" fill="#000000" transform="matrix(0.0666667 0 0 0.0666667 -255.433 -461.433)" d="M 4198.57,7310.77 L 4188.57,7293.45 L 4620.58,7044.04 L 4620.58,7067.13 L 4198.57,7310.77 Z " />
<path stroke="transparent" fill="#000000" transform="matrix(0.0666667 0 0 0.0666667 -255.433 -461.433)" d="M 6594.43,7104.43 L 6604.43,7121.75 L 6179.42,7367.13 L 6179.42,7344.04 L 6594.43,7104.43 Z " />
</svg>
