<?xml version="1.0" standalone="no" ?>
<!DOCTYPE svg PUBLIC "-//W3C//DTD SVG 1.1//EN" "http://www.w3.org/Graphics/SVG/1.1/DTD/svg11.dtd">
<svg width="181px" height="28px" viewBox="0 0 181 28" xmlns="http://www.w3.org/2000/svg" xmlns:xlink="http://www.w3.org/1999/xlink" version="1.1" >
<path stroke="transparent" fill="#000000" transform="matrix(0.0666667 0 0 0.0666667 -269.433 -466.433)" d="M 4620.58,7038.45 L 4620.58,7061.55 L 4105.96,7358.66 L 4095.96,7341.34 L 4620.58,7038.45 Z " />
<path stroke="transparent" fill="#000000" transform="matrix(0.0666667 0 0 0.0666667 -269.433 -466.433)" d="M 5140.19,7338.45 L 5140.19,7361.55 L 4620.58,7061.55 L 4620.58,7038.45 L 5140.19,7338.45 Z " />
<path stroke="transparent" fill="#000000" transform="matrix(0.0666667 0 0 0.0666667 -269.433 -466.433)" d="M 5659.81,7038.45 L 5659.81,7061.55 L 5140.19,7361.55 L 5140.19,7338.45 L 5659.81,7038.45 Z " />
<path stroke="transparent" fill="#000000" transform="matrix(0.0666667 0 0 0.0666667 -269.433 -466.433)" d="M 6179.42,7338.45 L 6179.42,7361.55 L 5659.81,7061.55 L 5659.81,7038.45 L 6179.42,7338.45 Z " />
<path stroke="transparent" fill="#000000" transform="matrix(0.0666667 0 0 0.0666667 -269.433 -466.433)" d="M 6694.04,7041.34 L 6704.04,7058.66 L 6179.42,7361.55 L 6179.42,7338.45 L 6694.04,7041.34 Z " />
</svg>
