<?xml version="1.0" standalone="no" ?>
<!DOCTYPE svg PUBLIC "-//W3C//DTD SVG 1.1//EN" "http://www.w3.org/Graphics/SVG/1.1/DTD/svg11.dtd">
<svg width="81px" height="88px" viewBox="0 0 81 88" xmlns="http://www.w3.org/2000/svg" xmlns:xlink="http://www.w3.org/1999/xlink" version="1.1" >
<text x="0" y="0" stroke="transparent" fill="#000000" transform="matrix(0.0666667 0 0 0.0666667 68.3266 28.7667)" style="font:normal normal normal 200px 'Arial'" >
N</text>
<path stroke="transparent" fill="#000000" transform="matrix(0.0666667 0 0 0.0666667 -319.433 -436.433)" d="M 5368.78,7811.55 L 5368.78,7788.45 L 5878.4,7494.23 L 5898.4,7505.77 L 5368.78,7811.55 Z " />
<path stroke="transparent" fill="#000000" transform="matrix(0.0666667 0 0 0.0666667 -319.433 -436.433)" d="M 4839.17,7505.77 L 4859.17,7494.23 L 5368.78,7788.45 L 5368.78,7811.55 L 4839.17,7505.77 Z " />
<path stroke="transparent" fill="#000000" transform="matrix(0.0666667 0 0 0.0666667 -319.433 -436.433)" d="M 4916.17,7467.09 L 4926.17,7449.77 L 5373.78,7708.2 L 5363.78,7725.52 L 4916.17,7467.09 Z " />
<path stroke="transparent" fill="#000000" transform="matrix(0.0666667 0 0 0.0666667 -319.433 -436.433)" d="M 4839.17,6894.23 L 4859.17,6905.77 L 4859.17,7494.23 L 4839.17,7505.77 L 4839.17,6894.23 Z " />
<path stroke="transparent" fill="#000000" transform="matrix(0.0666667 0 0 0.0666667 -319.433 -436.433)" d="M 5368.78,6588.45 L 5368.78,6611.55 L 4859.17,6905.77 L 4839.17,6894.23 L 5368.78,6588.45 Z " />
<path stroke="transparent" fill="#000000" transform="matrix(0.0666667 0 0 0.0666667 -319.433 -436.433)" d="M 5363.78,6674.48 L 5373.78,6691.8 L 4926.17,6950.23 L 4916.17,6932.91 L 5363.78,6674.48 Z " />
<path stroke="transparent" fill="#000000" transform="matrix(0.0666667 0 0 0.0666667 -319.433 -436.433)" d="M 5789.55,6831.38 L 5779.55,6848.7 L 5368.78,6611.55 L 5368.78,6588.45 L 5789.55,6831.38 Z " />
<path stroke="transparent" fill="#000000" transform="matrix(0.0666667 0 0 0.0666667 -319.433 -436.433)" d="M 5878.4,7017.17 L 5898.4,7017.17 L 5898.4,7505.77 L 5878.4,7494.23 L 5878.4,7017.17 Z " />
<path stroke="transparent" fill="#000000" transform="matrix(0.0666667 0 0 0.0666667 -319.433 -436.433)" d="M 5806.4,7017.17 L 5826.4,7017.17 L 5826.4,7458.43 L 5806.4,7458.43 L 5806.4,7017.17 Z " />
</svg>
