<?xml version="1.0" standalone="no" ?>
<!DOCTYPE svg PUBLIC "-//W3C//DTD SVG 1.1//EN" "http://www.w3.org/Graphics/SVG/1.1/DTD/svg11.dtd">
<svg width="181px" height="113px" viewBox="0 0 181 113" xmlns="http://www.w3.org/2000/svg" xmlns:xlink="http://www.w3.org/1999/xlink" version="1.1" >
<text x="0" y="0" stroke="transparent" fill="#000000" transform="matrix(0.0666667 0 0 0.0666667 33.4051 14.8055)" style="font:normal normal normal 200px 'Arial'" >
O</text>
<text x="0" y="0" stroke="transparent" fill="#000000" transform="matrix(0.0666667 0 0 0.0666667 68.0462 74.8055)" style="font:normal normal normal 200px 'Arial'" >
O</text>
<path stroke="transparent" fill="#000000" transform="matrix(0.0666667 0 0 0.0666667 -269.433 -423.433)" d="M 4105.96,7404.24 L 4095.96,7386.92 L 4620.58,7084.04 L 4620.58,7107.13 L 4105.96,7404.24 Z " />
<path stroke="transparent" fill="#000000" transform="matrix(0.0666667 0 0 0.0666667 -269.433 -423.433)" d="M 4574.58,6615.42 L 4594.58,6615.42 L 4594.58,7116.37 L 4574.58,7116.37 L 4574.58,6615.42 Z " />
<path stroke="transparent" fill="#000000" transform="matrix(0.0666667 0 0 0.0666667 -269.433 -423.433)" d="M 4646.58,6615.42 L 4666.58,6615.42 L 4666.58,7116.37 L 4646.58,7116.37 L 4646.58,6615.42 Z " />
<path stroke="transparent" fill="#000000" transform="matrix(0.0666667 0 0 0.0666667 -269.433 -423.433)" d="M 5052.57,7333.45 L 5042.57,7350.77 L 4620.58,7107.13 L 4620.58,7084.04 L 5052.57,7333.45 Z " />
<path stroke="transparent" fill="#000000" transform="matrix(0.0666667 0 0 0.0666667 -269.433 -423.433)" d="M 6179.42,7384.04 L 6179.42,7395.58 L 6169.42,7401.36 L 5659.81,7107.13 L 5659.81,7084.04 L 6179.42,7384.04 Z " />
<path stroke="transparent" fill="#000000" transform="matrix(0.0666667 0 0 0.0666667 -269.433 -423.433)" d="M 6694.04,7086.92 L 6704.04,7104.24 L 6189.42,7401.36 L 6179.42,7395.58 L 6179.42,7384.04 L 6694.04,7086.92 Z " />
<path stroke="transparent" fill="#000000" transform="matrix(0.0666667 0 0 0.0666667 -269.433 -423.433)" d="M 6169.42,7401.36 L 6179.42,7395.58 L 6189.42,7401.36 L 6189.42,7995.58 L 6169.42,7995.58 L 6169.42,7401.36 Z " />
<path stroke="transparent" fill="#000000" transform="matrix(0.0666667 0 0 0.0666667 -269.433 -423.433)" d="M 5659.81,7084.04 L 5659.81,7107.13 L 5237.81,7350.77 L 5227.81,7333.45 L 5659.81,7084.04 Z " />
</svg>
