<?xml version="1.0" standalone="no" ?>
<!DOCTYPE svg PUBLIC "-//W3C//DTD SVG 1.1//EN" "http://www.w3.org/Graphics/SVG/1.1/DTD/svg11.dtd">
<svg width="264px" height="33px" viewBox="0 0 264 33" xmlns="http://www.w3.org/2000/svg" xmlns:xlink="http://www.w3.org/1999/xlink" version="1.1" >
<text x="0" y="0" stroke="transparent" fill="#000000" transform="matrix(0.0666667 0 0 0.0666667 240.362 14.4206)" style="font:normal normal normal 200px 'Arial'" >
OH</text>
<path stroke="transparent" fill="#000000" transform="matrix(0.0666667 0 0 0.0666667 -228.433 -463.433)" d="M 6070.71,7101.36 L 6070.71,7078.26 L 6590.32,7378.26 L 6590.32,7401.36 L 6070.71,7101.36 Z " />
<path stroke="transparent" fill="#000000" transform="matrix(0.0666667 0 0 0.0666667 -228.433 -463.433)" d="M 5551.09,7401.36 L 5551.09,7378.26 L 6070.71,7078.26 L 6070.71,7101.36 L 5551.09,7401.36 Z " />
<path stroke="transparent" fill="#000000" transform="matrix(0.0666667 0 0 0.0666667 -228.433 -463.433)" d="M 5031.48,7101.36 L 5031.48,7078.26 L 5551.09,7378.26 L 5551.09,7401.36 L 5031.48,7101.36 Z " />
<path stroke="transparent" fill="#000000" transform="matrix(0.0666667 0 0 0.0666667 -228.433 -463.433)" d="M 4511.86,7401.36 L 4511.86,7378.26 L 5031.48,7078.26 L 5031.48,7101.36 L 4511.86,7401.36 Z " />
<path stroke="transparent" fill="#000000" transform="matrix(0.0666667 0 0 0.0666667 -228.433 -463.433)" d="M 3992.24,7101.36 L 3992.24,7078.26 L 4511.86,7378.26 L 4511.86,7401.36 L 3992.24,7101.36 Z " />
<path stroke="transparent" fill="#000000" transform="matrix(0.0666667 0 0 0.0666667 -228.433 -463.433)" d="M 3477.63,7398.47 L 3467.63,7381.15 L 3992.24,7078.26 L 3992.24,7101.36 L 3477.63,7398.47 Z " />
<path stroke="transparent" fill="#000000" transform="matrix(0.0666667 0 0 0.0666667 -228.433 -463.433)" d="M 7005.33,7138.66 L 7015.33,7155.98 L 6590.32,7401.36 L 6590.32,7378.26 L 7005.33,7138.66 Z " />
</svg>
