<?xml version="1.0" standalone="no" ?>
<!DOCTYPE svg PUBLIC "-//W3C//DTD SVG 1.1//EN" "http://www.w3.org/Graphics/SVG/1.1/DTD/svg11.dtd">
<svg width="299px" height="33px" viewBox="0 0 299 33" xmlns="http://www.w3.org/2000/svg" xmlns:xlink="http://www.w3.org/1999/xlink" version="1.1" >
<text x="0" y="0" stroke="transparent" fill="#000000" transform="matrix(0.0666667 0 0 0.0666667 3.42148 29.4849)" style="font:normal normal normal 200px 'Arial'" >
HO</text>
<path stroke="transparent" fill="#000000" transform="matrix(0.0666667 0 0 0.0666667 -210.433 -463.433)" d="M 4469.49,7304.23 L 4469.49,7327.32 L 3949.87,7027.32 L 3949.87,7004.23 L 4469.49,7304.23 Z " />
<path stroke="transparent" fill="#000000" transform="matrix(0.0666667 0 0 0.0666667 -210.433 -463.433)" d="M 4989.1,7004.23 L 4989.1,7027.32 L 4469.49,7327.32 L 4469.49,7304.23 L 4989.1,7004.23 Z " />
<path stroke="transparent" fill="#000000" transform="matrix(0.0666667 0 0 0.0666667 -210.433 -463.433)" d="M 5508.72,7304.23 L 5508.72,7327.32 L 4989.1,7027.32 L 4989.1,7004.23 L 5508.72,7304.23 Z " />
<path stroke="transparent" fill="#000000" transform="matrix(0.0666667 0 0 0.0666667 -210.433 -463.433)" d="M 6028.33,7004.23 L 6028.33,7027.32 L 5508.72,7327.32 L 5508.72,7304.23 L 6028.33,7004.23 Z " />
<path stroke="transparent" fill="#000000" transform="matrix(0.0666667 0 0 0.0666667 -210.433 -463.433)" d="M 6547.95,7304.23 L 6547.95,7327.32 L 6028.33,7027.32 L 6028.33,7004.23 L 6547.95,7304.23 Z " />
<path stroke="transparent" fill="#000000" transform="matrix(0.0666667 0 0 0.0666667 -210.433 -463.433)" d="M 7067.56,7004.23 L 7067.56,7027.32 L 6547.95,7327.32 L 6547.95,7304.23 L 7067.56,7004.23 Z " />
<path stroke="transparent" fill="#000000" transform="matrix(0.0666667 0 0 0.0666667 -210.433 -463.433)" d="M 7592.18,7307.11 L 7582.18,7324.43 L 7067.56,7027.32 L 7067.56,7004.23 L 7592.18,7307.11 Z " />
<path stroke="transparent" fill="#000000" transform="matrix(0.0666667 0 0 0.0666667 -210.433 -463.433)" d="M 3527.87,7270.96 L 3517.87,7253.64 L 3949.87,7004.23 L 3949.87,7027.32 L 3527.87,7270.96 Z " />
</svg>
