<?xml version="1.0" standalone="no" ?>
<!DOCTYPE svg PUBLIC "-//W3C//DTD SVG 1.1//EN" "http://www.w3.org/Graphics/SVG/1.1/DTD/svg11.dtd">
<svg width="229px" height="33px" viewBox="0 0 229 33" xmlns="http://www.w3.org/2000/svg" xmlns:xlink="http://www.w3.org/1999/xlink" version="1.1" >
<text x="0" y="0" stroke="transparent" fill="#000000" transform="matrix(0.0666667 0 0 0.0666667 3.06249 29.4849)" style="font:normal normal normal 200px 'Arial'" >
HO</text>
<path stroke="transparent" fill="#000000" transform="matrix(0.0666667 0 0 0.0666667 -245.433 -463.433)" d="M 4989.1,7304.23 L 4989.1,7327.32 L 4469.49,7027.32 L 4469.49,7004.23 L 4989.1,7304.23 Z " />
<path stroke="transparent" fill="#000000" transform="matrix(0.0666667 0 0 0.0666667 -245.433 -463.433)" d="M 5508.72,7004.23 L 5508.72,7027.32 L 4989.1,7327.32 L 4989.1,7304.23 L 5508.72,7004.23 Z " />
<path stroke="transparent" fill="#000000" transform="matrix(0.0666667 0 0 0.0666667 -245.433 -463.433)" d="M 6028.33,7304.23 L 6028.33,7327.32 L 5508.72,7027.32 L 5508.72,7004.23 L 6028.33,7304.23 Z " />
<path stroke="transparent" fill="#000000" transform="matrix(0.0666667 0 0 0.0666667 -245.433 -463.433)" d="M 6547.95,7004.23 L 6547.95,7027.32 L 6028.33,7327.32 L 6028.33,7304.23 L 6547.95,7004.23 Z " />
<path stroke="transparent" fill="#000000" transform="matrix(0.0666667 0 0 0.0666667 -245.433 -463.433)" d="M 7072.56,7307.11 L 7062.56,7324.43 L 6547.95,7027.32 L 6547.95,7004.23 L 7072.56,7307.11 Z " />
<path stroke="transparent" fill="#000000" transform="matrix(0.0666667 0 0 0.0666667 -245.433 -463.433)" d="M 4047.48,7270.96 L 4037.48,7253.64 L 4469.49,7004.23 L 4469.49,7027.32 L 4047.48,7270.96 Z " />
</svg>
