<?xml version="1.0" standalone="no" ?>
<!DOCTYPE svg PUBLIC "-//W3C//DTD SVG 1.1//EN" "http://www.w3.org/Graphics/SVG/1.1/DTD/svg11.dtd">
<svg width="319px" height="113px" viewBox="0 0 319 113" xmlns="http://www.w3.org/2000/svg" xmlns:xlink="http://www.w3.org/1999/xlink" version="1.1" >
<text x="0" y="0" stroke="transparent" fill="#000000" transform="matrix(0.0666667 0 0 0.0666667 240.969 14.8055)" style="font:normal normal normal 200px 'Arial'" >
O</text>
<text x="0" y="0" stroke="transparent" fill="#000000" transform="matrix(0.0666667 0 0 0.0666667 276.01 74.8055)" style="font:normal normal normal 200px 'Arial'" >
N</text>
<path stroke="transparent" fill="#000000" transform="matrix(0.0666667 0 0 0.0666667 -200.433 -423.433)" d="M 6179.42,7407.13 L 6179.42,7384.04 L 6699.04,7084.04 L 6699.04,7107.13 L 6179.42,7407.13 Z " />
<path stroke="transparent" fill="#000000" transform="matrix(0.0666667 0 0 0.0666667 -200.433 -423.433)" d="M 5659.81,7107.13 L 5659.81,7084.04 L 6179.42,7384.04 L 6179.42,7407.13 L 5659.81,7107.13 Z " />
<path stroke="transparent" fill="#000000" transform="matrix(0.0666667 0 0 0.0666667 -200.433 -423.433)" d="M 5140.19,7407.13 L 5140.19,7384.04 L 5659.81,7084.04 L 5659.81,7107.13 L 5140.19,7407.13 Z " />
<path stroke="transparent" fill="#000000" transform="matrix(0.0666667 0 0 0.0666667 -200.433 -423.433)" d="M 4620.58,7107.13 L 4620.58,7084.04 L 5140.19,7384.04 L 5140.19,7407.13 L 4620.58,7107.13 Z " />
<path stroke="transparent" fill="#000000" transform="matrix(0.0666667 0 0 0.0666667 -200.433 -423.433)" d="M 4100.96,7407.13 L 4100.96,7384.04 L 4620.58,7084.04 L 4620.58,7107.13 L 4100.96,7407.13 Z " />
<path stroke="transparent" fill="#000000" transform="matrix(0.0666667 0 0 0.0666667 -200.433 -423.433)" d="M 3581.35,7107.13 L 3581.35,7084.04 L 4100.96,7384.04 L 4100.96,7407.13 L 3581.35,7107.13 Z " />
<path stroke="transparent" fill="#000000" transform="matrix(0.0666667 0 0 0.0666667 -200.433 -423.433)" d="M 3066.73,7404.24 L 3056.73,7386.92 L 3581.35,7084.04 L 3581.35,7107.13 L 3066.73,7404.24 Z " />
<path stroke="transparent" fill="#000000" transform="matrix(0.0666667 0 0 0.0666667 -200.433 -423.433)" d="M 6653.04,6615.42 L 6673.04,6615.42 L 6673.04,7116.37 L 6653.04,7116.37 L 6653.04,6615.42 Z " />
<path stroke="transparent" fill="#000000" transform="matrix(0.0666667 0 0 0.0666667 -200.433 -423.433)" d="M 6725.04,6615.42 L 6745.04,6615.42 L 6745.04,7116.37 L 6725.04,7116.37 L 6725.04,6615.42 Z " />
<path stroke="transparent" fill="#000000" transform="matrix(0.0666667 0 0 0.0666667 -200.433 -423.433)" d="M 7119.8,7326.97 L 7109.8,7344.29 L 6699.04,7107.13 L 6699.04,7084.04 L 7119.8,7326.97 Z " />
<path stroke="transparent" fill="#000000" transform="matrix(0.0666667 0 0 0.0666667 -200.433 -423.433)" d="M 7733.27,7086.92 L 7743.27,7104.24 L 7327.5,7344.29 L 7317.5,7326.97 L 7733.27,7086.92 Z " />
<path stroke="transparent" fill="#000000" transform="matrix(0.0666667 0 0 0.0666667 -200.433 -423.433)" d="M 7228.65,7995.58 L 7208.65,7995.58 L 7208.65,7512.75 L 7228.65,7512.75 L 7228.65,7995.58 Z " />
</svg>
