<?xml version="1.0" standalone="no" ?>
<!DOCTYPE svg PUBLIC "-//W3C//DTD SVG 1.1//EN" "http://www.w3.org/Graphics/SVG/1.1/DTD/svg11.dtd">
<svg width="347px" height="37px" viewBox="0 0 347 37" xmlns="http://www.w3.org/2000/svg" xmlns:xlink="http://www.w3.org/1999/xlink" version="1.1" >
<text x="0" y="0" stroke="transparent" fill="#000000" transform="matrix(0.0666667 0 0 0.0666667 2.85318 34.1389)" style="font:normal normal normal 200px 'Arial'" >
HO</text>
<text x="0" y="0" stroke="transparent" fill="#000000" transform="matrix(0.0666667 0 0 0.0666667 116.405 14.1389)" style="font:normal normal normal 200px 'Arial'" >
O</text>
<text x="0" y="0" stroke="transparent" fill="#000000" transform="matrix(0.0666667 0 0 0.0666667 220.328 34.1389)" style="font:normal normal normal 200px 'Arial'" >
O</text>
<text x="0" y="0" stroke="transparent" fill="#000000" transform="matrix(0.0666667 0 0 0.0666667 324.251 14.1389)" style="font:normal normal normal 200px 'Arial'" >
OH</text>
<path stroke="transparent" fill="#000000" transform="matrix(0.0666667 0 0 0.0666667 -186.433 -461.433)" d="M 4100.96,7344.04 L 4100.96,7367.13 L 3581.35,7067.13 L 3581.35,7044.04 L 4100.96,7344.04 Z " />
<path stroke="transparent" fill="#000000" transform="matrix(0.0666667 0 0 0.0666667 -186.433 -461.433)" d="M 3159.34,7310.77 L 3149.34,7293.45 L 3581.35,7044.04 L 3581.35,7067.13 L 3159.34,7310.77 Z " />
<path stroke="transparent" fill="#000000" transform="matrix(0.0666667 0 0 0.0666667 -186.433 -461.433)" d="M 4515.97,7104.43 L 4525.97,7121.75 L 4100.96,7367.13 L 4100.96,7344.04 L 4515.97,7104.43 Z " />
<path stroke="transparent" fill="#000000" transform="matrix(0.0666667 0 0 0.0666667 -186.433 -461.433)" d="M 5659.81,7044.04 L 5659.81,7067.13 L 5140.19,7367.13 L 5140.19,7344.04 L 5659.81,7044.04 Z " />
<path stroke="transparent" fill="#000000" transform="matrix(0.0666667 0 0 0.0666667 -186.433 -461.433)" d="M 6091.8,7293.45 L 6081.8,7310.77 L 5659.81,7067.13 L 5659.81,7044.04 L 6091.8,7293.45 Z " />
<path stroke="transparent" fill="#000000" transform="matrix(0.0666667 0 0 0.0666667 -186.433 -461.433)" d="M 5140.19,7344.04 L 5140.19,7367.13 L 4715.61,7122 L 4725.61,7104.68 L 5140.19,7344.04 Z " />
<path stroke="transparent" fill="#000000" transform="matrix(0.0666667 0 0 0.0666667 -186.433 -461.433)" d="M 7218.65,7344.04 L 7218.65,7367.13 L 6699.04,7067.13 L 6699.04,7044.04 L 7218.65,7344.04 Z " />
<path stroke="transparent" fill="#000000" transform="matrix(0.0666667 0 0 0.0666667 -186.433 -461.433)" d="M 7633.66,7104.43 L 7643.66,7121.75 L 7218.65,7367.13 L 7218.65,7344.04 L 7633.66,7104.43 Z " />
<path stroke="transparent" fill="#000000" transform="matrix(0.0666667 0 0 0.0666667 -186.433 -461.433)" d="M 6699.04,7044.04 L 6699.04,7067.13 L 6277.04,7310.77 L 6267.04,7293.45 L 6699.04,7044.04 Z " />
</svg>
