<?xml version="1.0" standalone="no" ?>
<!DOCTYPE svg PUBLIC "-//W3C//DTD SVG 1.1//EN" "http://www.w3.org/Graphics/SVG/1.1/DTD/svg11.dtd">
<svg width="353px" height="77px" viewBox="0 0 353 77" xmlns="http://www.w3.org/2000/svg" xmlns:xlink="http://www.w3.org/1999/xlink" version="1.1" >
<text x="0" y="0" stroke="transparent" fill="#000000" transform="matrix(0.0666667 0 0 0.0666667 32.8026 14.1389)" style="font:normal normal normal 200px 'Arial'" >
O</text>
<text x="0" y="0" stroke="transparent" fill="#000000" transform="matrix(0.0666667 0 0 0.0666667 67.4436 74.1389)" style="font:normal normal normal 200px 'Arial'" >
O</text>
<path stroke="transparent" fill="#000000" transform="matrix(0.0666667 0 0 0.0666667 -183.433 -441.433)" d="M 2806.92,7664.24 L 2796.92,7646.92 L 3321.54,7344.04 L 3321.54,7367.13 L 2806.92,7664.24 Z " />
<path stroke="transparent" fill="#000000" transform="matrix(0.0666667 0 0 0.0666667 -183.433 -441.433)" d="M 3275.54,6875.42 L 3295.54,6875.42 L 3295.54,7376.37 L 3275.54,7376.37 L 3275.54,6875.42 Z " />
<path stroke="transparent" fill="#000000" transform="matrix(0.0666667 0 0 0.0666667 -183.433 -441.433)" d="M 3347.54,6875.42 L 3367.54,6875.42 L 3367.54,7376.37 L 3347.54,7376.37 L 3347.54,6875.42 Z " />
<path stroke="transparent" fill="#000000" transform="matrix(0.0666667 0 0 0.0666667 -183.433 -441.433)" d="M 3753.54,7593.45 L 3743.54,7610.77 L 3321.54,7367.13 L 3321.54,7344.04 L 3753.54,7593.45 Z " />
<path stroke="transparent" fill="#000000" transform="matrix(0.0666667 0 0 0.0666667 -183.433 -441.433)" d="M 4880.38,7644.04 L 4880.38,7667.13 L 4360.77,7367.13 L 4360.77,7344.04 L 4880.38,7644.04 Z " />
<path stroke="transparent" fill="#000000" transform="matrix(0.0666667 0 0 0.0666667 -183.433 -441.433)" d="M 5400,7344.04 L 5400,7367.13 L 4880.38,7667.13 L 4880.38,7644.04 L 5400,7344.04 Z " />
<path stroke="transparent" fill="#000000" transform="matrix(0.0666667 0 0 0.0666667 -183.433 -441.433)" d="M 5919.62,7644.04 L 5919.62,7667.13 L 5400,7367.13 L 5400,7344.04 L 5919.62,7644.04 Z " />
<path stroke="transparent" fill="#000000" transform="matrix(0.0666667 0 0 0.0666667 -183.433 -441.433)" d="M 6439.23,7344.04 L 6439.23,7367.13 L 5919.62,7667.13 L 5919.62,7644.04 L 6439.23,7344.04 Z " />
<path stroke="transparent" fill="#000000" transform="matrix(0.0666667 0 0 0.0666667 -183.433 -441.433)" d="M 6958.85,7644.04 L 6958.85,7667.13 L 6439.23,7367.13 L 6439.23,7344.04 L 6958.85,7644.04 Z " />
<path stroke="transparent" fill="#000000" transform="matrix(0.0666667 0 0 0.0666667 -183.433 -441.433)" d="M 7478.46,7344.04 L 7478.46,7367.13 L 6958.85,7667.13 L 6958.85,7644.04 L 7478.46,7344.04 Z " />
<path stroke="transparent" fill="#000000" transform="matrix(0.0666667 0 0 0.0666667 -183.433 -441.433)" d="M 8003.08,7646.92 L 7993.08,7664.24 L 7478.46,7367.13 L 7478.46,7344.04 L 8003.08,7646.92 Z " />
<path stroke="transparent" fill="#000000" transform="matrix(0.0666667 0 0 0.0666667 -183.433 -441.433)" d="M 4360.77,7344.04 L 4360.77,7367.13 L 3938.77,7610.77 L 3928.77,7593.45 L 4360.77,7344.04 Z " />
</svg>
