<?xml version="1.0" standalone="no" ?>
<!DOCTYPE svg PUBLIC "-//W3C//DTD SVG 1.1//EN" "http://www.w3.org/Graphics/SVG/1.1/DTD/svg11.dtd">
<svg width="671px" height="77px" viewBox="0 0 671 77" xmlns="http://www.w3.org/2000/svg" xmlns:xlink="http://www.w3.org/1999/xlink" version="1.1" >
<text x="0" y="0" stroke="transparent" fill="#000000" transform="matrix(0.0666667 0 0 0.0666667 592.854 14.1389)" style="font:normal normal normal 200px 'Arial'" >
O</text>
<text x="0" y="0" stroke="transparent" fill="#000000" transform="matrix(0.0666667 0 0 0.0666667 627.495 74.1389)" style="font:normal normal normal 200px 'Arial'" >
O</text>
<path stroke="transparent" fill="#000000" transform="matrix(0.0666667 0 0 0.0666667 -24.4333 -441.433)" d="M 8817.69,7667.13 L 8817.69,7644.04 L 9337.31,7344.04 L 9337.31,7367.13 L 8817.69,7667.13 Z " />
<path stroke="transparent" fill="#000000" transform="matrix(0.0666667 0 0 0.0666667 -24.4333 -441.433)" d="M 8298.08,7367.13 L 8298.08,7344.04 L 8817.69,7644.04 L 8817.69,7667.13 L 8298.08,7367.13 Z " />
<path stroke="transparent" fill="#000000" transform="matrix(0.0666667 0 0 0.0666667 -24.4333 -441.433)" d="M 7778.46,7667.13 L 7778.46,7644.04 L 8298.08,7344.04 L 8298.08,7367.13 L 7778.46,7667.13 Z " />
<path stroke="transparent" fill="#000000" transform="matrix(0.0666667 0 0 0.0666667 -24.4333 -441.433)" d="M 7258.85,7367.13 L 7258.85,7344.04 L 7778.46,7644.04 L 7778.46,7667.13 L 7258.85,7367.13 Z " />
<path stroke="transparent" fill="#000000" transform="matrix(0.0666667 0 0 0.0666667 -24.4333 -441.433)" d="M 6739.23,7667.13 L 6739.23,7644.04 L 7258.85,7344.04 L 7258.85,7367.13 L 6739.23,7667.13 Z " />
<path stroke="transparent" fill="#000000" transform="matrix(0.0666667 0 0 0.0666667 -24.4333 -441.433)" d="M 6219.62,7367.13 L 6219.62,7344.04 L 6739.23,7644.04 L 6739.23,7667.13 L 6219.62,7367.13 Z " />
<path stroke="transparent" fill="#000000" transform="matrix(0.0666667 0 0 0.0666667 -24.4333 -441.433)" d="M 5700,7667.13 L 5700,7644.04 L 6219.62,7344.04 L 6219.62,7367.13 L 5700,7667.13 Z " />
<path stroke="transparent" fill="#000000" transform="matrix(0.0666667 0 0 0.0666667 -24.4333 -441.433)" d="M 5177.71,7365.58 L 5183.06,7345.58 L 5700,7644.04 L 5700,7667.13 L 5177.71,7365.58 Z " />
<path stroke="transparent" fill="#000000" transform="matrix(0.0666667 0 0 0.0666667 -24.4333 -441.433)" d="M 4583.06,7365.58 L 4577.71,7345.58 L 5183.06,7345.58 L 5177.71,7365.58 L 4583.06,7365.58 Z " />
<path stroke="transparent" fill="#000000" transform="matrix(0.0666667 0 0 0.0666667 -24.4333 -441.433)" d="M 4599.68,7437.58 L 4599.68,7417.58 L 5161.09,7417.58 L 5161.09,7437.58 L 4599.68,7437.58 Z " />
<path stroke="transparent" fill="#000000" transform="matrix(0.0666667 0 0 0.0666667 -24.4333 -441.433)" d="M 4060.77,7667.13 L 4060.77,7644.04 L 4577.71,7345.58 L 4583.06,7365.58 L 4060.77,7667.13 Z " />
<path stroke="transparent" fill="#000000" transform="matrix(0.0666667 0 0 0.0666667 -24.4333 -441.433)" d="M 3541.15,7367.13 L 3541.15,7344.04 L 4060.77,7644.04 L 4060.77,7667.13 L 3541.15,7367.13 Z " />
<path stroke="transparent" fill="#000000" transform="matrix(0.0666667 0 0 0.0666667 -24.4333 -441.433)" d="M 3021.54,7667.13 L 3021.54,7644.04 L 3541.15,7344.04 L 3541.15,7367.13 L 3021.54,7667.13 Z " />
<path stroke="transparent" fill="#000000" transform="matrix(0.0666667 0 0 0.0666667 -24.4333 -441.433)" d="M 2501.92,7367.13 L 2501.92,7344.04 L 3021.54,7644.04 L 3021.54,7667.13 L 2501.92,7367.13 Z " />
<path stroke="transparent" fill="#000000" transform="matrix(0.0666667 0 0 0.0666667 -24.4333 -441.433)" d="M 1982.31,7667.13 L 1982.31,7644.04 L 2501.92,7344.04 L 2501.92,7367.13 L 1982.31,7667.13 Z " />
<path stroke="transparent" fill="#000000" transform="matrix(0.0666667 0 0 0.0666667 -24.4333 -441.433)" d="M 1462.69,7367.13 L 1462.69,7344.04 L 1982.31,7644.04 L 1982.31,7667.13 L 1462.69,7367.13 Z " />
<path stroke="transparent" fill="#000000" transform="matrix(0.0666667 0 0 0.0666667 -24.4333 -441.433)" d="M 943.078,7667.13 L 943.078,7644.04 L 1462.69,7344.04 L 1462.69,7367.13 L 943.078,7667.13 Z " />
<path stroke="transparent" fill="#000000" transform="matrix(0.0666667 0 0 0.0666667 -24.4333 -441.433)" d="M 418.463,7364.24 L 428.463,7346.92 L 943.078,7644.04 L 943.078,7667.13 L 418.463,7364.24 Z " />
<path stroke="transparent" fill="#000000" transform="matrix(0.0666667 0 0 0.0666667 -24.4333 -441.433)" d="M 9291.31,6875.42 L 9311.31,6875.42 L 9311.31,7376.37 L 9291.31,7376.37 L 9291.31,6875.42 Z " />
<path stroke="transparent" fill="#000000" transform="matrix(0.0666667 0 0 0.0666667 -24.4333 -441.433)" d="M 9363.31,6875.42 L 9383.31,6875.42 L 9383.31,7376.37 L 9363.31,7376.37 L 9363.31,6875.42 Z " />
<path stroke="transparent" fill="#000000" transform="matrix(0.0666667 0 0 0.0666667 -24.4333 -441.433)" d="M 9769.3,7593.45 L 9759.3,7610.77 L 9337.31,7367.13 L 9337.31,7344.04 L 9769.3,7593.45 Z " />
<path stroke="transparent" fill="#000000" transform="matrix(0.0666667 0 0 0.0666667 -24.4333 -441.433)" d="M 10371.5,7346.92 L 10381.5,7364.24 L 9954.54,7610.77 L 9944.54,7593.45 L 10371.5,7346.92 Z " />
</svg>
