<?xml version="1.0" standalone="no" ?>
<!DOCTYPE svg PUBLIC "-//W3C//DTD SVG 1.1//EN" "http://www.w3.org/Graphics/SVG/1.1/DTD/svg11.dtd">
<svg width="163px" height="97px" viewBox="0 0 163 97" xmlns="http://www.w3.org/2000/svg" xmlns:xlink="http://www.w3.org/1999/xlink" version="1.1" >
<text x="0" y="0" stroke="transparent" fill="#000000" transform="matrix(0.0666667 0 0 0.0666667 2.82681 94.1389)" style="font:normal normal normal 200px 'Arial'" >
Cl</text>
<text x="0" y="0" stroke="transparent" fill="#000000" transform="matrix(0.0666667 0 0 0.0666667 147.715 94.1389)" style="font:normal normal normal 200px 'Arial'" >
Cl</text>
<text x="0" y="0" stroke="transparent" fill="#000000" transform="matrix(0.0666667 0 0 0.0666667 147.715 14.1389)" style="font:normal normal normal 200px 'Arial'" >
Cl</text>
<path stroke="transparent" fill="#000000" transform="matrix(0.0666667 0 0 0.0666667 -278.433 -431.433)" d="M 5954.62,7499.81 L 5944.62,7505.58 L 5934.62,7499.81 L 5934.62,6911.36 L 5944.62,6905.58 L 5954.62,6911.36 L 5954.62,7499.81 Z " />
<path stroke="transparent" fill="#000000" transform="matrix(0.0666667 0 0 0.0666667 -278.433 -431.433)" d="M 5425,7817.13 L 5425,7794.04 L 5934.62,7499.81 L 5944.62,7505.58 L 5944.62,7517.13 L 5425,7817.13 Z " />
<path stroke="transparent" fill="#000000" transform="matrix(0.0666667 0 0 0.0666667 -278.433 -431.433)" d="M 5430,7731.11 L 5420,7713.78 L 5867.62,7455.35 L 5877.62,7472.67 L 5430,7731.11 Z " />
<path stroke="transparent" fill="#000000" transform="matrix(0.0666667 0 0 0.0666667 -278.433 -431.433)" d="M 4905.38,7517.13 L 4905.38,7505.58 L 4915.38,7499.81 L 5425,7794.04 L 5425,7817.13 L 4905.38,7517.13 Z " />
<path stroke="transparent" fill="#000000" transform="matrix(0.0666667 0 0 0.0666667 -278.433 -431.433)" d="M 4895.38,6899.81 L 4915.38,6911.36 L 4915.38,7499.81 L 4905.38,7505.58 L 4895.38,7499.81 L 4895.38,6899.81 Z " />
<path stroke="transparent" fill="#000000" transform="matrix(0.0666667 0 0 0.0666667 -278.433 -431.433)" d="M 4967.38,6947.15 L 4987.38,6947.15 L 4987.38,7464.01 L 4967.38,7464.01 L 4967.38,6947.15 Z " />
<path stroke="transparent" fill="#000000" transform="matrix(0.0666667 0 0 0.0666667 -278.433 -431.433)" d="M 5425,6594.04 L 5425,6617.13 L 4915.38,6911.36 L 4895.38,6899.81 L 5425,6594.04 Z " />
<path stroke="transparent" fill="#000000" transform="matrix(0.0666667 0 0 0.0666667 -278.433 -431.433)" d="M 5425,6617.13 L 5425,6594.04 L 5944.62,6894.04 L 5944.62,6905.58 L 5934.62,6911.36 L 5425,6617.13 Z " />
<path stroke="transparent" fill="#000000" transform="matrix(0.0666667 0 0 0.0666667 -278.433 -431.433)" d="M 5420,6697.38 L 5430,6680.06 L 5877.62,6938.49 L 5867.62,6955.81 L 5420,6697.38 Z " />
<path stroke="transparent" fill="#000000" transform="matrix(0.0666667 0 0 0.0666667 -278.433 -431.433)" d="M 4457.25,7775.86 L 4447.25,7758.54 L 4895.38,7499.81 L 4905.38,7505.58 L 4905.38,7517.13 L 4457.25,7775.86 Z " />
<path stroke="transparent" fill="#000000" transform="matrix(0.0666667 0 0 0.0666667 -278.433 -431.433)" d="M 6380.91,7745.93 L 6370.91,7763.25 L 5944.62,7517.13 L 5944.62,7505.58 L 5954.62,7499.81 L 6380.91,7745.93 Z " />
<path stroke="transparent" fill="#000000" transform="matrix(0.0666667 0 0 0.0666667 -278.433 -431.433)" d="M 6363.66,6652.1 L 6373.66,6669.42 L 5954.62,6911.36 L 5944.62,6905.58 L 5944.62,6894.04 L 6363.66,6652.1 Z " />
</svg>
