<?xml version="1.0" standalone="no" ?>
<!DOCTYPE svg PUBLIC "-//W3C//DTD SVG 1.1//EN" "http://www.w3.org/Graphics/SVG/1.1/DTD/svg11.dtd">
<svg width="115px" height="69px" viewBox="0 0 115 69" xmlns="http://www.w3.org/2000/svg" xmlns:xlink="http://www.w3.org/1999/xlink" version="1.1" >
<text x="0" y="0" stroke="transparent" fill="#000000" transform="matrix(0.0666667 0 0 0.0666667 101.54 20.2192)" style="font:normal normal normal 200px 'Arial'" >
O</text>
<path stroke="transparent" fill="#000000" transform="matrix(0.0666667 0 0 0.0666667 -302.433 -445.433)" d="M 5388.83,7672.83 L 5374.3,7652.83 L 5555.22,7096.02 L 5578.73,7088.38 L 5388.83,7672.83 Z " />
<path stroke="transparent" fill="#000000" transform="matrix(0.0666667 0 0 0.0666667 -302.433 -445.433)" d="M 4774.3,7672.83 L 4788.83,7652.83 L 5374.3,7652.83 L 5388.83,7672.83 L 4774.3,7672.83 Z " />
<path stroke="transparent" fill="#000000" transform="matrix(0.0666667 0 0 0.0666667 -302.433 -445.433)" d="M 4584.39,7088.38 L 4607.91,7096.02 L 4788.83,7652.83 L 4774.3,7672.83 L 4584.39,7088.38 Z " />
<path stroke="transparent" fill="#000000" transform="matrix(0.0666667 0 0 0.0666667 -302.433 -445.433)" d="M 5081.56,6727.17 L 5081.56,6751.89 L 4607.91,7096.02 L 4584.39,7088.38 L 5081.56,6727.17 Z " />
<path stroke="transparent" fill="#000000" transform="matrix(0.0666667 0 0 0.0666667 -302.433 -445.433)" d="M 5081.56,6751.89 L 5081.56,6727.17 L 5578.73,7088.38 L 5555.22,7096.02 L 5081.56,6751.89 Z " />
<path stroke="transparent" fill="#000000" transform="matrix(0.0666667 0 0 0.0666667 -302.433 -445.433)" d="M 6016.91,6897.64 L 6023.09,6916.66 L 5534.06,7075.55 L 5527.88,7056.53 L 6016.91,6897.64 Z " />
<path stroke="transparent" fill="#000000" transform="matrix(0.0666667 0 0 0.0666667 -302.433 -445.433)" d="M 6039.15,6966.12 L 6045.33,6985.14 L 5556.31,7144.03 L 5550.13,7125.01 L 6039.15,6966.12 Z " />
</svg>
