<?xml version="1.0" standalone="no" ?>
<!DOCTYPE svg PUBLIC "-//W3C//DTD SVG 1.1//EN" "http://www.w3.org/Graphics/SVG/1.1/DTD/svg11.dtd">
<svg width="145px" height="87px" viewBox="0 0 145 87" xmlns="http://www.w3.org/2000/svg" xmlns:xlink="http://www.w3.org/1999/xlink" version="1.1" >
<text x="0" y="0" stroke="transparent" fill="#000000" transform="matrix(0.0666667 0 0 0.0666667 67.7667 68.6704)" style="font:normal normal normal 200px 'Arial'" >
N</text>
<path stroke="transparent" fill="#000000" transform="matrix(0.0666667 0 0 0.0666667 -287.433 -436.433)" d="M 6434.23,7489.9 L 6444.23,7507.22 L 5919.62,7810.1 L 5919.62,7787.01 L 6434.23,7489.9 Z " />
<path stroke="transparent" fill="#000000" transform="matrix(0.0666667 0 0 0.0666667 -287.433 -436.433)" d="M 5919.62,7787.01 L 5919.62,7810.1 L 5505.06,7570.76 L 5515.06,7553.44 L 5919.62,7787.01 Z " />
<path stroke="transparent" fill="#000000" transform="matrix(0.0666667 0 0 0.0666667 -287.433 -436.433)" d="M 4355.77,7507.22 L 4365.77,7489.9 L 4880.38,7787.01 L 4880.38,7810.1 L 4355.77,7507.22 Z " />
<path stroke="transparent" fill="#000000" transform="matrix(0.0666667 0 0 0.0666667 -287.433 -436.433)" d="M 4880.38,7810.1 L 4880.38,7787.01 L 5284.94,7553.44 L 5294.94,7570.76 L 4880.38,7810.1 Z " />
<path stroke="transparent" fill="#000000" transform="matrix(0.0666667 0 0 0.0666667 -287.433 -436.433)" d="M 4875.38,6607.22 L 4885.38,6589.9 L 5410,6892.78 L 5390,6904.33 L 4875.38,6607.22 Z " />
<path stroke="transparent" fill="#000000" transform="matrix(0.0666667 0 0 0.0666667 -287.433 -436.433)" d="M 5390,6904.33 L 5410,6892.78 L 5410,7395.72 L 5390,7395.72 L 5390,6904.33 Z " />
</svg>
