<?xml version="1.0" standalone="no" ?>
<!DOCTYPE svg PUBLIC "-//W3C//DTD SVG 1.1//EN" "http://www.w3.org/Graphics/SVG/1.1/DTD/svg11.dtd">
<svg width="160px" height="71px" viewBox="0 0 160 71" xmlns="http://www.w3.org/2000/svg" xmlns:xlink="http://www.w3.org/1999/xlink" version="1.1" >
<text x="0" y="0" stroke="transparent" fill="#000000" transform="matrix(0.0666667 0 0 0.0666667 2.7035 68.1)" style="font:normal normal normal 200px 'Arial'" >
HO</text>
<path stroke="transparent" fill="#000000" transform="matrix(0.0666667 0 0 0.0666667 -280.433 -444.433)" d="M 5508.72,7598.45 L 5508.72,7621.55 L 4989.1,7321.55 L 4989.1,7298.45 L 5508.72,7598.45 Z " />
<path stroke="transparent" fill="#000000" transform="matrix(0.0666667 0 0 0.0666667 -280.433 -444.433)" d="M 6018.33,7304.23 L 6028.33,7310 L 6028.33,7321.55 L 5508.72,7621.55 L 5508.72,7598.45 L 6018.33,7304.23 Z " />
<path stroke="transparent" fill="#000000" transform="matrix(0.0666667 0 0 0.0666667 -280.433 -444.433)" d="M 6018.33,6710 L 6038.33,6710 L 6038.33,7304.23 L 6028.33,7310 L 6018.33,7304.23 L 6018.33,6710 Z " />
<path stroke="transparent" fill="#000000" transform="matrix(0.0666667 0 0 0.0666667 -280.433 -444.433)" d="M 6028.33,7321.55 L 6028.33,7310 L 6038.33,7304.23 L 6552.95,7601.34 L 6542.95,7618.66 L 6028.33,7321.55 Z " />
<path stroke="transparent" fill="#000000" transform="matrix(0.0666667 0 0 0.0666667 -280.433 -444.433)" d="M 4567.1,7565.19 L 4557.1,7547.87 L 4989.1,7298.45 L 4989.1,7321.55 L 4567.1,7565.19 Z " />
</svg>
