<?xml version="1.0" standalone="no" ?>
<!DOCTYPE svg PUBLIC "-//W3C//DTD SVG 1.1//EN" "http://www.w3.org/Graphics/SVG/1.1/DTD/svg11.dtd">
<svg width="319px" height="117px" viewBox="0 0 319 117" xmlns="http://www.w3.org/2000/svg" xmlns:xlink="http://www.w3.org/1999/xlink" version="1.1" >
<text x="0" y="0" stroke="transparent" fill="#000000" transform="matrix(0.0666667 0 0 0.0666667 206.328 114.139)" style="font:normal normal normal 200px 'Arial'" >
O</text>
<text x="0" y="0" stroke="transparent" fill="#000000" transform="matrix(0.0666667 0 0 0.0666667 240.969 54.1389)" style="font:normal normal normal 200px 'Arial'" >
O</text>
<text x="0" y="0" stroke="transparent" fill="#000000" transform="matrix(0.0666667 0 0 0.0666667 102.405 14.1389)" style="font:normal normal normal 200px 'Arial'" >
O</text>
<text x="0" y="0" stroke="transparent" fill="#000000" transform="matrix(0.0666667 0 0 0.0666667 67.7641 74.1389)" style="font:normal normal normal 200px 'Arial'" >
O</text>
<path stroke="transparent" fill="#000000" transform="matrix(0.0666667 0 0 0.0666667 -200.433 -421.433)" d="M 5659.81,7067.13 L 5659.81,7044.04 L 6179.42,7344.04 L 6179.42,7367.13 L 5659.81,7067.13 Z " />
<path stroke="transparent" fill="#000000" transform="matrix(0.0666667 0 0 0.0666667 -200.433 -421.433)" d="M 5140.19,7367.13 L 5140.19,7344.04 L 5659.81,7044.04 L 5659.81,7067.13 L 5140.19,7367.13 Z " />
<path stroke="transparent" fill="#000000" transform="matrix(0.0666667 0 0 0.0666667 -200.433 -421.433)" d="M 4620.58,7067.13 L 4620.58,7044.04 L 5140.19,7344.04 L 5140.19,7367.13 L 4620.58,7067.13 Z " />
<path stroke="transparent" fill="#000000" transform="matrix(0.0666667 0 0 0.0666667 -200.433 -421.433)" d="M 6225.42,7850.42 L 6205.42,7850.42 L 6205.42,7334.8 L 6225.42,7334.8 L 6225.42,7850.42 Z " />
<path stroke="transparent" fill="#000000" transform="matrix(0.0666667 0 0 0.0666667 -200.433 -421.433)" d="M 6153.42,7850.42 L 6133.42,7850.42 L 6133.42,7334.8 L 6153.42,7334.8 L 6153.42,7850.42 Z " />
<path stroke="transparent" fill="#000000" transform="matrix(0.0666667 0 0 0.0666667 -200.433 -421.433)" d="M 6594.43,7104.43 L 6604.43,7121.75 L 6179.42,7367.13 L 6179.42,7344.04 L 6594.43,7104.43 Z " />
<path stroke="transparent" fill="#000000" transform="matrix(0.0666667 0 0 0.0666667 -200.433 -421.433)" d="M 4574.58,6575.42 L 4594.58,6575.42 L 4594.58,7076.37 L 4574.58,7076.37 L 4574.58,6575.42 Z " />
<path stroke="transparent" fill="#000000" transform="matrix(0.0666667 0 0 0.0666667 -200.433 -421.433)" d="M 4646.58,6575.42 L 4666.58,6575.42 L 4666.58,7076.37 L 4646.58,7076.37 L 4646.58,6575.42 Z " />
<path stroke="transparent" fill="#000000" transform="matrix(0.0666667 0 0 0.0666667 -200.433 -421.433)" d="M 4198.58,7310.77 L 4188.58,7293.45 L 4620.58,7044.04 L 4620.58,7067.13 L 4198.58,7310.77 Z " />
<path stroke="transparent" fill="#000000" transform="matrix(0.0666667 0 0 0.0666667 -200.433 -421.433)" d="M 7733.27,7046.92 L 7743.27,7064.24 L 7218.65,7367.13 L 7218.65,7344.04 L 7733.27,7046.92 Z " />
<path stroke="transparent" fill="#000000" transform="matrix(0.0666667 0 0 0.0666667 -200.433 -421.433)" d="M 7218.65,7344.04 L 7218.65,7367.13 L 6794.07,7122 L 6804.07,7104.68 L 7218.65,7344.04 Z " />
<path stroke="transparent" fill="#000000" transform="matrix(0.0666667 0 0 0.0666667 -200.433 -421.433)" d="M 3066.73,7364.24 L 3056.73,7346.92 L 3581.35,7044.04 L 3581.35,7067.13 L 3066.73,7364.24 Z " />
<path stroke="transparent" fill="#000000" transform="matrix(0.0666667 0 0 0.0666667 -200.433 -421.433)" d="M 3581.35,7067.13 L 3581.35,7044.04 L 4013.34,7293.45 L 4003.34,7310.77 L 3581.35,7067.13 Z " />
</svg>
