<?xml version="1.0" standalone="no" ?>
<!DOCTYPE svg PUBLIC "-//W3C//DTD SVG 1.1//EN" "http://www.w3.org/Graphics/SVG/1.1/DTD/svg11.dtd">
<svg width="117px" height="81px" viewBox="0 0 117 81" xmlns="http://www.w3.org/2000/svg" xmlns:xlink="http://www.w3.org/1999/xlink" version="1.1" >
<text x="0" y="0" stroke="transparent" fill="#000000" transform="matrix(0.0666667 0 0 0.0666667 64.7229 44.314)" style="font:normal normal normal 200px 'Arial'" >
S</text>
<text x="0" y="0" stroke="transparent" fill="#000000" transform="matrix(0.0666667 0 0 0.0666667 103.082 52.6304)" style="font:normal normal normal 200px 'Arial'" >
O</text>
<text x="0" y="0" stroke="transparent" fill="#000000" transform="matrix(0.0666667 0 0 0.0666667 90.7215 14.5882)" style="font:normal normal normal 200px 'Arial'" >
O</text>
<path stroke="transparent" fill="#000000" transform="matrix(0.0666667 0 0 0.0666667 -301.433 -439.433)" d="M 6050.55,7235.7 L 6046.39,7255.26 L 5666.2,7174.45 L 5670.36,7154.89 L 6050.55,7235.7 Z " />
<path stroke="transparent" fill="#000000" transform="matrix(0.0666667 0 0 0.0666667 -301.433 -439.433)" d="M 6035.58,7306.12 L 6031.42,7325.69 L 5651.23,7244.88 L 5655.39,7225.31 L 6035.58,7306.12 Z " />
<path stroke="transparent" fill="#000000" transform="matrix(0.0666667 0 0 0.0666667 -301.433 -439.433)" d="M 5846.44,6790.06 L 5861.3,6803.44 L 5609.61,7082.97 L 5594.75,7069.58 L 5846.44,6790.06 Z " />
<path stroke="transparent" fill="#000000" transform="matrix(0.0666667 0 0 0.0666667 -301.433 -439.433)" d="M 5899.94,6838.24 L 5914.81,6851.62 L 5663.12,7131.14 L 5648.26,7117.76 L 5899.94,6838.24 Z " />
<path stroke="transparent" fill="#000000" transform="matrix(0.0666667 0 0 0.0666667 -301.433 -439.433)" d="M 5380.7,7758.84 L 5366.17,7738.84 L 5511.65,7291.1 L 5530.67,7297.28 L 5380.7,7758.84 Z " />
<path stroke="transparent" fill="#000000" transform="matrix(0.0666667 0 0 0.0666667 -301.433 -439.433)" d="M 4766.17,7758.84 L 4780.7,7738.84 L 5366.17,7738.84 L 5380.7,7758.84 L 4766.17,7758.84 Z " />
<path stroke="transparent" fill="#000000" transform="matrix(0.0666667 0 0 0.0666667 -301.433 -439.433)" d="M 4576.27,7174.39 L 4599.78,7182.03 L 4780.7,7738.84 L 4766.17,7758.84 L 4576.27,7174.39 Z " />
<path stroke="transparent" fill="#000000" transform="matrix(0.0666667 0 0 0.0666667 -301.433 -439.433)" d="M 5073.43,6813.18 L 5073.43,6837.9 L 4599.78,7182.03 L 4576.27,7174.39 L 5073.43,6813.18 Z " />
<path stroke="transparent" fill="#000000" transform="matrix(0.0666667 0 0 0.0666667 -301.433 -439.433)" d="M 5073.43,6837.9 L 5073.43,6813.18 L 5480.45,7108.89 L 5468.69,7125.07 L 5073.43,6837.9 Z " />
</svg>
