<?xml version="1.0" standalone="no" ?>
<!DOCTYPE svg PUBLIC "-//W3C//DTD SVG 1.1//EN" "http://www.w3.org/Graphics/SVG/1.1/DTD/svg11.dtd">
<svg width="111px" height="113px" viewBox="0 0 111 113" xmlns="http://www.w3.org/2000/svg" xmlns:xlink="http://www.w3.org/1999/xlink" version="1.1" >
<text x="0" y="0" stroke="transparent" fill="#000000" transform="matrix(0.0666667 0 0 0.0666667 33.0462 14.8055)" style="font:normal normal normal 200px 'Arial'" >
O</text>
<text x="0" y="0" stroke="transparent" fill="#000000" transform="matrix(0.0666667 0 0 0.0666667 68.0872 74.8055)" style="font:normal normal normal 200px 'Arial'" >
N</text>
<path stroke="transparent" fill="#000000" transform="matrix(0.0666667 0 0 0.0666667 -304.433 -423.433)" d="M 4625.58,7404.24 L 4615.58,7386.92 L 5140.19,7084.04 L 5140.19,7107.13 L 4625.58,7404.24 Z " />
<path stroke="transparent" fill="#000000" transform="matrix(0.0666667 0 0 0.0666667 -304.433 -423.433)" d="M 5094.19,6615.42 L 5114.19,6615.42 L 5114.19,7116.37 L 5094.19,7116.37 L 5094.19,6615.42 Z " />
<path stroke="transparent" fill="#000000" transform="matrix(0.0666667 0 0 0.0666667 -304.433 -423.433)" d="M 5166.19,6615.42 L 5186.19,6615.42 L 5186.19,7116.37 L 5166.19,7116.37 L 5166.19,6615.42 Z " />
<path stroke="transparent" fill="#000000" transform="matrix(0.0666667 0 0 0.0666667 -304.433 -423.433)" d="M 5560.96,7326.97 L 5550.96,7344.29 L 5140.19,7107.13 L 5140.19,7084.04 L 5560.96,7326.97 Z " />
<path stroke="transparent" fill="#000000" transform="matrix(0.0666667 0 0 0.0666667 -304.433 -423.433)" d="M 6174.42,7086.92 L 6184.42,7104.24 L 5768.66,7344.29 L 5758.66,7326.97 L 6174.42,7086.92 Z " />
<path stroke="transparent" fill="#000000" transform="matrix(0.0666667 0 0 0.0666667 -304.433 -423.433)" d="M 5669.81,7995.58 L 5649.81,7995.58 L 5649.81,7512.75 L 5669.81,7512.75 L 5669.81,7995.58 Z " />
</svg>
