<?xml version="1.0" standalone="no" ?>
<!DOCTYPE svg PUBLIC "-//W3C//DTD SVG 1.1//EN" "http://www.w3.org/Graphics/SVG/1.1/DTD/svg11.dtd">
<svg width="284px" height="33px" viewBox="0 0 284 33" xmlns="http://www.w3.org/2000/svg" xmlns:xlink="http://www.w3.org/1999/xlink" version="1.1" >
<text x="0" y="0" stroke="transparent" fill="#000000" transform="matrix(0.0666667 0 0 0.0666667 136.367 29.4849)" style="font:normal normal normal 200px 'Arial'" >
O</text>
<path stroke="transparent" fill="#000000" transform="matrix(0.0666667 0 0 0.0666667 -218.433 -463.433)" d="M 4360.77,7327.32 L 4360.77,7304.23 L 4880.38,7004.23 L 4880.38,7027.32 L 4360.77,7327.32 Z " />
<path stroke="transparent" fill="#000000" transform="matrix(0.0666667 0 0 0.0666667 -218.433 -463.433)" d="M 3841.15,7027.32 L 3841.15,7004.23 L 4360.77,7304.23 L 4360.77,7327.32 L 3841.15,7027.32 Z " />
<path stroke="transparent" fill="#000000" transform="matrix(0.0666667 0 0 0.0666667 -218.433 -463.433)" d="M 3326.54,7324.43 L 3316.54,7307.11 L 3841.15,7004.23 L 3841.15,7027.32 L 3326.54,7324.43 Z " />
<path stroke="transparent" fill="#000000" transform="matrix(0.0666667 0 0 0.0666667 -218.433 -463.433)" d="M 4880.38,7027.32 L 4880.38,7004.23 L 5312.38,7253.64 L 5302.38,7270.96 L 4880.38,7027.32 Z " />
<path stroke="transparent" fill="#000000" transform="matrix(0.0666667 0 0 0.0666667 -218.433 -463.433)" d="M 6439.23,7304.23 L 6439.23,7327.32 L 5919.62,7027.32 L 5919.62,7004.23 L 6439.23,7304.23 Z " />
<path stroke="transparent" fill="#000000" transform="matrix(0.0666667 0 0 0.0666667 -218.433 -463.433)" d="M 6958.85,7004.23 L 6958.85,7027.32 L 6439.23,7327.32 L 6439.23,7304.23 L 6958.85,7004.23 Z " />
<path stroke="transparent" fill="#000000" transform="matrix(0.0666667 0 0 0.0666667 -218.433 -463.433)" d="M 7483.46,7307.11 L 7473.46,7324.43 L 6958.85,7027.32 L 6958.85,7004.23 L 7483.46,7307.11 Z " />
<path stroke="transparent" fill="#000000" transform="matrix(0.0666667 0 0 0.0666667 -218.433 -463.433)" d="M 5919.62,7004.23 L 5919.62,7027.32 L 5497.62,7270.96 L 5487.62,7253.64 L 5919.62,7004.23 Z " />
</svg>
