<?xml version="1.0" standalone="no" ?>
<!DOCTYPE svg PUBLIC "-//W3C//DTD SVG 1.1//EN" "http://www.w3.org/Graphics/SVG/1.1/DTD/svg11.dtd">
<svg width="215px" height="28px" viewBox="0 0 215 28" xmlns="http://www.w3.org/2000/svg" xmlns:xlink="http://www.w3.org/1999/xlink" version="1.1" >
<path stroke="transparent" fill="#000000" transform="matrix(0.0666667 0 0 0.0666667 -252.433 -466.433)" d="M 4360.77,7038.45 L 4360.77,7061.55 L 3846.15,7358.66 L 3836.15,7341.34 L 4360.77,7038.45 Z " />
<path stroke="transparent" fill="#000000" transform="matrix(0.0666667 0 0 0.0666667 -252.433 -466.433)" d="M 4880.38,7338.45 L 4880.38,7361.55 L 4360.77,7061.55 L 4360.77,7038.45 L 4880.38,7338.45 Z " />
<path stroke="transparent" fill="#000000" transform="matrix(0.0666667 0 0 0.0666667 -252.433 -466.433)" d="M 5400,7038.45 L 5400,7061.55 L 4880.38,7361.55 L 4880.38,7338.45 L 5400,7038.45 Z " />
<path stroke="transparent" fill="#000000" transform="matrix(0.0666667 0 0 0.0666667 -252.433 -466.433)" d="M 5919.62,7338.45 L 5919.62,7361.55 L 5400,7061.55 L 5400,7038.45 L 5919.62,7338.45 Z " />
<path stroke="transparent" fill="#000000" transform="matrix(0.0666667 0 0 0.0666667 -252.433 -466.433)" d="M 6439.23,7038.45 L 6439.23,7061.55 L 5919.62,7361.55 L 5919.62,7338.45 L 6439.23,7038.45 Z " />
<path stroke="transparent" fill="#000000" transform="matrix(0.0666667 0 0 0.0666667 -252.433 -466.433)" d="M 6963.85,7341.34 L 6953.85,7358.66 L 6439.23,7061.55 L 6439.23,7038.45 L 6963.85,7341.34 Z " />
</svg>
