<?xml version="1.0" standalone="no" ?>
<!DOCTYPE svg PUBLIC "-//W3C//DTD SVG 1.1//EN" "http://www.w3.org/Graphics/SVG/1.1/DTD/svg11.dtd">
<svg width="388px" height="113px" viewBox="0 0 388 113" xmlns="http://www.w3.org/2000/svg" xmlns:xlink="http://www.w3.org/1999/xlink" version="1.1" >
<text x="0" y="0" stroke="transparent" fill="#000000" transform="matrix(0.0666667 0 0 0.0666667 309.61 14.8055)" style="font:normal normal normal 200px 'Arial'" >
O</text>
<text x="0" y="0" stroke="transparent" fill="#000000" transform="matrix(0.0666667 0 0 0.0666667 344.651 74.8055)" style="font:normal normal normal 200px 'Arial'" >
N</text>
<path stroke="transparent" fill="#000000" transform="matrix(0.0666667 0 0 0.0666667 -166.433 -423.433)" d="M 6699.04,7407.13 L 6699.04,7384.04 L 7218.65,7084.04 L 7218.65,7107.13 L 6699.04,7407.13 Z " />
<path stroke="transparent" fill="#000000" transform="matrix(0.0666667 0 0 0.0666667 -166.433 -423.433)" d="M 6179.42,7107.13 L 6179.42,7084.04 L 6699.04,7384.04 L 6699.04,7407.13 L 6179.42,7107.13 Z " />
<path stroke="transparent" fill="#000000" transform="matrix(0.0666667 0 0 0.0666667 -166.433 -423.433)" d="M 5659.81,7407.13 L 5659.81,7384.04 L 6179.42,7084.04 L 6179.42,7107.13 L 5659.81,7407.13 Z " />
<path stroke="transparent" fill="#000000" transform="matrix(0.0666667 0 0 0.0666667 -166.433 -423.433)" d="M 5140.19,7107.13 L 5140.19,7084.04 L 5659.81,7384.04 L 5659.81,7407.13 L 5140.19,7107.13 Z " />
<path stroke="transparent" fill="#000000" transform="matrix(0.0666667 0 0 0.0666667 -166.433 -423.433)" d="M 4620.58,7407.13 L 4620.58,7384.04 L 5140.19,7084.04 L 5140.19,7107.13 L 4620.58,7407.13 Z " />
<path stroke="transparent" fill="#000000" transform="matrix(0.0666667 0 0 0.0666667 -166.433 -423.433)" d="M 4100.96,7107.13 L 4100.96,7084.04 L 4620.58,7384.04 L 4620.58,7407.13 L 4100.96,7107.13 Z " />
<path stroke="transparent" fill="#000000" transform="matrix(0.0666667 0 0 0.0666667 -166.433 -423.433)" d="M 3581.35,7407.13 L 3581.35,7384.04 L 4100.96,7084.04 L 4100.96,7107.13 L 3581.35,7407.13 Z " />
<path stroke="transparent" fill="#000000" transform="matrix(0.0666667 0 0 0.0666667 -166.433 -423.433)" d="M 3061.73,7107.13 L 3061.73,7084.04 L 3581.35,7384.04 L 3581.35,7407.13 L 3061.73,7107.13 Z " />
<path stroke="transparent" fill="#000000" transform="matrix(0.0666667 0 0 0.0666667 -166.433 -423.433)" d="M 2547.12,7404.24 L 2537.12,7386.92 L 3061.73,7084.04 L 3061.73,7107.13 L 2547.12,7404.24 Z " />
<path stroke="transparent" fill="#000000" transform="matrix(0.0666667 0 0 0.0666667 -166.433 -423.433)" d="M 7172.65,6615.42 L 7192.65,6615.42 L 7192.65,7116.37 L 7172.65,7116.37 L 7172.65,6615.42 Z " />
<path stroke="transparent" fill="#000000" transform="matrix(0.0666667 0 0 0.0666667 -166.433 -423.433)" d="M 7244.65,6615.42 L 7264.65,6615.42 L 7264.65,7116.37 L 7244.65,7116.37 L 7244.65,6615.42 Z " />
<path stroke="transparent" fill="#000000" transform="matrix(0.0666667 0 0 0.0666667 -166.433 -423.433)" d="M 7639.42,7326.97 L 7629.42,7344.29 L 7218.65,7107.13 L 7218.65,7084.04 L 7639.42,7326.97 Z " />
<path stroke="transparent" fill="#000000" transform="matrix(0.0666667 0 0 0.0666667 -166.433 -423.433)" d="M 8252.88,7086.92 L 8262.88,7104.24 L 7847.12,7344.29 L 7837.12,7326.97 L 8252.88,7086.92 Z " />
<path stroke="transparent" fill="#000000" transform="matrix(0.0666667 0 0 0.0666667 -166.433 -423.433)" d="M 7748.27,7995.58 L 7728.27,7995.58 L 7728.27,7512.75 L 7748.27,7512.75 L 7748.27,7995.58 Z " />
</svg>
