<?xml version="1.0" standalone="no" ?>
<!DOCTYPE svg PUBLIC "-//W3C//DTD SVG 1.1//EN" "http://www.w3.org/Graphics/SVG/1.1/DTD/svg11.dtd">
<svg width="111px" height="71px" viewBox="0 0 111 71" xmlns="http://www.w3.org/2000/svg" xmlns:xlink="http://www.w3.org/1999/xlink" version="1.1" >
<text x="0" y="0" stroke="transparent" fill="#000000" transform="matrix(0.0666667 0 0 0.0666667 33.0462 68.1)" style="font:normal normal normal 200px 'Arial'" >
O</text>
<path stroke="transparent" fill="#000000" transform="matrix(0.0666667 0 0 0.0666667 -304.433 -444.433)" d="M 4615.58,7318.66 L 4625.58,7301.34 L 5052.57,7547.87 L 5042.57,7565.19 L 4615.58,7318.66 Z " />
<path stroke="transparent" fill="#000000" transform="matrix(0.0666667 0 0 0.0666667 -304.433 -444.433)" d="M 5649.81,6710 L 5669.81,6710 L 5669.81,7292.68 L 5659.81,7310 L 5649.81,7304.23 L 5649.81,6710 Z " />
<path stroke="transparent" fill="#000000" transform="matrix(0.0666667 0 0 0.0666667 -304.433 -444.433)" d="M 6184.42,7601.34 L 6174.42,7618.66 L 5659.81,7321.55 L 5659.81,7310 L 5679.81,7310 L 6184.42,7601.34 Z " />
<path stroke="transparent" fill="#000000" transform="matrix(0.0666667 0 0 0.0666667 -304.433 -444.433)" d="M 6174.42,7001.34 L 6184.42,7018.66 L 5679.81,7310 L 5659.81,7310 L 5669.81,7292.68 L 6174.42,7001.34 Z " />
<path stroke="transparent" fill="#000000" transform="matrix(0.0666667 0 0 0.0666667 -304.433 -444.433)" d="M 5649.81,7304.23 L 5659.81,7310 L 5659.81,7321.55 L 5237.81,7565.19 L 5227.81,7547.87 L 5649.81,7304.23 Z " />
</svg>
