<?xml version="1.0" standalone="no" ?>
<!DOCTYPE svg PUBLIC "-//W3C//DTD SVG 1.1//EN" "http://www.w3.org/Graphics/SVG/1.1/DTD/svg11.dtd">
<svg width="141px" height="115px" viewBox="0 0 141 115" xmlns="http://www.w3.org/2000/svg" xmlns:xlink="http://www.w3.org/1999/xlink" version="1.1" >
<text x="0" y="0" stroke="transparent" fill="#000000" transform="matrix(0.0666667 0 0 0.0666667 63.7104 78.2066)" style="font:normal normal normal 200px 'Arial'" >
N</text>
<text x="0" y="0" stroke="transparent" fill="#000000" transform="matrix(0.0666667 0 0 0.0666667 30.9504 14.6952)" style="font:normal normal normal 200px 'Arial'" >
O</text>
<path stroke="transparent" fill="#000000" transform="matrix(0.0666667 0 0 0.0666667 -289.433 -429.433)" d="M 5176.49,8097.24 L 5191.02,8117.24 L 4576.49,8117.24 L 4591.02,8097.24 L 5176.49,8097.24 Z " />
<path stroke="transparent" fill="#000000" transform="matrix(0.0666667 0 0 0.0666667 -289.433 -429.433)" d="M 5319.26,7657.81 L 5338.28,7663.99 L 5191.02,8117.24 L 5176.49,8097.24 L 5319.26,7657.81 Z " />
<path stroke="transparent" fill="#000000" transform="matrix(0.0666667 0 0 0.0666667 -289.433 -429.433)" d="M 4883.76,7196.29 L 4883.76,7171.57 L 5276.14,7456.66 L 5264.39,7472.84 L 4883.76,7196.29 Z " />
<path stroke="transparent" fill="#000000" transform="matrix(0.0666667 0 0 0.0666667 -289.433 -429.433)" d="M 4410.11,7540.42 L 4386.6,7532.78 L 4883.76,7171.57 L 4883.76,7196.29 L 4410.11,7540.42 Z " />
<path stroke="transparent" fill="#000000" transform="matrix(0.0666667 0 0 0.0666667 -289.433 -429.433)" d="M 4591.02,8097.24 L 4576.49,8117.24 L 4386.6,7532.78 L 4410.11,7540.42 L 4591.02,8097.24 Z " />
<path stroke="transparent" fill="#000000" transform="matrix(0.0666667 0 0 0.0666667 -289.433 -429.433)" d="M 4837.76,6703.76 L 4857.76,6703.76 L 4857.76,7210.08 L 4837.76,7210.08 L 4837.76,6703.76 Z " />
<path stroke="transparent" fill="#000000" transform="matrix(0.0666667 0 0 0.0666667 -289.433 -429.433)" d="M 4909.76,6703.76 L 4929.76,6703.76 L 4929.76,7210.08 L 4909.76,7210.08 L 4909.76,6703.76 Z " />
<path stroke="transparent" fill="#000000" transform="matrix(0.0666667 0 0 0.0666667 -289.433 -429.433)" d="M 5888.8,7225.05 L 5888.8,7248.15 L 5478.01,7485.31 L 5468.01,7467.98 L 5888.8,7225.05 Z " />
<path stroke="transparent" fill="#000000" transform="matrix(0.0666667 0 0 0.0666667 -289.433 -429.433)" d="M 6413.4,7527.94 L 6403.4,7545.26 L 5888.8,7248.15 L 5888.8,7225.05 L 6413.4,7527.94 Z " />
</svg>
