<?xml version="1.0" standalone="no" ?>
<!DOCTYPE svg PUBLIC "-//W3C//DTD SVG 1.1//EN" "http://www.w3.org/Graphics/SVG/1.1/DTD/svg11.dtd">
<svg width="289px" height="145px" viewBox="0 0 289 145" xmlns="http://www.w3.org/2000/svg" xmlns:xlink="http://www.w3.org/1999/xlink" version="1.1" >
<text x="0" y="0" stroke="transparent" fill="#000000" transform="matrix(0.0666667 0 0 0.0666667 198.808 117.961)" style="font:normal normal normal 200px 'Arial'" >
O</text>
<text x="0" y="0" stroke="transparent" fill="#000000" transform="matrix(0.0666667 0 0 0.0666667 141.789 65.6001)" style="font:normal normal normal 200px 'Arial'" >
F</text>
<text x="0" y="0" stroke="transparent" fill="#000000" transform="matrix(0.0666667 0 0 0.0666667 170.215 26.4742)" style="font:normal normal normal 200px 'Arial'" >
F</text>
<text x="0" y="0" stroke="transparent" fill="#000000" transform="matrix(0.0666667 0 0 0.0666667 208.258 14.1136)" style="font:normal normal normal 200px 'Arial'" >
F</text>
<text x="0" y="0" stroke="transparent" fill="#000000" transform="matrix(0.0666667 0 0 0.0666667 254.253 29.0583)" style="font:normal normal normal 200px 'Arial'" >
F</text>
<text x="0" y="0" stroke="transparent" fill="#000000" transform="matrix(0.0666667 0 0 0.0666667 277.764 61.419)" style="font:normal normal normal 200px 'Arial'" >
F</text>
<text x="0" y="0" stroke="transparent" fill="#000000" transform="matrix(0.0666667 0 0 0.0666667 277.764 109.781)" style="font:normal normal normal 200px 'Arial'" >
F</text>
<text x="0" y="0" stroke="transparent" fill="#000000" transform="matrix(0.0666667 0 0 0.0666667 254.253 142.142)" style="font:normal normal normal 200px 'Arial'" >
F</text>
<text x="0" y="0" stroke="transparent" fill="#000000" transform="matrix(0.0666667 0 0 0.0666667 121.789 140.241)" style="font:normal normal normal 200px 'Arial'" >
F</text>
<text x="0" y="0" stroke="transparent" fill="#000000" transform="matrix(0.0666667 0 0 0.0666667 161.789 140.241)" style="font:normal normal normal 200px 'Arial'" >
F</text>
<text x="0" y="0" stroke="transparent" fill="#000000" transform="matrix(0.0666667 0 0 0.0666667 127.148 50.9591)" style="font:normal normal normal 200px 'Arial'" >
F</text>
<text x="0" y="0" stroke="transparent" fill="#000000" transform="matrix(0.0666667 0 0 0.0666667 87.1476 50.9591)" style="font:normal normal normal 200px 'Arial'" >
F</text>
<text x="0" y="0" stroke="transparent" fill="#000000" transform="matrix(0.0666667 0 0 0.0666667 52.5066 140.241)" style="font:normal normal normal 200px 'Arial'" >
F</text>
<text x="0" y="0" stroke="transparent" fill="#000000" transform="matrix(0.0666667 0 0 0.0666667 92.5066 140.241)" style="font:normal normal normal 200px 'Arial'" >
F</text>
<text x="0" y="0" stroke="transparent" fill="#000000" transform="matrix(0.0666667 0 0 0.0666667 3.22457 105.6)" style="font:normal normal normal 200px 'Arial'" >
F</text>
<text x="0" y="0" stroke="transparent" fill="#000000" transform="matrix(0.0666667 0 0 0.0666667 37.8656 45.6001)" style="font:normal normal normal 200px 'Arial'" >
F</text>
<text x="0" y="0" stroke="transparent" fill="#000000" transform="matrix(0.0666667 0 0 0.0666667 3.22457 65.6001)" style="font:normal normal normal 200px 'Arial'" >
F</text>
<path stroke="transparent" fill="#000000" transform="matrix(0.0666667 0 0 0.0666667 -215.433 -407.433)" d="M 5936.15,7330.66 L 5938.95,7317.5 L 5951.31,7317.5 L 6236.96,7710.68 L 6220.78,7722.43 L 5936.15,7330.66 Z " />
<path stroke="transparent" fill="#000000" transform="matrix(0.0666667 0 0 0.0666667 -215.433 -407.433)" d="M 6278.23,6833.5 L 6291.62,6832.09 L 6295.44,6843.85 L 5951.31,7317.5 L 5938.95,7317.5 L 5936.15,7304.34 L 6278.23,6833.5 Z " />
<path stroke="transparent" fill="#000000" transform="matrix(0.0666667 0 0 0.0666667 -215.433 -407.433)" d="M 6856.78,7005.21 L 6862.25,7017.5 L 6852.25,7024.77 L 6295.44,6843.85 L 6291.62,6832.09 L 6303.27,6825.36 L 6856.78,7005.21 Z " />
<path stroke="transparent" fill="#000000" transform="matrix(0.0666667 0 0 0.0666667 -215.433 -407.433)" d="M 6872.25,7608.5 L 6862.25,7617.5 L 6852.25,7610.24 L 6852.25,7024.77 L 6862.25,7017.5 L 6872.25,7026.51 L 6872.25,7608.5 Z " />
<path stroke="transparent" fill="#000000" transform="matrix(0.0666667 0 0 0.0666667 -215.433 -407.433)" d="M 6852.25,7610.24 L 6862.25,7617.5 L 6856.78,7629.8 L 6396.56,7779.33 L 6390.38,7760.31 L 6852.25,7610.24 Z " />
<path stroke="transparent" fill="#000000" transform="matrix(0.0666667 0 0 0.0666667 -215.433 -407.433)" d="M 4899.71,7329.05 L 4899.71,7317.5 L 4913.37,7313.84 L 5419.33,7605.96 L 5419.33,7617.5 L 5405.67,7621.16 L 4899.71,7329.05 Z " />
<path stroke="transparent" fill="#000000" transform="matrix(0.0666667 0 0 0.0666667 -215.433 -407.433)" d="M 4393.76,7621.16 L 4380.1,7617.5 L 4380.1,7605.96 L 4886.05,7313.84 L 4899.71,7317.5 L 4899.71,7329.05 L 4393.76,7621.16 Z " />
<path stroke="transparent" fill="#000000" transform="matrix(0.0666667 0 0 0.0666667 -215.433 -407.433)" d="M 3860.48,7329.05 L 3860.48,7317.5 L 3870.48,7311.73 L 4380.1,7605.96 L 4380.1,7617.5 L 4366.44,7621.16 L 3860.48,7329.05 Z " />
<path stroke="transparent" fill="#000000" transform="matrix(0.0666667 0 0 0.0666667 -215.433 -407.433)" d="M 5432.99,7621.16 L 5419.33,7617.5 L 5419.33,7605.96 L 5918.95,7317.5 L 5938.95,7317.5 L 5936.15,7330.66 L 5432.99,7621.16 Z " />
<path stroke="transparent" fill="#000000" transform="matrix(0.0666667 0 0 0.0666667 -215.433 -407.433)" d="M 5485.85,7067.46 L 5495.85,7050.14 L 5936.15,7304.34 L 5938.95,7317.5 L 5918.95,7317.5 L 5485.85,7067.46 Z " />
<path stroke="transparent" fill="#000000" transform="matrix(0.0666667 0 0 0.0666667 -215.433 -407.433)" d="M 5898.45,6491.54 L 5911.83,6476.68 L 6285.44,6813.07 L 6291.62,6832.09 L 6278.23,6833.5 L 5898.45,6491.54 Z " />
<path stroke="transparent" fill="#000000" transform="matrix(0.0666667 0 0 0.0666667 -215.433 -407.433)" d="M 6380.67,6365.03 L 6400.23,6369.19 L 6303.27,6825.36 L 6291.62,6832.09 L 6285.44,6813.07 L 6380.67,6365.03 Z " />
<path stroke="transparent" fill="#000000" transform="matrix(0.0666667 0 0 0.0666667 -215.433 -407.433)" d="M 7044.93,6582.6 L 7063.21,6590.73 L 6878.43,7005.75 L 6862.25,7017.5 L 6856.78,7005.21 L 7044.93,6582.6 Z " />
<path stroke="transparent" fill="#000000" transform="matrix(0.0666667 0 0 0.0666667 -215.433 -407.433)" d="M 7374.62,6953.6 L 7376.71,6973.49 L 6872.25,7026.51 L 6862.25,7017.5 L 6878.43,7005.75 L 7374.62,6953.6 Z " />
<path stroke="transparent" fill="#000000" transform="matrix(0.0666667 0 0 0.0666667 -215.433 -407.433)" d="M 7376.71,7661.52 L 7374.62,7681.41 L 6878.43,7629.26 L 6862.25,7617.5 L 6872.25,7608.5 L 7376.71,7661.52 Z " />
<path stroke="transparent" fill="#000000" transform="matrix(0.0666667 0 0 0.0666667 -215.433 -407.433)" d="M 7068.53,8056.23 L 7050.26,8064.37 L 6856.78,7629.8 L 6862.25,7617.5 L 6878.43,7629.26 L 7068.53,8056.23 Z " />
<path stroke="transparent" fill="#000000" transform="matrix(0.0666667 0 0 0.0666667 -215.433 -407.433)" d="M 5187.95,8038.27 L 5170.63,8028.27 L 5405.67,7621.16 L 5419.33,7617.5 L 5419.33,7637.5 L 5187.95,8038.27 Z " />
<path stroke="transparent" fill="#000000" transform="matrix(0.0666667 0 0 0.0666667 -215.433 -407.433)" d="M 5669.78,8031.3 L 5652.46,8041.3 L 5419.33,7637.5 L 5419.33,7617.5 L 5432.99,7621.16 L 5669.78,8031.3 Z " />
<path stroke="transparent" fill="#000000" transform="matrix(0.0666667 0 0 0.0666667 -215.433 -407.433)" d="M 5126.64,6904.46 L 5143.96,6914.46 L 4913.37,7313.84 L 4899.71,7317.5 L 4899.71,7297.5 L 5126.64,6904.46 Z " />
<path stroke="transparent" fill="#000000" transform="matrix(0.0666667 0 0 0.0666667 -215.433 -407.433)" d="M 4628.01,6866.89 L 4645.33,6856.89 L 4899.71,7297.5 L 4899.71,7317.5 L 4886.05,7313.84 L 4628.01,6866.89 Z " />
<path stroke="transparent" fill="#000000" transform="matrix(0.0666667 0 0 0.0666667 -215.433 -407.433)" d="M 4148.72,8038.27 L 4131.4,8028.27 L 4366.44,7621.16 L 4380.1,7617.5 L 4380.1,7637.5 L 4148.72,8038.27 Z " />
<path stroke="transparent" fill="#000000" transform="matrix(0.0666667 0 0 0.0666667 -215.433 -407.433)" d="M 4630.55,8031.3 L 4613.23,8041.3 L 4380.1,7637.5 L 4380.1,7617.5 L 4393.76,7621.16 L 4630.55,8031.3 Z " />
<path stroke="transparent" fill="#000000" transform="matrix(0.0666667 0 0 0.0666667 -215.433 -407.433)" d="M 3445.97,7568.37 L 3435.97,7551.05 L 3840.48,7317.5 L 3860.48,7317.5 L 3860.48,7329.05 L 3445.97,7568.37 Z " />
<path stroke="transparent" fill="#000000" transform="matrix(0.0666667 0 0 0.0666667 -215.433 -407.433)" d="M 3850.48,6834.67 L 3870.48,6834.67 L 3870.48,7311.73 L 3860.48,7317.5 L 3850.48,7300.18 L 3850.48,6834.67 Z " />
<path stroke="transparent" fill="#000000" transform="matrix(0.0666667 0 0 0.0666667 -215.433 -407.433)" d="M 3407.39,7067.46 L 3417.39,7050.14 L 3850.48,7300.18 L 3860.48,7317.5 L 3840.48,7317.5 L 3407.39,7067.46 Z " />
</svg>
