<?xml version="1.0" standalone="no" ?>
<!DOCTYPE svg PUBLIC "-//W3C//DTD SVG 1.1//EN" "http://www.w3.org/Graphics/SVG/1.1/DTD/svg11.dtd">
<svg width="257px" height="117px" viewBox="0 0 257 117" xmlns="http://www.w3.org/2000/svg" xmlns:xlink="http://www.w3.org/1999/xlink" version="1.1" >
<text x="0" y="0" stroke="transparent" fill="#000000" transform="matrix(0.0666667 0 0 0.0666667 3.25083 94.1278)" style="font:normal normal normal 200px 'Arial'" >
F</text>
<text x="0" y="0" stroke="transparent" fill="#000000" transform="matrix(0.0666667 0 0 0.0666667 37.8918 114.128)" style="font:normal normal normal 200px 'Arial'" >
F</text>
<text x="0" y="0" stroke="transparent" fill="#000000" transform="matrix(0.0666667 0 0 0.0666667 3.25083 54.1278)" style="font:normal normal normal 200px 'Arial'" >
F</text>
<text x="0" y="0" stroke="transparent" fill="#000000" transform="matrix(0.0666667 0 0 0.0666667 92.5329 19.4868)" style="font:normal normal normal 200px 'Arial'" >
F</text>
<text x="0" y="0" stroke="transparent" fill="#000000" transform="matrix(0.0666667 0 0 0.0666667 52.5329 19.4868)" style="font:normal normal normal 200px 'Arial'" >
F</text>
<text x="0" y="0" stroke="transparent" fill="#000000" transform="matrix(0.0666667 0 0 0.0666667 87.1739 108.769)" style="font:normal normal normal 200px 'Arial'" >
F</text>
<text x="0" y="0" stroke="transparent" fill="#000000" transform="matrix(0.0666667 0 0 0.0666667 127.174 108.769)" style="font:normal normal normal 200px 'Arial'" >
F</text>
<text x="0" y="0" stroke="transparent" fill="#000000" transform="matrix(0.0666667 0 0 0.0666667 161.815 19.4868)" style="font:normal normal normal 200px 'Arial'" >
F</text>
<text x="0" y="0" stroke="transparent" fill="#000000" transform="matrix(0.0666667 0 0 0.0666667 121.815 19.4868)" style="font:normal normal normal 200px 'Arial'" >
F</text>
<text x="0" y="0" stroke="transparent" fill="#000000" transform="matrix(0.0666667 0 0 0.0666667 156.456 108.769)" style="font:normal normal normal 200px 'Arial'" >
F</text>
<text x="0" y="0" stroke="transparent" fill="#000000" transform="matrix(0.0666667 0 0 0.0666667 196.456 108.769)" style="font:normal normal normal 200px 'Arial'" >
F</text>
<text x="0" y="0" stroke="transparent" fill="#000000" transform="matrix(0.0666667 0 0 0.0666667 245.738 34.1278)" style="font:normal normal normal 200px 'Arial'" >
F</text>
<text x="0" y="0" stroke="transparent" fill="#000000" transform="matrix(0.0666667 0 0 0.0666667 211.097 14.1278)" style="font:normal normal normal 200px 'Arial'" >
F</text>
<text x="0" y="0" stroke="transparent" fill="#000000" transform="matrix(0.0666667 0 0 0.0666667 245.738 74.1278)" style="font:normal normal normal 200px 'Arial'" >
F</text>
<path stroke="transparent" fill="#000000" transform="matrix(0.0666667 0 0 0.0666667 -231.433 -421.433)" d="M 4606.83,7051.76 L 4620.49,7055.42 L 4620.49,7066.96 L 4110.88,7361.19 L 4100.88,7355.42 L 4100.88,7343.87 L 4606.83,7051.76 Z " />
<path stroke="transparent" fill="#000000" transform="matrix(0.0666667 0 0 0.0666667 -231.433 -421.433)" d="M 5140.11,7343.87 L 5140.11,7355.42 L 5126.45,7359.08 L 4620.49,7066.96 L 4620.49,7055.42 L 4634.15,7051.76 L 5140.11,7343.87 Z " />
<path stroke="transparent" fill="#000000" transform="matrix(0.0666667 0 0 0.0666667 -231.433 -421.433)" d="M 5646.06,7051.76 L 5659.72,7055.42 L 5659.72,7066.96 L 5153.77,7359.08 L 5140.11,7355.42 L 5140.11,7343.87 L 5646.06,7051.76 Z " />
<path stroke="transparent" fill="#000000" transform="matrix(0.0666667 0 0 0.0666667 -231.433 -421.433)" d="M 6179.34,7343.87 L 6179.34,7355.42 L 6165.68,7359.08 L 5659.72,7066.96 L 5659.72,7055.42 L 5673.38,7051.76 L 6179.34,7343.87 Z " />
<path stroke="transparent" fill="#000000" transform="matrix(0.0666667 0 0 0.0666667 -231.433 -421.433)" d="M 6688.95,7049.64 L 6698.95,7055.42 L 6698.95,7066.96 L 6193,7359.08 L 6179.34,7355.42 L 6179.34,7343.87 L 6688.95,7049.64 Z " />
<path stroke="transparent" fill="#000000" transform="matrix(0.0666667 0 0 0.0666667 -231.433 -421.433)" d="M 3686.36,7606.28 L 3676.36,7588.96 L 4080.88,7355.42 L 4100.88,7355.42 L 4090.88,7372.74 L 3686.36,7606.28 Z " />
<path stroke="transparent" fill="#000000" transform="matrix(0.0666667 0 0 0.0666667 -231.433 -421.433)" d="M 4110.88,7852.58 L 4090.88,7852.58 L 4090.88,7372.74 L 4100.88,7355.42 L 4110.88,7361.19 L 4110.88,7852.58 Z " />
<path stroke="transparent" fill="#000000" transform="matrix(0.0666667 0 0 0.0666667 -231.433 -421.433)" d="M 3647.79,7105.37 L 3657.79,7088.05 L 4100.88,7343.87 L 4100.88,7355.42 L 4080.88,7355.42 L 3647.79,7105.37 Z " />
<path stroke="transparent" fill="#000000" transform="matrix(0.0666667 0 0 0.0666667 -231.433 -421.433)" d="M 4847.42,6642.37 L 4864.74,6652.37 L 4634.15,7051.76 L 4620.49,7055.42 L 4620.49,7035.42 L 4847.42,6642.37 Z " />
<path stroke="transparent" fill="#000000" transform="matrix(0.0666667 0 0 0.0666667 -231.433 -421.433)" d="M 4348.79,6604.81 L 4366.11,6594.81 L 4620.49,7035.42 L 4620.49,7055.42 L 4606.83,7051.76 L 4348.79,6604.81 Z " />
<path stroke="transparent" fill="#000000" transform="matrix(0.0666667 0 0 0.0666667 -231.433 -421.433)" d="M 4908.73,7776.18 L 4891.41,7766.18 L 5126.45,7359.08 L 5140.11,7355.42 L 5140.11,7375.42 L 4908.73,7776.18 Z " />
<path stroke="transparent" fill="#000000" transform="matrix(0.0666667 0 0 0.0666667 -231.433 -421.433)" d="M 5390.56,7769.21 L 5373.24,7779.21 L 5140.11,7375.42 L 5140.11,7355.42 L 5153.77,7359.08 L 5390.56,7769.21 Z " />
<path stroke="transparent" fill="#000000" transform="matrix(0.0666667 0 0 0.0666667 -231.433 -421.433)" d="M 5886.65,6642.37 L 5903.97,6652.37 L 5673.38,7051.76 L 5659.72,7055.42 L 5659.72,7035.42 L 5886.65,6642.37 Z " />
<path stroke="transparent" fill="#000000" transform="matrix(0.0666667 0 0 0.0666667 -231.433 -421.433)" d="M 5388.02,6604.81 L 5405.34,6594.81 L 5659.72,7035.42 L 5659.72,7055.42 L 5646.06,7051.76 L 5388.02,6604.81 Z " />
<path stroke="transparent" fill="#000000" transform="matrix(0.0666667 0 0 0.0666667 -231.433 -421.433)" d="M 5947.96,7776.18 L 5930.64,7766.18 L 6165.68,7359.08 L 6179.34,7355.42 L 6179.34,7375.42 L 5947.96,7776.18 Z " />
<path stroke="transparent" fill="#000000" transform="matrix(0.0666667 0 0 0.0666667 -231.433 -421.433)" d="M 6429.79,7769.21 L 6412.47,7779.21 L 6179.34,7375.42 L 6179.34,7355.42 L 6193,7359.08 L 6429.79,7769.21 Z " />
<path stroke="transparent" fill="#000000" transform="matrix(0.0666667 0 0 0.0666667 -231.433 -421.433)" d="M 7112.51,6805.1 L 7122.51,6822.42 L 6718.95,7055.42 L 6698.95,7055.42 L 6708.95,7038.1 L 7112.51,6805.1 Z " />
<path stroke="transparent" fill="#000000" transform="matrix(0.0666667 0 0 0.0666667 -231.433 -421.433)" d="M 6688.95,6572.58 L 6708.95,6572.58 L 6708.95,7038.1 L 6698.95,7055.42 L 6688.95,7049.64 L 6688.95,6572.58 Z " />
<path stroke="transparent" fill="#000000" transform="matrix(0.0666667 0 0 0.0666667 -231.433 -421.433)" d="M 7128.72,7292 L 7118.72,7309.32 L 6698.95,7066.96 L 6698.95,7055.42 L 6718.95,7055.42 L 7128.72,7292 Z " />
</svg>
