<?xml version="1.0" standalone="no" ?>
<!DOCTYPE svg PUBLIC "-//W3C//DTD SVG 1.1//EN" "http://www.w3.org/Graphics/SVG/1.1/DTD/svg11.dtd">
<svg width="163px" height="167px" viewBox="0 0 163 167" xmlns="http://www.w3.org/2000/svg" xmlns:xlink="http://www.w3.org/1999/xlink" version="1.1" >
<text x="0" y="0" stroke="transparent" fill="#000000" transform="matrix(0.0666667 0 0 0.0666667 132.135 143.769)" style="font:normal normal normal 200px 'Arial'" >
F</text>
<text x="0" y="0" stroke="transparent" fill="#000000" transform="matrix(0.0666667 0 0 0.0666667 152.135 109.128)" style="font:normal normal normal 200px 'Arial'" >
F</text>
<text x="0" y="0" stroke="transparent" fill="#000000" transform="matrix(0.0666667 0 0 0.0666667 57.4944 163.769)" style="font:normal normal normal 200px 'Arial'" >
F</text>
<text x="0" y="0" stroke="transparent" fill="#000000" transform="matrix(0.0666667 0 0 0.0666667 97.4944 163.769)" style="font:normal normal normal 200px 'Arial'" >
F</text>
<text x="0" y="0" stroke="transparent" fill="#000000" transform="matrix(0.0666667 0 0 0.0666667 2.85337 109.128)" style="font:normal normal normal 200px 'Arial'" >
F</text>
<text x="0" y="0" stroke="transparent" fill="#000000" transform="matrix(0.0666667 0 0 0.0666667 22.8534 143.769)" style="font:normal normal normal 200px 'Arial'" >
F</text>
<text x="0" y="0" stroke="transparent" fill="#000000" transform="matrix(0.0666667 0 0 0.0666667 22.8534 34.4868)" style="font:normal normal normal 200px 'Arial'" >
F</text>
<text x="0" y="0" stroke="transparent" fill="#000000" transform="matrix(0.0666667 0 0 0.0666667 2.85337 69.1278)" style="font:normal normal normal 200px 'Arial'" >
F</text>
<text x="0" y="0" stroke="transparent" fill="#000000" transform="matrix(0.0666667 0 0 0.0666667 97.4944 14.4868)" style="font:normal normal normal 200px 'Arial'" >
F</text>
<text x="0" y="0" stroke="transparent" fill="#000000" transform="matrix(0.0666667 0 0 0.0666667 57.4944 14.4868)" style="font:normal normal normal 200px 'Arial'" >
F</text>
<text x="0" y="0" stroke="transparent" fill="#000000" transform="matrix(0.0666667 0 0 0.0666667 152.135 69.1278)" style="font:normal normal normal 200px 'Arial'" >
F</text>
<text x="0" y="0" stroke="transparent" fill="#000000" transform="matrix(0.0666667 0 0 0.0666667 132.135 34.4868)" style="font:normal normal normal 200px 'Arial'" >
F</text>
<path stroke="transparent" fill="#000000" transform="matrix(0.0666667 0 0 0.0666667 -278.433 -396.433)" d="M 5413.58,7809.08 L 5399.92,7805.42 L 5399.92,7793.87 L 5909.53,7499.64 L 5919.53,7505.42 L 5915.87,7519.08 L 5413.58,7809.08 Z " />
<path stroke="transparent" fill="#000000" transform="matrix(0.0666667 0 0 0.0666667 -278.433 -396.433)" d="M 4883.96,7519.08 L 4880.3,7505.42 L 4890.3,7499.64 L 5399.92,7793.87 L 5399.92,7805.42 L 5386.26,7809.08 L 4883.96,7519.08 Z " />
<path stroke="transparent" fill="#000000" transform="matrix(0.0666667 0 0 0.0666667 -278.433 -396.433)" d="M 4870.3,6915.42 L 4880.3,6905.42 L 4890.3,6911.19 L 4890.3,7499.64 L 4880.3,7505.42 L 4870.3,7495.42 L 4870.3,6915.42 Z " />
<path stroke="transparent" fill="#000000" transform="matrix(0.0666667 0 0 0.0666667 -278.433 -396.433)" d="M 5386.26,6601.76 L 5399.92,6605.42 L 5399.92,6616.96 L 4890.3,6911.19 L 4880.3,6905.42 L 4883.96,6891.76 L 5386.26,6601.76 Z " />
<path stroke="transparent" fill="#000000" transform="matrix(0.0666667 0 0 0.0666667 -278.433 -396.433)" d="M 5915.87,6891.76 L 5919.53,6905.42 L 5909.53,6911.19 L 5399.92,6616.96 L 5399.92,6605.42 L 5413.58,6601.76 L 5915.87,6891.76 Z " />
<path stroke="transparent" fill="#000000" transform="matrix(0.0666667 0 0 0.0666667 -278.433 -396.433)" d="M 5909.53,6911.19 L 5919.53,6905.42 L 5929.53,6915.42 L 5929.53,7495.42 L 5919.53,7505.42 L 5909.53,7499.64 L 5909.53,6911.19 Z " />
<path stroke="transparent" fill="#000000" transform="matrix(0.0666667 0 0 0.0666667 -278.433 -396.433)" d="M 6169.98,7919.21 L 6152.66,7929.21 L 5915.87,7519.08 L 5919.53,7505.42 L 5936.85,7515.42 L 6169.98,7919.21 Z " />
<path stroke="transparent" fill="#000000" transform="matrix(0.0666667 0 0 0.0666667 -278.433 -396.433)" d="M 6435.53,7495.42 L 6435.53,7515.42 L 5936.85,7515.42 L 5919.53,7505.42 L 5929.53,7495.42 L 6435.53,7495.42 Z " />
<path stroke="transparent" fill="#000000" transform="matrix(0.0666667 0 0 0.0666667 -278.433 -396.433)" d="M 5168.53,8226.18 L 5151.21,8216.18 L 5386.26,7809.08 L 5399.92,7805.42 L 5399.92,7825.42 L 5168.53,8226.18 Z " />
<path stroke="transparent" fill="#000000" transform="matrix(0.0666667 0 0 0.0666667 -278.433 -396.433)" d="M 5650.37,8219.21 L 5633.05,8229.21 L 5399.92,7825.42 L 5399.92,7805.42 L 5413.58,7809.08 L 5650.37,8219.21 Z " />
<path stroke="transparent" fill="#000000" transform="matrix(0.0666667 0 0 0.0666667 -278.433 -396.433)" d="M 4371.3,7515.42 L 4371.3,7495.42 L 4870.3,7495.42 L 4880.3,7505.42 L 4862.98,7515.42 L 4371.3,7515.42 Z " />
<path stroke="transparent" fill="#000000" transform="matrix(0.0666667 0 0 0.0666667 -278.433 -396.433)" d="M 4648.92,7926.18 L 4631.6,7916.18 L 4862.98,7515.42 L 4880.3,7505.42 L 4883.96,7519.08 L 4648.92,7926.18 Z " />
<path stroke="transparent" fill="#000000" transform="matrix(0.0666667 0 0 0.0666667 -278.433 -396.433)" d="M 4608.6,6454.81 L 4625.92,6444.81 L 4883.96,6891.76 L 4880.3,6905.42 L 4862.98,6895.42 L 4608.6,6454.81 Z " />
<path stroke="transparent" fill="#000000" transform="matrix(0.0666667 0 0 0.0666667 -278.433 -396.433)" d="M 4371.3,6915.42 L 4371.3,6895.42 L 4862.98,6895.42 L 4880.3,6905.42 L 4870.3,6915.42 L 4371.3,6915.42 Z " />
<path stroke="transparent" fill="#000000" transform="matrix(0.0666667 0 0 0.0666667 -278.433 -396.433)" d="M 5626.84,6192.37 L 5644.16,6202.37 L 5413.58,6601.76 L 5399.92,6605.42 L 5399.92,6585.42 L 5626.84,6192.37 Z " />
<path stroke="transparent" fill="#000000" transform="matrix(0.0666667 0 0 0.0666667 -278.433 -396.433)" d="M 5128.21,6154.81 L 5145.53,6144.81 L 5399.92,6585.42 L 5399.92,6605.42 L 5386.26,6601.76 L 5128.21,6154.81 Z " />
<path stroke="transparent" fill="#000000" transform="matrix(0.0666667 0 0 0.0666667 -278.433 -396.433)" d="M 6435.53,6895.42 L 6435.53,6915.42 L 5929.53,6915.42 L 5919.53,6905.42 L 5936.85,6895.42 L 6435.53,6895.42 Z " />
<path stroke="transparent" fill="#000000" transform="matrix(0.0666667 0 0 0.0666667 -278.433 -396.433)" d="M 6146.46,6492.37 L 6163.78,6502.37 L 5936.85,6895.42 L 5919.53,6905.42 L 5915.87,6891.76 L 6146.46,6492.37 Z " />
</svg>
