<?xml version="1.0" standalone="no" ?>
<!DOCTYPE svg PUBLIC "-//W3C//DTD SVG 1.1//EN" "http://www.w3.org/Graphics/SVG/1.1/DTD/svg11.dtd">
<svg width="187px" height="177px" viewBox="0 0 187 177" xmlns="http://www.w3.org/2000/svg" xmlns:xlink="http://www.w3.org/1999/xlink" version="1.1" >
<text x="0" y="0" stroke="transparent" fill="#000000" transform="matrix(0.0666667 0 0 0.0666667 2.89185 54.1278)" style="font:normal normal normal 200px 'Arial'" >
F</text>
<text x="0" y="0" stroke="transparent" fill="#000000" transform="matrix(0.0666667 0 0 0.0666667 72.1739 174.128)" style="font:normal normal normal 200px 'Arial'" >
F</text>
<text x="0" y="0" stroke="transparent" fill="#000000" transform="matrix(0.0666667 0 0 0.0666667 141.456 54.1278)" style="font:normal normal normal 200px 'Arial'" >
F</text>
<text x="0" y="0" stroke="transparent" fill="#000000" transform="matrix(0.0666667 0 0 0.0666667 2.89185 134.128)" style="font:normal normal normal 200px 'Arial'" >
F</text>
<text x="0" y="0" stroke="transparent" fill="#000000" transform="matrix(0.0666667 0 0 0.0666667 72.1739 14.1278)" style="font:normal normal normal 200px 'Arial'" >
F</text>
<text x="0" y="0" stroke="transparent" fill="#000000" transform="matrix(0.0666667 0 0 0.0666667 141.456 174.128)" style="font:normal normal normal 200px 'Arial'" >
F</text>
<text x="0" y="0" stroke="transparent" fill="#000000" transform="matrix(0.0666667 0 0 0.0666667 176.097 154.128)" style="font:normal normal normal 200px 'Arial'" >
F</text>
<text x="0" y="0" stroke="transparent" fill="#000000" transform="matrix(0.0666667 0 0 0.0666667 176.097 114.128)" style="font:normal normal normal 200px 'Arial'" >
F</text>
<path stroke="transparent" fill="#000000" transform="matrix(0.0666667 0 0 0.0666667 -266.433 -391.433)" d="M 5150.11,7811.19 L 5140.11,7805.42 L 5140.11,7793.87 L 5649.72,7499.64 L 5659.72,7505.42 L 5659.72,7516.96 L 5150.11,7811.19 Z " />
<path stroke="transparent" fill="#000000" transform="matrix(0.0666667 0 0 0.0666667 -266.433 -391.433)" d="M 5649.72,6911.19 L 5659.72,6905.42 L 5669.72,6911.19 L 5669.72,7499.64 L 5659.72,7505.42 L 5649.72,7499.64 L 5649.72,6911.19 Z " />
<path stroke="transparent" fill="#000000" transform="matrix(0.0666667 0 0 0.0666667 -266.433 -391.433)" d="M 5577.72,6946.99 L 5597.72,6946.99 L 5597.72,7463.85 L 5577.72,7463.85 L 5577.72,6946.99 Z " />
<path stroke="transparent" fill="#000000" transform="matrix(0.0666667 0 0 0.0666667 -266.433 -391.433)" d="M 4620.49,7516.96 L 4620.49,7505.42 L 4630.49,7499.64 L 5140.11,7793.87 L 5140.11,7805.42 L 5130.11,7811.19 L 4620.49,7516.96 Z " />
<path stroke="transparent" fill="#000000" transform="matrix(0.0666667 0 0 0.0666667 -266.433 -391.433)" d="M 4687.49,7472.51 L 4697.49,7455.19 L 5145.11,7713.62 L 5135.11,7730.94 L 4687.49,7472.51 Z " />
<path stroke="transparent" fill="#000000" transform="matrix(0.0666667 0 0 0.0666667 -266.433 -391.433)" d="M 4630.49,7499.64 L 4620.49,7505.42 L 4610.49,7499.64 L 4610.49,6911.19 L 4620.49,6905.42 L 4630.49,6911.19 L 4630.49,7499.64 Z " />
<path stroke="transparent" fill="#000000" transform="matrix(0.0666667 0 0 0.0666667 -266.433 -391.433)" d="M 5130.11,6599.64 L 5140.11,6605.42 L 5140.11,6616.96 L 4630.49,6911.19 L 4620.49,6905.42 L 4620.49,6893.87 L 5130.11,6599.64 Z " />
<path stroke="transparent" fill="#000000" transform="matrix(0.0666667 0 0 0.0666667 -266.433 -391.433)" d="M 5135.11,6679.89 L 5145.11,6697.22 L 4697.49,6955.65 L 4687.49,6938.33 L 5135.11,6679.89 Z " />
<path stroke="transparent" fill="#000000" transform="matrix(0.0666667 0 0 0.0666667 -266.433 -391.433)" d="M 5140.11,6616.96 L 5140.11,6605.42 L 5150.11,6599.64 L 5659.72,6893.87 L 5659.72,6905.42 L 5649.72,6911.19 L 5140.11,6616.96 Z " />
<path stroke="transparent" fill="#000000" transform="matrix(0.0666667 0 0 0.0666667 -266.433 -391.433)" d="M 6179.34,7793.87 L 6179.34,7805.42 L 6169.34,7811.19 L 5659.72,7516.96 L 5659.72,7505.42 L 5669.72,7499.64 L 6179.34,7793.87 Z " />
<path stroke="transparent" fill="#000000" transform="matrix(0.0666667 0 0 0.0666667 -266.433 -391.433)" d="M 4167.4,6655.37 L 4177.4,6638.05 L 4620.49,6893.87 L 4620.49,6905.42 L 4610.49,6911.19 L 4167.4,6655.37 Z " />
<path stroke="transparent" fill="#000000" transform="matrix(0.0666667 0 0 0.0666667 -266.433 -391.433)" d="M 5150.11,8302.58 L 5130.11,8302.58 L 5130.11,7811.19 L 5140.11,7805.42 L 5150.11,7811.19 L 5150.11,8302.58 Z " />
<path stroke="transparent" fill="#000000" transform="matrix(0.0666667 0 0 0.0666667 -266.433 -391.433)" d="M 6073.28,6655.1 L 6083.28,6672.42 L 5669.72,6911.19 L 5659.72,6905.42 L 5659.72,6893.87 L 6073.28,6655.1 Z " />
<path stroke="transparent" fill="#000000" transform="matrix(0.0666667 0 0 0.0666667 -266.433 -391.433)" d="M 4205.98,7756.28 L 4195.98,7738.96 L 4610.49,7499.64 L 4620.49,7505.42 L 4620.49,7516.96 L 4205.98,7756.28 Z " />
<path stroke="transparent" fill="#000000" transform="matrix(0.0666667 0 0 0.0666667 -266.433 -391.433)" d="M 5130.11,6122.58 L 5150.11,6122.58 L 5150.11,6599.64 L 5140.11,6605.42 L 5130.11,6599.64 L 5130.11,6122.58 Z " />
<path stroke="transparent" fill="#000000" transform="matrix(0.0666667 0 0 0.0666667 -266.433 -391.433)" d="M 6189.34,8302.58 L 6169.34,8302.58 L 6169.34,7811.19 L 6179.34,7805.42 L 6189.34,7822.74 L 6189.34,8302.58 Z " />
<path stroke="transparent" fill="#000000" transform="matrix(0.0666667 0 0 0.0666667 -266.433 -391.433)" d="M 6609.11,8042 L 6599.11,8059.32 L 6189.34,7822.74 L 6179.34,7805.42 L 6199.34,7805.42 L 6609.11,8042 Z " />
<path stroke="transparent" fill="#000000" transform="matrix(0.0666667 0 0 0.0666667 -266.433 -391.433)" d="M 6592.9,7555.1 L 6602.9,7572.42 L 6199.34,7805.42 L 6179.34,7805.42 L 6179.34,7793.87 L 6592.9,7555.1 Z " />
</svg>
