<?xml version="1.0" standalone="no" ?>
<!DOCTYPE svg PUBLIC "-//W3C//DTD SVG 1.1//EN" "http://www.w3.org/Graphics/SVG/1.1/DTD/svg11.dtd">
<svg width="183px" height="89px" viewBox="0 0 183 89" xmlns="http://www.w3.org/2000/svg" xmlns:xlink="http://www.w3.org/1999/xlink" version="1.1" >
<text x="0" y="0" stroke="transparent" fill="#000000" transform="matrix(0.0666667 0 0 0.0666667 67.5026 21.4824)" style="font:normal normal normal 200px 'Arial'" >
O</text>
<text x="0" y="0" stroke="transparent" fill="#000000" transform="matrix(0.0666667 0 0 0.0666667 67.5026 85.4821)" style="font:normal normal normal 200px 'Arial'" >
O</text>
<text x="0" y="0" stroke="transparent" fill="#000000" transform="matrix(0.0666667 0 0 0.0666667 3.50286 53.4823)" style="font:normal normal normal 200px 'Arial'" >
O</text>
<path stroke="transparent" fill="#000000" transform="matrix(0.0666667 0 0 0.0666667 -268.433 -442.433)" d="M 6720.96,6931.54 L 6713.08,6949.93 L 6158.42,6712.21 L 6155.67,6689.27 L 6720.96,6931.54 Z " />
<path stroke="transparent" fill="#000000" transform="matrix(0.0666667 0 0 0.0666667 -268.433 -442.433)" d="M 5687.05,7065.74 L 5677.05,7060.74 L 5675.18,7049.63 L 6155.67,6689.27 L 6158.42,6712.21 L 5687.05,7065.74 Z " />
<path stroke="transparent" fill="#000000" transform="matrix(0.0666667 0 0 0.0666667 -268.433 -442.433)" d="M 5687.05,7668.03 L 5667.05,7653.45 L 5667.05,7068.03 L 5677.05,7060.74 L 5687.05,7065.74 L 5687.05,7668.03 Z " />
<path stroke="transparent" fill="#000000" transform="matrix(0.0666667 0 0 0.0666667 -268.433 -442.433)" d="M 5220.86,6924.61 L 5226.98,6905.57 L 5675.18,7049.63 L 5677.05,7060.74 L 5667.05,7068.03 L 5220.86,6924.61 Z " />
<path stroke="transparent" fill="#000000" transform="matrix(0.0666667 0 0 0.0666667 -268.433 -442.433)" d="M 5222.06,7817.48 L 5215.94,7798.44 L 5667.05,7653.45 L 5687.05,7668.03 L 5222.06,7817.48 Z " />
<path stroke="transparent" fill="#000000" transform="matrix(0.0666667 0 0 0.0666667 -268.433 -442.433)" d="M 4769.54,7360.73 L 4744.54,7360.73 L 5037.12,6970.63 L 5053.12,6982.63 L 4769.54,7360.73 Z " />
<path stroke="transparent" fill="#000000" transform="matrix(0.0666667 0 0 0.0666667 -268.433 -442.433)" d="M 4744.54,7360.73 L 4769.54,7360.73 L 5061,7749.35 L 5045,7761.35 L 4744.54,7360.73 Z " />
<path stroke="transparent" fill="#000000" transform="matrix(0.0666667 0 0 0.0666667 -268.433 -442.433)" d="M 4265.04,7406.73 L 4265.04,7386.73 L 4784.04,7386.73 L 4784.04,7406.73 L 4265.04,7406.73 Z " />
<path stroke="transparent" fill="#000000" transform="matrix(0.0666667 0 0 0.0666667 -268.433 -442.433)" d="M 4265.04,7334.73 L 4265.04,7314.73 L 4784.04,7314.73 L 4784.04,7334.73 L 4265.04,7334.73 Z " />
</svg>
