<?xml version="1.0" standalone="no" ?>
<!DOCTYPE svg PUBLIC "-//W3C//DTD SVG 1.1//EN" "http://www.w3.org/Graphics/SVG/1.1/DTD/svg11.dtd">
<svg width="115px" height="93px" viewBox="0 0 115 93" xmlns="http://www.w3.org/2000/svg" xmlns:xlink="http://www.w3.org/1999/xlink" version="1.1" >
<text x="0" y="0" stroke="transparent" fill="#000000" transform="matrix(0.0666667 0 0 0.0666667 103.756 14.3429)" style="font:normal normal normal 200px 'Arial'" >
F</text>
<path stroke="transparent" fill="#000000" transform="matrix(0.0666667 0 0 0.0666667 -302.433 -433.433)" d="M 5644.22,7544.42 L 5624.22,7532.87 L 5624.22,6944.42 L 5634.22,6938.64 L 5644.22,6944.42 L 5644.22,7544.42 Z " />
<path stroke="transparent" fill="#000000" transform="matrix(0.0666667 0 0 0.0666667 -302.433 -433.433)" d="M 5114.61,7850.19 L 5114.61,7827.1 L 5624.22,7532.87 L 5644.22,7544.42 L 5114.61,7850.19 Z " />
<path stroke="transparent" fill="#000000" transform="matrix(0.0666667 0 0 0.0666667 -302.433 -433.433)" d="M 5119.61,7764.16 L 5109.61,7746.84 L 5557.22,7488.41 L 5567.22,7505.73 L 5119.61,7764.16 Z " />
<path stroke="transparent" fill="#000000" transform="matrix(0.0666667 0 0 0.0666667 -302.433 -433.433)" d="M 4584.99,7544.42 L 4604.99,7532.87 L 5114.61,7827.1 L 5114.61,7850.19 L 4584.99,7544.42 Z " />
<path stroke="transparent" fill="#000000" transform="matrix(0.0666667 0 0 0.0666667 -302.433 -433.433)" d="M 4584.99,6932.87 L 4604.99,6944.42 L 4604.99,7532.87 L 4584.99,7544.42 L 4584.99,6932.87 Z " />
<path stroke="transparent" fill="#000000" transform="matrix(0.0666667 0 0 0.0666667 -302.433 -433.433)" d="M 4656.99,6980.21 L 4676.99,6980.21 L 4676.99,7497.07 L 4656.99,7497.07 L 4656.99,6980.21 Z " />
<path stroke="transparent" fill="#000000" transform="matrix(0.0666667 0 0 0.0666667 -302.433 -433.433)" d="M 5114.61,6627.1 L 5114.61,6650.19 L 4604.99,6944.42 L 4584.99,6932.87 L 5114.61,6627.1 Z " />
<path stroke="transparent" fill="#000000" transform="matrix(0.0666667 0 0 0.0666667 -302.433 -433.433)" d="M 5114.61,6650.19 L 5114.61,6627.1 L 5634.22,6927.1 L 5634.22,6938.64 L 5624.22,6944.42 L 5114.61,6650.19 Z " />
<path stroke="transparent" fill="#000000" transform="matrix(0.0666667 0 0 0.0666667 -302.433 -433.433)" d="M 5109.61,6730.44 L 5119.61,6713.12 L 5567.22,6971.55 L 5557.22,6988.87 L 5109.61,6730.44 Z " />
<path stroke="transparent" fill="#000000" transform="matrix(0.0666667 0 0 0.0666667 -302.433 -433.433)" d="M 6047.78,6688.33 L 6057.78,6705.65 L 5644.22,6944.42 L 5634.22,6938.64 L 5634.22,6927.1 L 6047.78,6688.33 Z " />
</svg>
