<?xml version="1.0" standalone="no" ?>
<!DOCTYPE svg PUBLIC "-//W3C//DTD SVG 1.1//EN" "http://www.w3.org/Graphics/SVG/1.1/DTD/svg11.dtd">
<svg width="147px" height="88px" viewBox="0 0 147 88" xmlns="http://www.w3.org/2000/svg" xmlns:xlink="http://www.w3.org/1999/xlink" version="1.1" >
<path stroke="transparent" fill="#000000" transform="matrix(0.0666667 0 0 0.0666667 -286.433 -436.433)" d="M 6449.23,6894.23 L 6429.23,6905.77 L 5919.62,6611.55 L 5919.62,6588.45 L 6449.23,6894.23 Z " />
<path stroke="transparent" fill="#000000" transform="matrix(0.0666667 0 0 0.0666667 -286.433 -436.433)" d="M 6449.23,7505.77 L 6429.23,7494.23 L 6429.23,6905.77 L 6449.23,6894.23 L 6449.23,7505.77 Z " />
<path stroke="transparent" fill="#000000" transform="matrix(0.0666667 0 0 0.0666667 -286.433 -436.433)" d="M 5919.62,7811.55 L 5919.62,7788.45 L 6429.23,7494.23 L 6449.23,7505.77 L 5919.62,7811.55 Z " />
<path stroke="transparent" fill="#000000" transform="matrix(0.0666667 0 0 0.0666667 -286.433 -436.433)" d="M 5400,7511.55 L 5400,7500 L 5410,7494.23 L 5919.62,7788.45 L 5919.62,7811.55 L 5400,7511.55 Z " />
<path stroke="transparent" fill="#000000" transform="matrix(0.0666667 0 0 0.0666667 -286.433 -436.433)" d="M 4880.38,7811.55 L 4880.38,7788.45 L 5390,7494.23 L 5400,7500 L 5400,7511.55 L 4880.38,7811.55 Z " />
<path stroke="transparent" fill="#000000" transform="matrix(0.0666667 0 0 0.0666667 -286.433 -436.433)" d="M 4350.77,7505.77 L 4370.77,7494.23 L 4880.38,7788.45 L 4880.38,7811.55 L 4350.77,7505.77 Z " />
<path stroke="transparent" fill="#000000" transform="matrix(0.0666667 0 0 0.0666667 -286.433 -436.433)" d="M 4350.77,6894.23 L 4370.77,6905.77 L 4370.77,7494.23 L 4350.77,7505.77 L 4350.77,6894.23 Z " />
<path stroke="transparent" fill="#000000" transform="matrix(0.0666667 0 0 0.0666667 -286.433 -436.433)" d="M 4880.38,6588.45 L 4880.38,6611.55 L 4370.77,6905.77 L 4350.77,6894.23 L 4880.38,6588.45 Z " />
<path stroke="transparent" fill="#000000" transform="matrix(0.0666667 0 0 0.0666667 -286.433 -436.433)" d="M 5400,6888.45 L 5400,6900 L 5390,6905.77 L 4880.38,6611.55 L 4880.38,6588.45 L 5400,6888.45 Z " />
<path stroke="transparent" fill="#000000" transform="matrix(0.0666667 0 0 0.0666667 -286.433 -436.433)" d="M 5410,6905.77 L 5400,6900 L 5400,6888.45 L 5919.62,6588.45 L 5919.62,6611.55 L 5410,6905.77 Z " />
<path stroke="transparent" fill="#000000" transform="matrix(0.0666667 0 0 0.0666667 -286.433 -436.433)" d="M 5390,6905.77 L 5400,6900 L 5410,6905.77 L 5410,7494.23 L 5400,7500 L 5390,7494.23 L 5390,6905.77 Z " />
</svg>
