<?xml version="1.0" standalone="no" ?>
<!DOCTYPE svg PUBLIC "-//W3C//DTD SVG 1.1//EN" "http://www.w3.org/Graphics/SVG/1.1/DTD/svg11.dtd">
<svg width="185px" height="165px" viewBox="0 0 185 165" xmlns="http://www.w3.org/2000/svg" xmlns:xlink="http://www.w3.org/1999/xlink" version="1.1" >
<text x="0" y="0" stroke="transparent" fill="#000000" transform="matrix(0.0666667 0 0 0.0666667 137.77 158.17)" style="font:normal normal normal 200px 'Arial'" >
O</text>
<text x="0" y="0" stroke="transparent" fill="#000000" transform="matrix(0.0666667 0 0 0.0666667 125.409 55.406)" style="font:normal normal normal 200px 'Arial'" >
O</text>
<text x="0" y="0" stroke="transparent" fill="#000000" transform="matrix(0.0666667 0 0 0.0666667 87.7667 27.7667)" style="font:normal normal normal 200px 'Arial'" >
H</text>
<text x="0" y="0" stroke="transparent" fill="#000000" transform="matrix(0.0666667 0 0 0.0666667 87.7666 147.767)" style="font:normal normal normal 200px 'Arial'" >
H</text>
<text x="0" y="0" stroke="transparent" fill="#000000" transform="matrix(0.0666667 0 0 0.0666667 49.3244 120.127)" style="font:normal normal normal 200px 'Arial'" >
O</text>
<text x="0" y="0" stroke="transparent" fill="#000000" transform="matrix(0.0666667 0 0 0.0666667 36.9637 17.3637)" style="font:normal normal normal 200px 'Arial'" >
O</text>
<path stroke="transparent" fill="#000000" transform="matrix(0.0666667 0 0 0.0666667 -267.433 -397.433)" d="M 6180.37,8136.74 L 6066.24,8173.82 L 6062.22,8154.1 L 6172.03,8118.42 L 6180.37,8136.74 Z " />
<path stroke="transparent" fill="#000000" transform="matrix(0.0666667 0 0 0.0666667 -267.433 -397.433)" d="M 6155.34,8081.78 L 6054.18,8114.65 L 6050.16,8094.92 L 6147,8063.46 L 6155.34,8081.78 Z " />
<path stroke="transparent" fill="#000000" transform="matrix(0.0666667 0 0 0.0666667 -267.433 -397.433)" d="M 6130.31,8026.82 L 6042.12,8055.47 L 6038.11,8035.75 L 6121.97,8008.5 L 6130.31,8026.82 Z " />
<path stroke="transparent" fill="#000000" transform="matrix(0.0666667 0 0 0.0666667 -267.433 -397.433)" d="M 6105.29,7971.85 L 6030.07,7996.29 L 6026.05,7976.57 L 6096.94,7953.53 L 6105.29,7971.85 Z " />
<path stroke="transparent" fill="#000000" transform="matrix(0.0666667 0 0 0.0666667 -267.433 -397.433)" d="M 6080.26,7916.89 L 6018.01,7937.12 L 6013.99,7917.39 L 6071.92,7898.57 L 6080.26,7916.89 Z " />
<path stroke="transparent" fill="#000000" transform="matrix(0.0666667 0 0 0.0666667 -267.433 -397.433)" d="M 6055.23,7861.93 L 6005.95,7877.94 L 6001.93,7858.22 L 6046.89,7843.61 L 6055.23,7861.93 Z " />
<path stroke="transparent" fill="#000000" transform="matrix(0.0666667 0 0 0.0666667 -267.433 -397.433)" d="M 6030.2,7806.96 L 5993.89,7818.76 L 5989.87,7799.04 L 6021.86,7788.65 L 6030.2,7806.96 Z " />
<path stroke="transparent" fill="#000000" transform="matrix(0.0666667 0 0 0.0666667 -267.433 -397.433)" d="M 6005.17,7752 L 5981.83,7759.59 L 5977.81,7739.86 L 5996.83,7733.68 L 6005.17,7752 Z " />
<path stroke="transparent" fill="#000000" transform="matrix(0.0666667 0 0 0.0666667 -267.433 -397.433)" d="M 6310.94,7200 L 6335.67,7200 L 5974.45,7697.17 L 5966.81,7673.65 L 6310.94,7200 Z " />
<path stroke="transparent" fill="#000000" transform="matrix(0.0666667 0 0 0.0666667 -267.433 -397.433)" d="M 6033.3,6817.85 L 6049.48,6806.1 L 6335.67,7200 L 6310.94,7200 L 6033.3,6817.85 Z " />
<path stroke="transparent" fill="#000000" transform="matrix(0.0666667 0 0 0.0666667 -267.433 -397.433)" d="M 5410,6907.27 L 5400,6900 L 5400,6889.49 L 5861.06,6739.68 L 5867.24,6758.7 L 5410,6907.27 Z " />
<path stroke="transparent" fill="#000000" transform="matrix(0.0666667 0 0 0.0666667 -267.433 -397.433)" d="M 5340,6417.17 L 5460,6417.17 L 5457.67,6437.17 L 5342.33,6437.17 L 5340,6417.17 Z " />
<path stroke="transparent" fill="#000000" transform="matrix(0.0666667 0 0 0.0666667 -267.433 -397.433)" d="M 5346.81,6475.56 L 5453.19,6475.56 L 5450.86,6495.56 L 5349.14,6495.56 L 5346.81,6475.56 Z " />
<path stroke="transparent" fill="#000000" transform="matrix(0.0666667 0 0 0.0666667 -267.433 -397.433)" d="M 5353.62,6533.95 L 5446.38,6533.95 L 5444.05,6553.95 L 5355.95,6553.95 L 5353.62,6533.95 Z " />
<path stroke="transparent" fill="#000000" transform="matrix(0.0666667 0 0 0.0666667 -267.433 -397.433)" d="M 5360.43,6592.34 L 5439.57,6592.34 L 5437.24,6612.34 L 5362.76,6612.34 L 5360.43,6592.34 Z " />
<path stroke="transparent" fill="#000000" transform="matrix(0.0666667 0 0 0.0666667 -267.433 -397.433)" d="M 5367.24,6650.73 L 5432.76,6650.73 L 5430.43,6670.73 L 5369.57,6670.73 L 5367.24,6650.73 Z " />
<path stroke="transparent" fill="#000000" transform="matrix(0.0666667 0 0 0.0666667 -267.433 -397.433)" d="M 5374.05,6709.12 L 5425.95,6709.12 L 5423.62,6729.12 L 5376.38,6729.12 L 5374.05,6709.12 Z " />
<path stroke="transparent" fill="#000000" transform="matrix(0.0666667 0 0 0.0666667 -267.433 -397.433)" d="M 5380.86,6767.52 L 5419.14,6767.52 L 5416.81,6787.52 L 5383.19,6787.52 L 5380.86,6767.52 Z " />
<path stroke="transparent" fill="#000000" transform="matrix(0.0666667 0 0 0.0666667 -267.433 -397.433)" d="M 5387.67,6825.91 L 5412.33,6825.91 L 5410,6845.91 L 5390,6845.91 L 5387.67,6825.91 Z " />
<path stroke="transparent" fill="#000000" transform="matrix(0.0666667 0 0 0.0666667 -267.433 -397.433)" d="M 5410,7492.73 L 5400,7500 L 5390,7492.73 L 5390,6907.27 L 5400,6900 L 5410,6907.27 L 5410,7492.73 Z " />
<path stroke="transparent" fill="#000000" transform="matrix(0.0666667 0 0 0.0666667 -267.433 -397.433)" d="M 5400,7510.51 L 5400,7500 L 5410,7492.73 L 5966.81,7673.65 L 5974.45,7697.17 L 5400,7510.51 Z " />
<path stroke="transparent" fill="#000000" transform="matrix(0.0666667 0 0 0.0666667 -267.433 -397.433)" d="M 5460,7997.17 L 5340,7997.17 L 5342.26,7977.17 L 5457.74,7977.17 L 5460,7997.17 Z " />
<path stroke="transparent" fill="#000000" transform="matrix(0.0666667 0 0 0.0666667 -267.433 -397.433)" d="M 5453.18,7936.72 L 5346.82,7936.72 L 5349.08,7916.72 L 5450.92,7916.72 L 5453.18,7936.72 Z " />
<path stroke="transparent" fill="#000000" transform="matrix(0.0666667 0 0 0.0666667 -267.433 -397.433)" d="M 5446.36,7876.27 L 5353.64,7876.27 L 5355.9,7856.27 L 5444.1,7856.27 L 5446.36,7876.27 Z " />
<path stroke="transparent" fill="#000000" transform="matrix(0.0666667 0 0 0.0666667 -267.433 -397.433)" d="M 5439.54,7815.82 L 5360.46,7815.82 L 5362.72,7795.82 L 5437.28,7795.82 L 5439.54,7815.82 Z " />
<path stroke="transparent" fill="#000000" transform="matrix(0.0666667 0 0 0.0666667 -267.433 -397.433)" d="M 5432.72,7755.37 L 5367.28,7755.37 L 5369.54,7735.37 L 5430.46,7735.37 L 5432.72,7755.37 Z " />
<path stroke="transparent" fill="#000000" transform="matrix(0.0666667 0 0 0.0666667 -267.433 -397.433)" d="M 5425.9,7694.92 L 5374.1,7694.92 L 5376.36,7674.92 L 5423.64,7674.92 L 5425.9,7694.92 Z " />
<path stroke="transparent" fill="#000000" transform="matrix(0.0666667 0 0 0.0666667 -267.433 -397.433)" d="M 5419.08,7634.47 L 5380.92,7634.47 L 5383.18,7614.47 L 5416.82,7614.47 L 5419.08,7634.47 Z " />
<path stroke="transparent" fill="#000000" transform="matrix(0.0666667 0 0 0.0666667 -267.433 -397.433)" d="M 5412.26,7574.02 L 5387.74,7574.02 L 5390,7554.02 L 5410,7554.02 L 5412.26,7574.02 Z " />
<path stroke="transparent" fill="#000000" transform="matrix(0.0666667 0 0 0.0666667 -267.433 -397.433)" d="M 4934.31,7661.83 L 4928.13,7642.8 L 5390,7492.73 L 5400,7500 L 5400,7510.51 L 4934.31,7661.83 Z " />
<path stroke="transparent" fill="#000000" transform="matrix(0.0666667 0 0 0.0666667 -267.433 -397.433)" d="M 4464.33,7200 L 4489.06,7200 L 4774.71,7593.17 L 4758.53,7604.93 L 4464.33,7200 Z " />
<path stroke="transparent" fill="#000000" transform="matrix(0.0666667 0 0 0.0666667 -267.433 -397.433)" d="M 4817.92,6713.33 L 4829.37,6714.59 L 4833.19,6726.35 L 4489.06,7200 L 4464.33,7200 L 4817.92,6713.33 Z " />
<path stroke="transparent" fill="#000000" transform="matrix(0.0666667 0 0 0.0666667 -267.433 -397.433)" d="M 4833.19,6726.35 L 4829.37,6714.59 L 4837.88,6706.84 L 5400,6889.49 L 5400,6900 L 5390,6907.27 L 4833.19,6726.35 Z " />
<path stroke="transparent" fill="#000000" transform="matrix(0.0666667 0 0 0.0666667 -267.433 -397.433)" d="M 4624.53,6278.33 L 4738.66,6241.25 L 4837.88,6706.84 L 4829.37,6714.59 L 4817.92,6713.33 L 4624.53,6278.33 Z " />
<path stroke="transparent" fill="#000000" transform="matrix(0.0666667 0 0 0.0666667 -267.433 -397.433)" d="M 6745.01,8371.01 L 6740.85,8390.57 L 6262.51,8288.9 L 6266.67,8269.33 L 6745.01,8371.01 Z " />
<path stroke="transparent" fill="#000000" transform="matrix(0.0666667 0 0 0.0666667 -267.433 -397.433)" d="M 4054.99,6028.99 L 4059.15,6009.43 L 4541.29,6111.91 L 4537.13,6131.47 L 4054.99,6028.99 Z " />
</svg>
