<?xml version="1.0" standalone="no" ?>
<!DOCTYPE svg PUBLIC "-//W3C//DTD SVG 1.1//EN" "http://www.w3.org/Graphics/SVG/1.1/DTD/svg11.dtd">
<svg width="145px" height="67px" viewBox="0 0 145 67" xmlns="http://www.w3.org/2000/svg" xmlns:xlink="http://www.w3.org/1999/xlink" version="1.1" >
<path stroke="transparent" fill="#000000" transform="matrix(0.0666667 0 0 0.0666667 -287.433 -446.433)" d="M 5929.62,7326.91 L 5919.62,7344.23 L 5909.62,7338.45 L 5909.62,6744.23 L 5929.62,6744.23 L 5929.62,7326.91 Z " />
<path stroke="transparent" fill="#000000" transform="matrix(0.0666667 0 0 0.0666667 -287.433 -446.433)" d="M 5400,7655.77 L 5400,7632.68 L 5909.62,7338.45 L 5919.62,7344.23 L 5919.62,7355.77 L 5400,7655.77 Z " />
<path stroke="transparent" fill="#000000" transform="matrix(0.0666667 0 0 0.0666667 -287.433 -446.433)" d="M 4880.38,7355.77 L 4880.38,7344.23 L 4890.38,7338.45 L 5400,7632.68 L 5400,7655.77 L 4880.38,7355.77 Z " />
<path stroke="transparent" fill="#000000" transform="matrix(0.0666667 0 0 0.0666667 -287.433 -446.433)" d="M 4365.77,7652.89 L 4355.77,7635.57 L 4870.38,7338.45 L 4880.38,7344.23 L 4880.38,7355.77 L 4365.77,7652.89 Z " />
<path stroke="transparent" fill="#000000" transform="matrix(0.0666667 0 0 0.0666667 -287.433 -446.433)" d="M 4870.38,6744.23 L 4890.38,6744.23 L 4890.38,7338.45 L 4880.38,7344.23 L 4870.38,7338.45 L 4870.38,6744.23 Z " />
<path stroke="transparent" fill="#000000" transform="matrix(0.0666667 0 0 0.0666667 -287.433 -446.433)" d="M 6434.23,7035.57 L 6444.23,7052.89 L 5939.62,7344.23 L 5919.62,7344.23 L 5929.62,7326.91 L 6434.23,7035.57 Z " />
<path stroke="transparent" fill="#000000" transform="matrix(0.0666667 0 0 0.0666667 -287.433 -446.433)" d="M 6444.23,7635.57 L 6434.23,7652.89 L 5919.62,7355.77 L 5919.62,7344.23 L 5939.62,7344.23 L 6444.23,7635.57 Z " />
</svg>
