<?xml version="1.0" standalone="no" ?>
<!DOCTYPE svg PUBLIC "-//W3C//DTD SVG 1.1//EN" "http://www.w3.org/Graphics/SVG/1.1/DTD/svg11.dtd">
<svg width="145px" height="117px" viewBox="0 0 145 117" xmlns="http://www.w3.org/2000/svg" xmlns:xlink="http://www.w3.org/1999/xlink" version="1.1" >
<text x="0" y="0" stroke="transparent" fill="#000000" transform="matrix(0.0666667 0 0 0.0666667 32.7256 114.139)" style="font:normal normal normal 200px 'Arial'" >
OH</text>
<text x="0" y="0" stroke="transparent" fill="#000000" transform="matrix(0.0666667 0 0 0.0666667 67.3667 14.1389)" style="font:normal normal normal 200px 'Arial'" >
O</text>
<text x="0" y="0" stroke="transparent" fill="#000000" transform="matrix(0.0666667 0 0 0.0666667 102.008 74.1389)" style="font:normal normal normal 200px 'Arial'" >
O</text>
<path stroke="transparent" fill="#000000" transform="matrix(0.0666667 0 0 0.0666667 -287.433 -421.433)" d="M 4890.38,7361.36 L 4880.38,7355.58 L 4880.38,7344.04 L 5400,7044.04 L 5400,7067.13 L 4890.38,7361.36 Z " />
<path stroke="transparent" fill="#000000" transform="matrix(0.0666667 0 0 0.0666667 -287.433 -421.433)" d="M 4890.38,7850.42 L 4870.38,7850.42 L 4870.38,7361.36 L 4880.38,7355.58 L 4890.38,7361.36 L 4890.38,7850.42 Z " />
<path stroke="transparent" fill="#000000" transform="matrix(0.0666667 0 0 0.0666667 -287.433 -421.433)" d="M 4355.77,7064.24 L 4365.77,7046.92 L 4880.38,7344.04 L 4880.38,7355.58 L 4870.38,7361.36 L 4355.77,7064.24 Z " />
<path stroke="transparent" fill="#000000" transform="matrix(0.0666667 0 0 0.0666667 -287.433 -421.433)" d="M 5354,6575.42 L 5374,6575.42 L 5374,7076.37 L 5354,7076.37 L 5354,6575.42 Z " />
<path stroke="transparent" fill="#000000" transform="matrix(0.0666667 0 0 0.0666667 -287.433 -421.433)" d="M 5426,6575.42 L 5446,6575.42 L 5446,7076.37 L 5426,7076.37 L 5426,6575.42 Z " />
<path stroke="transparent" fill="#000000" transform="matrix(0.0666667 0 0 0.0666667 -287.433 -421.433)" d="M 5832,7293.45 L 5822,7310.77 L 5400,7067.13 L 5400,7044.04 L 5832,7293.45 Z " />
<path stroke="transparent" fill="#000000" transform="matrix(0.0666667 0 0 0.0666667 -287.433 -421.433)" d="M 6434.23,7046.92 L 6444.23,7064.24 L 6017.23,7310.77 L 6007.23,7293.45 L 6434.23,7046.92 Z " />
</svg>
