<?xml version="1.0" standalone="no" ?>
<!DOCTYPE svg PUBLIC "-//W3C//DTD SVG 1.1//EN" "http://www.w3.org/Graphics/SVG/1.1/DTD/svg11.dtd">
<svg width="145px" height="77px" viewBox="0 0 145 77" xmlns="http://www.w3.org/2000/svg" xmlns:xlink="http://www.w3.org/1999/xlink" version="1.1" >
<text x="0" y="0" stroke="transparent" fill="#000000" transform="matrix(0.0666667 0 0 0.0666667 67.3667 14.1389)" style="font:normal normal normal 200px 'Arial'" >
O</text>
<text x="0" y="0" stroke="transparent" fill="#000000" transform="matrix(0.0666667 0 0 0.0666667 102.008 74.1389)" style="font:normal normal normal 200px 'Arial'" >
O</text>
<path stroke="transparent" fill="#000000" transform="matrix(0.0666667 0 0 0.0666667 -287.433 -441.433)" d="M 4880.38,7667.13 L 4880.38,7644.04 L 5400,7344.04 L 5400,7367.13 L 4880.38,7667.13 Z " />
<path stroke="transparent" fill="#000000" transform="matrix(0.0666667 0 0 0.0666667 -287.433 -441.433)" d="M 4355.77,7364.24 L 4365.77,7346.92 L 4880.38,7644.04 L 4880.38,7667.13 L 4355.77,7364.24 Z " />
<path stroke="transparent" fill="#000000" transform="matrix(0.0666667 0 0 0.0666667 -287.433 -441.433)" d="M 5354,6875.42 L 5374,6875.42 L 5374,7376.37 L 5354,7376.37 L 5354,6875.42 Z " />
<path stroke="transparent" fill="#000000" transform="matrix(0.0666667 0 0 0.0666667 -287.433 -441.433)" d="M 5426,6875.42 L 5446,6875.42 L 5446,7376.37 L 5426,7376.37 L 5426,6875.42 Z " />
<path stroke="transparent" fill="#000000" transform="matrix(0.0666667 0 0 0.0666667 -287.433 -441.433)" d="M 5832,7593.45 L 5822,7610.77 L 5400,7367.13 L 5400,7344.04 L 5832,7593.45 Z " />
<path stroke="transparent" fill="#000000" transform="matrix(0.0666667 0 0 0.0666667 -287.433 -441.433)" d="M 6434.23,7346.92 L 6444.23,7364.24 L 6017.23,7610.77 L 6007.23,7593.45 L 6434.23,7346.92 Z " />
</svg>
