<?xml version="1.0" standalone="no" ?>
<!DOCTYPE svg PUBLIC "-//W3C//DTD SVG 1.1//EN" "http://www.w3.org/Graphics/SVG/1.1/DTD/svg11.dtd">
<svg width="319px" height="117px" viewBox="0 0 319 117" xmlns="http://www.w3.org/2000/svg" xmlns:xlink="http://www.w3.org/1999/xlink" version="1.1" >
<text x="0" y="0" stroke="transparent" fill="#000000" transform="matrix(0.0666667 0 0 0.0666667 67.7641 114.139)" style="font:normal normal normal 200px 'Arial'" >
O</text>
<text x="0" y="0" stroke="transparent" fill="#000000" transform="matrix(0.0666667 0 0 0.0666667 33.1231 54.1389)" style="font:normal normal normal 200px 'Arial'" >
O</text>
<text x="0" y="0" stroke="transparent" fill="#000000" transform="matrix(0.0666667 0 0 0.0666667 240.969 14.1389)" style="font:normal normal normal 200px 'Arial'" >
O</text>
<text x="0" y="0" stroke="transparent" fill="#000000" transform="matrix(0.0666667 0 0 0.0666667 275.61 74.1389)" style="font:normal normal normal 200px 'Arial'" >
O</text>
<path stroke="transparent" fill="#000000" transform="matrix(0.0666667 0 0 0.0666667 -200.433 -421.433)" d="M 4620.58,7044.04 L 4620.58,7067.13 L 4100.96,7367.13 L 4100.96,7344.04 L 4620.58,7044.04 Z " />
<path stroke="transparent" fill="#000000" transform="matrix(0.0666667 0 0 0.0666667 -200.433 -421.433)" d="M 5140.19,7344.04 L 5140.19,7367.13 L 4620.58,7067.13 L 4620.58,7044.04 L 5140.19,7344.04 Z " />
<path stroke="transparent" fill="#000000" transform="matrix(0.0666667 0 0 0.0666667 -200.433 -421.433)" d="M 5659.81,7044.04 L 5659.81,7067.13 L 5140.19,7367.13 L 5140.19,7344.04 L 5659.81,7044.04 Z " />
<path stroke="transparent" fill="#000000" transform="matrix(0.0666667 0 0 0.0666667 -200.433 -421.433)" d="M 6179.42,7344.04 L 6179.42,7367.13 L 5659.81,7067.13 L 5659.81,7044.04 L 6179.42,7344.04 Z " />
<path stroke="transparent" fill="#000000" transform="matrix(0.0666667 0 0 0.0666667 -200.433 -421.433)" d="M 6699.04,7044.04 L 6699.04,7067.13 L 6179.42,7367.13 L 6179.42,7344.04 L 6699.04,7044.04 Z " />
<path stroke="transparent" fill="#000000" transform="matrix(0.0666667 0 0 0.0666667 -200.433 -421.433)" d="M 4146.96,7850.42 L 4126.96,7850.42 L 4126.96,7334.8 L 4146.96,7334.8 L 4146.96,7850.42 Z " />
<path stroke="transparent" fill="#000000" transform="matrix(0.0666667 0 0 0.0666667 -200.433 -421.433)" d="M 4074.96,7850.42 L 4054.96,7850.42 L 4054.96,7334.8 L 4074.96,7334.8 L 4074.96,7850.42 Z " />
<path stroke="transparent" fill="#000000" transform="matrix(0.0666667 0 0 0.0666667 -200.433 -421.433)" d="M 3676.38,7122 L 3686.38,7104.68 L 4100.96,7344.04 L 4100.96,7367.13 L 3676.38,7122 Z " />
<path stroke="transparent" fill="#000000" transform="matrix(0.0666667 0 0 0.0666667 -200.433 -421.433)" d="M 6653.04,6575.42 L 6673.04,6575.42 L 6673.04,7076.37 L 6653.04,7076.37 L 6653.04,6575.42 Z " />
<path stroke="transparent" fill="#000000" transform="matrix(0.0666667 0 0 0.0666667 -200.433 -421.433)" d="M 6725.04,6575.42 L 6745.04,6575.42 L 6745.04,7076.37 L 6725.04,7076.37 L 6725.04,6575.42 Z " />
<path stroke="transparent" fill="#000000" transform="matrix(0.0666667 0 0 0.0666667 -200.433 -421.433)" d="M 7131.03,7293.45 L 7121.03,7310.77 L 6699.04,7067.13 L 6699.04,7044.04 L 7131.03,7293.45 Z " />
<path stroke="transparent" fill="#000000" transform="matrix(0.0666667 0 0 0.0666667 -200.433 -421.433)" d="M 3066.73,7364.24 L 3056.73,7346.92 L 3476.74,7104.43 L 3486.74,7121.75 L 3066.73,7364.24 Z " />
<path stroke="transparent" fill="#000000" transform="matrix(0.0666667 0 0 0.0666667 -200.433 -421.433)" d="M 7733.27,7046.92 L 7743.27,7064.24 L 7316.27,7310.77 L 7306.27,7293.45 L 7733.27,7046.92 Z " />
</svg>
