<?xml version="1.0" standalone="no" ?>
<!DOCTYPE svg PUBLIC "-//W3C//DTD SVG 1.1//EN" "http://www.w3.org/Graphics/SVG/1.1/DTD/svg11.dtd">
<svg width="249px" height="77px" viewBox="0 0 249 77" xmlns="http://www.w3.org/2000/svg" xmlns:xlink="http://www.w3.org/1999/xlink" version="1.1" >
<text x="0" y="0" stroke="transparent" fill="#000000" transform="matrix(0.0666667 0 0 0.0666667 32.7641 14.1389)" style="font:normal normal normal 200px 'Arial'" >
O</text>
<text x="0" y="0" stroke="transparent" fill="#000000" transform="matrix(0.0666667 0 0 0.0666667 67.4051 74.1389)" style="font:normal normal normal 200px 'Arial'" >
O</text>
<path stroke="transparent" fill="#000000" transform="matrix(0.0666667 0 0 0.0666667 -235.433 -441.433)" d="M 3586.35,7664.24 L 3576.35,7646.92 L 4100.96,7344.04 L 4100.96,7367.13 L 3586.35,7664.24 Z " />
<path stroke="transparent" fill="#000000" transform="matrix(0.0666667 0 0 0.0666667 -235.433 -441.433)" d="M 4054.96,6875.42 L 4074.96,6875.42 L 4074.96,7376.37 L 4054.96,7376.37 L 4054.96,6875.42 Z " />
<path stroke="transparent" fill="#000000" transform="matrix(0.0666667 0 0 0.0666667 -235.433 -441.433)" d="M 4126.96,6875.42 L 4146.96,6875.42 L 4146.96,7376.37 L 4126.96,7376.37 L 4126.96,6875.42 Z " />
<path stroke="transparent" fill="#000000" transform="matrix(0.0666667 0 0 0.0666667 -235.433 -441.433)" d="M 4532.96,7593.45 L 4522.96,7610.77 L 4100.96,7367.13 L 4100.96,7344.04 L 4532.96,7593.45 Z " />
<path stroke="transparent" fill="#000000" transform="matrix(0.0666667 0 0 0.0666667 -235.433 -441.433)" d="M 5659.81,7644.04 L 5659.81,7667.13 L 5140.19,7367.13 L 5140.19,7344.04 L 5659.81,7644.04 Z " />
<path stroke="transparent" fill="#000000" transform="matrix(0.0666667 0 0 0.0666667 -235.433 -441.433)" d="M 6179.42,7344.04 L 6179.42,7367.13 L 5659.81,7667.13 L 5659.81,7644.04 L 6179.42,7344.04 Z " />
<path stroke="transparent" fill="#000000" transform="matrix(0.0666667 0 0 0.0666667 -235.433 -441.433)" d="M 6699.04,7644.04 L 6699.04,7667.13 L 6179.42,7367.13 L 6179.42,7344.04 L 6699.04,7644.04 Z " />
<path stroke="transparent" fill="#000000" transform="matrix(0.0666667 0 0 0.0666667 -235.433 -441.433)" d="M 7213.65,7346.92 L 7223.65,7364.24 L 6699.04,7667.13 L 6699.04,7644.04 L 7213.65,7346.92 Z " />
<path stroke="transparent" fill="#000000" transform="matrix(0.0666667 0 0 0.0666667 -235.433 -441.433)" d="M 5140.19,7344.04 L 5140.19,7367.13 L 4718.2,7610.77 L 4708.2,7593.45 L 5140.19,7344.04 Z " />
</svg>
