<?xml version="1.0" standalone="no" ?>
<!DOCTYPE svg PUBLIC "-//W3C//DTD SVG 1.1//EN" "http://www.w3.org/Graphics/SVG/1.1/DTD/svg11.dtd">
<svg width="145px" height="113px" viewBox="0 0 145 113" xmlns="http://www.w3.org/2000/svg" xmlns:xlink="http://www.w3.org/1999/xlink" version="1.1" >
<text x="0" y="0" stroke="transparent" fill="#000000" transform="matrix(0.0666667 0 0 0.0666667 33.1256 74.8055)" style="font:normal normal normal 200px 'Arial'" >
N</text>
<text x="0" y="0" stroke="transparent" fill="#000000" transform="matrix(0.0666667 0 0 0.0666667 67.3667 14.8055)" style="font:normal normal normal 200px 'Arial'" >
O</text>
<text x="0" y="0" stroke="transparent" fill="#000000" transform="matrix(0.0666667 0 0 0.0666667 102.408 74.8055)" style="font:normal normal normal 200px 'Arial'" >
N</text>
<path stroke="transparent" fill="#000000" transform="matrix(0.0666667 0 0 0.0666667 -287.433 -423.433)" d="M 5400,7084.04 L 5400,7107.13 L 4989.23,7344.29 L 4979.23,7326.97 L 5400,7084.04 Z " />
<path stroke="transparent" fill="#000000" transform="matrix(0.0666667 0 0 0.0666667 -287.433 -423.433)" d="M 5354,6615.42 L 5374,6615.42 L 5374,7116.37 L 5354,7116.37 L 5354,6615.42 Z " />
<path stroke="transparent" fill="#000000" transform="matrix(0.0666667 0 0 0.0666667 -287.433 -423.433)" d="M 5426,6615.42 L 5446,6615.42 L 5446,7116.37 L 5426,7116.37 L 5426,6615.42 Z " />
<path stroke="transparent" fill="#000000" transform="matrix(0.0666667 0 0 0.0666667 -287.433 -423.433)" d="M 5820.77,7326.97 L 5810.77,7344.29 L 5400,7107.13 L 5400,7084.04 L 5820.77,7326.97 Z " />
<path stroke="transparent" fill="#000000" transform="matrix(0.0666667 0 0 0.0666667 -287.433 -423.433)" d="M 4890.38,7995.58 L 4870.38,7995.58 L 4870.38,7512.75 L 4890.38,7512.75 L 4890.38,7995.58 Z " />
<path stroke="transparent" fill="#000000" transform="matrix(0.0666667 0 0 0.0666667 -287.433 -423.433)" d="M 4355.77,7104.24 L 4365.77,7086.92 L 4781.54,7326.97 L 4771.54,7344.29 L 4355.77,7104.24 Z " />
<path stroke="transparent" fill="#000000" transform="matrix(0.0666667 0 0 0.0666667 -287.433 -423.433)" d="M 6434.23,7086.92 L 6444.23,7104.24 L 6028.46,7344.29 L 6018.46,7326.97 L 6434.23,7086.92 Z " />
<path stroke="transparent" fill="#000000" transform="matrix(0.0666667 0 0 0.0666667 -287.433 -423.433)" d="M 5929.62,7995.58 L 5909.62,7995.58 L 5909.62,7512.75 L 5929.62,7512.75 L 5929.62,7995.58 Z " />
</svg>
