<?xml version="1.0" standalone="no" ?>
<!DOCTYPE svg PUBLIC "-//W3C//DTD SVG 1.1//EN" "http://www.w3.org/Graphics/SVG/1.1/DTD/svg11.dtd">
<svg width="145px" height="73px" viewBox="0 0 145 73" xmlns="http://www.w3.org/2000/svg" xmlns:xlink="http://www.w3.org/1999/xlink" version="1.1" >
<text x="0" y="0" stroke="transparent" fill="#000000" transform="matrix(0.0666667 0 0 0.0666667 67.3666 14.8111)" style="font:normal normal normal 200px 'Arial'" >
O</text>
<path stroke="transparent" fill="#000000" transform="matrix(0.0666667 0 0 0.0666667 -287.433 -450.433)" d="M 5919.73,7188.96 L 5919.73,7200.5 L 5909.73,7206.28 L 5495.05,6967.05 L 5505.05,6949.72 L 5919.73,7188.96 Z " />
<path stroke="transparent" fill="#000000" transform="matrix(0.0666667 0 0 0.0666667 -287.433 -450.433)" d="M 4880.31,7212.05 L 4880.31,7188.96 L 5295.38,6949.48 L 5305.38,6966.8 L 4880.31,7212.05 Z " />
<path stroke="transparent" fill="#000000" transform="matrix(0.0666667 0 0 0.0666667 -287.433 -450.433)" d="M 5929.73,7800.5 L 5909.73,7800.5 L 5909.73,7206.28 L 5919.73,7200.5 L 5929.73,7217.82 L 5929.73,7800.5 Z " />
<path stroke="transparent" fill="#000000" transform="matrix(0.0666667 0 0 0.0666667 -287.433 -450.433)" d="M 6444.33,7491.84 L 6434.33,7509.16 L 5929.73,7217.82 L 5919.73,7200.5 L 5939.73,7200.5 L 6444.33,7491.84 Z " />
<path stroke="transparent" fill="#000000" transform="matrix(0.0666667 0 0 0.0666667 -287.433 -450.433)" d="M 6434.42,6892 L 6444.42,6909.33 L 5939.73,7200.5 L 5919.73,7200.5 L 5919.73,7188.96 L 6434.42,6892 Z " />
<path stroke="transparent" fill="#000000" transform="matrix(0.0666667 0 0 0.0666667 -287.433 -450.433)" d="M 4355.58,6909.33 L 4365.58,6892 L 4880.31,7188.96 L 4880.31,7212.05 L 4355.58,6909.33 Z " />
</svg>
