<?xml version="1.0" standalone="no" ?>
<!DOCTYPE svg PUBLIC "-//W3C//DTD SVG 1.1//EN" "http://www.w3.org/Graphics/SVG/1.1/DTD/svg11.dtd">
<svg width="91px" height="77px" viewBox="0 0 91 77" xmlns="http://www.w3.org/2000/svg" xmlns:xlink="http://www.w3.org/1999/xlink" version="1.1" >
<text x="0" y="0" stroke="transparent" fill="#000000" transform="matrix(0.0666667 0 0 0.0666667 33.1189 14.1389)" style="font:normal normal normal 200px 'Arial'" >
O</text>
<text x="0" y="0" stroke="transparent" fill="#000000" transform="matrix(0.0666667 0 0 0.0666667 67.7599 74.1389)" style="font:normal normal normal 200px 'Arial'" >
OH</text>
<path stroke="transparent" fill="#000000" transform="matrix(0.0666667 0 0 0.0666667 -314.433 -441.433)" d="M 4776.67,7664.24 L 4766.67,7646.92 L 5291.28,7344.04 L 5291.28,7367.13 L 4776.67,7664.24 Z " />
<path stroke="transparent" fill="#000000" transform="matrix(0.0666667 0 0 0.0666667 -314.433 -441.433)" d="M 5245.28,6875.42 L 5265.28,6875.42 L 5265.28,7376.37 L 5245.28,7376.37 L 5245.28,6875.42 Z " />
<path stroke="transparent" fill="#000000" transform="matrix(0.0666667 0 0 0.0666667 -314.433 -441.433)" d="M 5317.28,6875.42 L 5337.28,6875.42 L 5337.28,7376.37 L 5317.28,7376.37 L 5317.28,6875.42 Z " />
<path stroke="transparent" fill="#000000" transform="matrix(0.0666667 0 0 0.0666667 -314.433 -441.433)" d="M 5723.28,7593.45 L 5713.28,7610.77 L 5291.28,7367.13 L 5291.28,7344.04 L 5723.28,7593.45 Z " />
</svg>
