<?xml version="1.0" standalone="no" ?>
<!DOCTYPE svg PUBLIC "-//W3C//DTD SVG 1.1//EN" "http://www.w3.org/Graphics/SVG/1.1/DTD/svg11.dtd">
<svg width="215px" height="87px" viewBox="0 0 215 87" xmlns="http://www.w3.org/2000/svg" xmlns:xlink="http://www.w3.org/1999/xlink" version="1.1" >
<text x="0" y="0" stroke="transparent" fill="#000000" transform="matrix(0.0666667 0 0 0.0666667 103.133 49.1389)" style="font:normal normal normal 200px 'Arial'" >
S</text>
<text x="0" y="0" stroke="transparent" fill="#000000" transform="matrix(0.0666667 0 0 0.0666667 82.3667 14.4979)" style="font:normal normal normal 200px 'Arial'" >
O</text>
<text x="0" y="0" stroke="transparent" fill="#000000" transform="matrix(0.0666667 0 0 0.0666667 122.367 83.7799)" style="font:normal normal normal 200px 'Arial'" >
O</text>
<text x="0" y="0" stroke="transparent" fill="#000000" transform="matrix(0.0666667 0 0 0.0666667 137.008 29.1389)" style="font:normal normal normal 200px 'Arial'" >
O</text>
<text x="0" y="0" stroke="transparent" fill="#000000" transform="matrix(0.0666667 0 0 0.0666667 67.7256 69.1389)" style="font:normal normal normal 200px 'Arial'" >
O</text>
<path stroke="transparent" fill="#000000" transform="matrix(0.0666667 0 0 0.0666667 -252.433 -436.433)" d="M 5120.7,6813.82 L 5138.02,6803.82 L 5324.17,7126.24 L 5306.85,7136.24 L 5120.7,6813.82 Z " />
<path stroke="transparent" fill="#000000" transform="matrix(0.0666667 0 0 0.0666667 -252.433 -436.433)" d="M 5183.05,6777.82 L 5200.37,6767.82 L 5386.53,7090.24 L 5369.2,7100.24 L 5183.05,6777.82 Z " />
<path stroke="transparent" fill="#000000" transform="matrix(0.0666667 0 0 0.0666667 -252.433 -436.433)" d="M 5686.58,7609.96 L 5669.26,7619.96 L 5483.61,7298.4 L 5500.93,7288.4 L 5686.58,7609.96 Z " />
<path stroke="transparent" fill="#000000" transform="matrix(0.0666667 0 0 0.0666667 -252.433 -436.433)" d="M 5624.23,7645.96 L 5606.91,7655.96 L 5421.26,7334.4 L 5438.58,7324.4 L 5624.23,7645.96 Z " />
<path stroke="transparent" fill="#000000" transform="matrix(0.0666667 0 0 0.0666667 -252.433 -436.433)" d="M 5815.01,6954.43 L 5825.01,6971.75 L 5492.89,7163.5 L 5482.89,7146.18 L 5815.01,6954.43 Z " />
<path stroke="transparent" fill="#000000" transform="matrix(0.0666667 0 0 0.0666667 -252.433 -436.433)" d="M 4978,7460.77 L 4968,7443.45 L 5297.33,7253.32 L 5307.33,7270.64 L 4978,7460.77 Z " />
<path stroke="transparent" fill="#000000" transform="matrix(0.0666667 0 0 0.0666667 -252.433 -436.433)" d="M 6953.85,6896.92 L 6963.85,6914.24 L 6439.23,7217.13 L 6439.23,7194.04 L 6953.85,6896.92 Z " />
<path stroke="transparent" fill="#000000" transform="matrix(0.0666667 0 0 0.0666667 -252.433 -436.433)" d="M 6439.23,7194.04 L 6439.23,7217.13 L 6014.65,6972 L 6024.65,6954.68 L 6439.23,7194.04 Z " />
<path stroke="transparent" fill="#000000" transform="matrix(0.0666667 0 0 0.0666667 -252.433 -436.433)" d="M 3846.15,7514.24 L 3836.15,7496.92 L 4360.77,7194.04 L 4360.77,7217.13 L 3846.15,7514.24 Z " />
<path stroke="transparent" fill="#000000" transform="matrix(0.0666667 0 0 0.0666667 -252.433 -436.433)" d="M 4360.77,7217.13 L 4360.77,7194.04 L 4792.77,7443.45 L 4782.77,7460.77 L 4360.77,7217.13 Z " />
</svg>
