<?xml version="1.0" standalone="no" ?>
<!DOCTYPE svg PUBLIC "-//W3C//DTD SVG 1.1//EN" "http://www.w3.org/Graphics/SVG/1.1/DTD/svg11.dtd">
<svg width="73px" height="79px" viewBox="0 0 73 79" xmlns="http://www.w3.org/2000/svg" xmlns:xlink="http://www.w3.org/1999/xlink" version="1.1" >
<text x="0" y="0" stroke="transparent" fill="#000000" transform="matrix(0.0666667 0 0 0.0666667 51.3667 14.362)" style="font:normal normal normal 200px 'Arial'" >
O</text>
<text x="0" y="0" stroke="transparent" fill="#000000" transform="matrix(0.0666667 0 0 0.0666667 31.3667 75.9157)" style="font:normal normal normal 200px 'Arial'" >
O</text>
<path stroke="transparent" fill="#000000" transform="matrix(0.0666667 0 0 0.0666667 -323.433 -440.433)" d="M 5897.17,7318.38 L 5873.65,7310.74 L 5728.13,6862.86 L 5747.15,6856.68 L 5897.17,7318.38 Z " />
<path stroke="transparent" fill="#000000" transform="matrix(0.0666667 0 0 0.0666667 -323.433 -440.433)" d="M 5492.39,7612.47 L 5480.63,7596.29 L 5873.65,7310.74 L 5897.17,7318.38 L 5492.39,7612.47 Z " />
<path stroke="transparent" fill="#000000" transform="matrix(0.0666667 0 0 0.0666667 -323.433 -440.433)" d="M 4902.83,7318.38 L 4926.35,7310.74 L 5319.37,7596.29 L 5307.61,7612.47 L 4902.83,7318.38 Z " />
<path stroke="transparent" fill="#000000" transform="matrix(0.0666667 0 0 0.0666667 -323.433 -440.433)" d="M 5092.73,6733.93 L 5107.27,6753.93 L 4926.35,7310.74 L 4902.83,7318.38 L 5092.73,6733.93 Z " />
<path stroke="transparent" fill="#000000" transform="matrix(0.0666667 0 0 0.0666667 -323.433 -440.433)" d="M 5107.27,6753.93 L 5092.73,6733.93 L 5592,6733.93 L 5592,6753.93 L 5107.27,6753.93 Z " />
</svg>
