<?xml version="1.0" standalone="no" ?>
<!DOCTYPE svg PUBLIC "-//W3C//DTD SVG 1.1//EN" "http://www.w3.org/Graphics/SVG/1.1/DTD/svg11.dtd">
<svg width="77px" height="73px" viewBox="0 0 77 73" xmlns="http://www.w3.org/2000/svg" xmlns:xlink="http://www.w3.org/1999/xlink" version="1.1" >
<text x="0" y="0" stroke="transparent" fill="#000000" transform="matrix(0.0666667 0 0 0.0666667 33.3667 14.5169)" style="font:normal normal normal 200px 'Arial'" >
O</text>
<path stroke="transparent" fill="#000000" transform="matrix(0.0666667 0 0 0.0666667 -321.433 -443.433)" d="M 5400,7402.8 L 5400,7379.71 L 5924.62,7682.59 L 5914.62,7699.91 L 5400,7402.8 Z " />
<path stroke="transparent" fill="#000000" transform="matrix(0.0666667 0 0 0.0666667 -321.433 -443.433)" d="M 5354,6911.09 L 5374,6911.09 L 5374,7412.04 L 5354,7412.04 L 5354,6911.09 Z " />
<path stroke="transparent" fill="#000000" transform="matrix(0.0666667 0 0 0.0666667 -321.433 -443.433)" d="M 5426,6911.09 L 5446,6911.09 L 5446,7412.04 L 5426,7412.04 L 5426,6911.09 Z " />
<path stroke="transparent" fill="#000000" transform="matrix(0.0666667 0 0 0.0666667 -321.433 -443.433)" d="M 4885.38,7699.91 L 4875.38,7682.59 L 5400,7379.71 L 5400,7402.8 L 4885.38,7699.91 Z " />
</svg>
