<?xml version="1.0" standalone="no" ?>
<!DOCTYPE svg PUBLIC "-//W3C//DTD SVG 1.1//EN" "http://www.w3.org/Graphics/SVG/1.1/DTD/svg11.dtd">
<svg width="388px" height="117px" viewBox="0 0 388 117" xmlns="http://www.w3.org/2000/svg" xmlns:xlink="http://www.w3.org/1999/xlink" version="1.1" >
<text x="0" y="0" stroke="transparent" fill="#000000" transform="matrix(0.0666667 0 0 0.0666667 101.764 114.139)" style="font:normal normal normal 200px 'Arial'" >
O</text>
<text x="0" y="0" stroke="transparent" fill="#000000" transform="matrix(0.0666667 0 0 0.0666667 67.1231 54.1389)" style="font:normal normal normal 200px 'Arial'" >
O</text>
<text x="0" y="0" stroke="transparent" fill="#000000" transform="matrix(0.0666667 0 0 0.0666667 274.969 14.1389)" style="font:normal normal normal 200px 'Arial'" >
O</text>
<text x="0" y="0" stroke="transparent" fill="#000000" transform="matrix(0.0666667 0 0 0.0666667 309.61 74.1389)" style="font:normal normal normal 200px 'Arial'" >
O</text>
<path stroke="transparent" fill="#000000" transform="matrix(0.0666667 0 0 0.0666667 -166.433 -421.433)" d="M 4620.58,7044.04 L 4620.58,7067.13 L 4100.96,7367.13 L 4100.96,7344.04 L 4620.58,7044.04 Z " />
<path stroke="transparent" fill="#000000" transform="matrix(0.0666667 0 0 0.0666667 -166.433 -421.433)" d="M 5140.19,7344.04 L 5140.19,7367.13 L 4620.58,7067.13 L 4620.58,7044.04 L 5140.19,7344.04 Z " />
<path stroke="transparent" fill="#000000" transform="matrix(0.0666667 0 0 0.0666667 -166.433 -421.433)" d="M 5659.81,7044.04 L 5659.81,7067.13 L 5140.19,7367.13 L 5140.19,7344.04 L 5659.81,7044.04 Z " />
<path stroke="transparent" fill="#000000" transform="matrix(0.0666667 0 0 0.0666667 -166.433 -421.433)" d="M 6179.42,7344.04 L 6179.42,7367.13 L 5659.81,7067.13 L 5659.81,7044.04 L 6179.42,7344.04 Z " />
<path stroke="transparent" fill="#000000" transform="matrix(0.0666667 0 0 0.0666667 -166.433 -421.433)" d="M 6699.04,7044.04 L 6699.04,7067.13 L 6179.42,7367.13 L 6179.42,7344.04 L 6699.04,7044.04 Z " />
<path stroke="transparent" fill="#000000" transform="matrix(0.0666667 0 0 0.0666667 -166.433 -421.433)" d="M 4146.96,7850.42 L 4126.96,7850.42 L 4126.96,7334.8 L 4146.96,7334.8 L 4146.96,7850.42 Z " />
<path stroke="transparent" fill="#000000" transform="matrix(0.0666667 0 0 0.0666667 -166.433 -421.433)" d="M 4074.96,7850.42 L 4054.96,7850.42 L 4054.96,7334.8 L 4074.96,7334.8 L 4074.96,7850.42 Z " />
<path stroke="transparent" fill="#000000" transform="matrix(0.0666667 0 0 0.0666667 -166.433 -421.433)" d="M 3676.38,7122 L 3686.38,7104.68 L 4100.96,7344.04 L 4100.96,7367.13 L 3676.38,7122 Z " />
<path stroke="transparent" fill="#000000" transform="matrix(0.0666667 0 0 0.0666667 -166.433 -421.433)" d="M 6653.04,6575.42 L 6673.04,6575.42 L 6673.04,7076.37 L 6653.04,7076.37 L 6653.04,6575.42 Z " />
<path stroke="transparent" fill="#000000" transform="matrix(0.0666667 0 0 0.0666667 -166.433 -421.433)" d="M 6725.04,6575.42 L 6745.04,6575.42 L 6745.04,7076.37 L 6725.04,7076.37 L 6725.04,6575.42 Z " />
<path stroke="transparent" fill="#000000" transform="matrix(0.0666667 0 0 0.0666667 -166.433 -421.433)" d="M 7131.03,7293.45 L 7121.03,7310.77 L 6699.04,7067.13 L 6699.04,7044.04 L 7131.03,7293.45 Z " />
<path stroke="transparent" fill="#000000" transform="matrix(0.0666667 0 0 0.0666667 -166.433 -421.433)" d="M 3071.73,7955.58 L 3051.73,7955.58 L 3051.73,7361.36 L 3061.73,7355.58 L 3071.73,7361.36 L 3071.73,7955.58 Z " />
<path stroke="transparent" fill="#000000" transform="matrix(0.0666667 0 0 0.0666667 -166.433 -421.433)" d="M 2537.12,7064.24 L 2547.12,7046.92 L 3061.73,7344.04 L 3061.73,7355.58 L 3051.73,7361.36 L 2537.12,7064.24 Z " />
<path stroke="transparent" fill="#000000" transform="matrix(0.0666667 0 0 0.0666667 -166.433 -421.433)" d="M 3071.73,7361.36 L 3061.73,7355.58 L 3061.73,7344.04 L 3476.74,7104.43 L 3486.74,7121.75 L 3071.73,7361.36 Z " />
<path stroke="transparent" fill="#000000" transform="matrix(0.0666667 0 0 0.0666667 -166.433 -421.433)" d="M 7728.27,6455.58 L 7748.27,6455.58 L 7748.27,7049.81 L 7738.27,7055.58 L 7728.27,7049.81 L 7728.27,6455.58 Z " />
<path stroke="transparent" fill="#000000" transform="matrix(0.0666667 0 0 0.0666667 -166.433 -421.433)" d="M 8262.88,7346.92 L 8252.88,7364.24 L 7738.27,7067.13 L 7738.27,7055.58 L 7748.27,7049.81 L 8262.88,7346.92 Z " />
<path stroke="transparent" fill="#000000" transform="matrix(0.0666667 0 0 0.0666667 -166.433 -421.433)" d="M 7728.27,7049.81 L 7738.27,7055.58 L 7738.27,7067.13 L 7316.27,7310.77 L 7306.27,7293.45 L 7728.27,7049.81 Z " />
</svg>
