<?xml version="1.0" standalone="no" ?>
<!DOCTYPE svg PUBLIC "-//W3C//DTD SVG 1.1//EN" "http://www.w3.org/Graphics/SVG/1.1/DTD/svg11.dtd">
<svg width="195px" height="33px" viewBox="0 0 195 33" xmlns="http://www.w3.org/2000/svg" xmlns:xlink="http://www.w3.org/1999/xlink" version="1.1" >
<text x="0" y="0" stroke="transparent" fill="#000000" transform="matrix(0.0666667 0 0 0.0666667 3.383 29.4849)" style="font:normal normal normal 200px 'Arial'" >
HO</text>
<path stroke="transparent" fill="#000000" transform="matrix(0.0666667 0 0 0.0666667 -262.433 -463.433)" d="M 5248.91,7304.23 L 5248.91,7327.32 L 4729.29,7027.32 L 4729.29,7004.23 L 5248.91,7304.23 Z " />
<path stroke="transparent" fill="#000000" transform="matrix(0.0666667 0 0 0.0666667 -262.433 -463.433)" d="M 5768.52,7004.23 L 5768.52,7027.32 L 5248.91,7327.32 L 5248.91,7304.23 L 5768.52,7004.23 Z " />
<path stroke="transparent" fill="#000000" transform="matrix(0.0666667 0 0 0.0666667 -262.433 -463.433)" d="M 6288.14,7304.23 L 6288.14,7327.32 L 5768.52,7027.32 L 5768.52,7004.23 L 6288.14,7304.23 Z " />
<path stroke="transparent" fill="#000000" transform="matrix(0.0666667 0 0 0.0666667 -262.433 -463.433)" d="M 6802.75,7007.11 L 6812.75,7024.43 L 6288.14,7327.32 L 6288.14,7304.23 L 6802.75,7007.11 Z " />
<path stroke="transparent" fill="#000000" transform="matrix(0.0666667 0 0 0.0666667 -262.433 -463.433)" d="M 4307.29,7270.96 L 4297.29,7253.64 L 4729.29,7004.23 L 4729.29,7027.32 L 4307.29,7270.96 Z " />
</svg>
