<?xml version="1.0" standalone="no" ?>
<!DOCTYPE svg PUBLIC "-//W3C//DTD SVG 1.1//EN" "http://www.w3.org/Graphics/SVG/1.1/DTD/svg11.dtd">
<svg width="77px" height="88px" viewBox="0 0 77 88" xmlns="http://www.w3.org/2000/svg" xmlns:xlink="http://www.w3.org/1999/xlink" version="1.1" >
<path stroke="transparent" fill="#000000" transform="matrix(0.0666667 0 0 0.0666667 -321.433 -436.433)" d="M 5400,7811.55 L 5400,7788.45 L 5909.62,7494.23 L 5929.62,7505.77 L 5400,7811.55 Z " />
<path stroke="transparent" fill="#000000" transform="matrix(0.0666667 0 0 0.0666667 -321.433 -436.433)" d="M 4870.38,7505.77 L 4890.38,7494.23 L 5400,7788.45 L 5400,7811.55 L 4870.38,7505.77 Z " />
<path stroke="transparent" fill="#000000" transform="matrix(0.0666667 0 0 0.0666667 -321.433 -436.433)" d="M 4947.38,7467.09 L 4957.38,7449.77 L 5405,7708.2 L 5395,7725.52 L 4947.38,7467.09 Z " />
<path stroke="transparent" fill="#000000" transform="matrix(0.0666667 0 0 0.0666667 -321.433 -436.433)" d="M 4870.38,6894.23 L 4890.38,6905.77 L 4890.38,7494.23 L 4870.38,7505.77 L 4870.38,6894.23 Z " />
<path stroke="transparent" fill="#000000" transform="matrix(0.0666667 0 0 0.0666667 -321.433 -436.433)" d="M 5400,6588.45 L 5400,6611.55 L 4890.38,6905.77 L 4870.38,6894.23 L 5400,6588.45 Z " />
<path stroke="transparent" fill="#000000" transform="matrix(0.0666667 0 0 0.0666667 -321.433 -436.433)" d="M 5395,6674.48 L 5405,6691.8 L 4957.38,6950.23 L 4947.38,6932.91 L 5395,6674.48 Z " />
<path stroke="transparent" fill="#000000" transform="matrix(0.0666667 0 0 0.0666667 -321.433 -436.433)" d="M 5929.62,6894.23 L 5909.62,6905.77 L 5400,6611.55 L 5400,6588.45 L 5929.62,6894.23 Z " />
<path stroke="transparent" fill="#000000" transform="matrix(0.0666667 0 0 0.0666667 -321.433 -436.433)" d="M 5909.62,6905.77 L 5929.62,6894.23 L 5929.62,7505.77 L 5909.62,7494.23 L 5909.62,6905.77 Z " />
<path stroke="transparent" fill="#000000" transform="matrix(0.0666667 0 0 0.0666667 -321.433 -436.433)" d="M 5837.62,6941.57 L 5857.62,6941.57 L 5857.62,7458.43 L 5837.62,7458.43 L 5837.62,6941.57 Z " />
</svg>
