<?xml version="1.0" standalone="no" ?>
<!DOCTYPE svg PUBLIC "-//W3C//DTD SVG 1.1//EN" "http://www.w3.org/Graphics/SVG/1.1/DTD/svg11.dtd">
<svg width="116px" height="127px" viewBox="0 0 116 127" xmlns="http://www.w3.org/2000/svg" xmlns:xlink="http://www.w3.org/1999/xlink" version="1.1" >
<text x="0" y="0" stroke="transparent" fill="#000000" transform="matrix(0.0666667 0 0 0.0666667 67.83 29.1401)" style="font:normal normal normal 200px 'Arial'" >
N</text>
<text x="0" y="0" stroke="transparent" fill="#000000" transform="matrix(0.0666667 0 0 0.0666667 33.184 89.1519)" style="font:normal normal normal 200px 'Arial'" >
N</text>
<text x="0" y="0" stroke="transparent" fill="#000000" transform="matrix(0.0666667 0 0 0.0666667 102.039 89.1287)" style="font:normal normal normal 200px 'Arial'" >
O</text>
<path stroke="transparent" fill="#000000" transform="matrix(0.0666667 0 0 0.0666667 -302.433 -423.433)" d="M 5106.65,6422.31 L 5106.64,6399.22 L 5527.1,6641.98 L 5517.1,6659.3 L 5106.65,6422.31 Z " />
<path stroke="transparent" fill="#000000" transform="matrix(0.0666667 0 0 0.0666667 -302.433 -423.433)" d="M 4597.09,6716.71 L 4577.09,6705.17 L 5106.64,6399.22 L 5106.65,6422.31 L 4597.09,6716.71 Z " />
<path stroke="transparent" fill="#000000" transform="matrix(0.0666667 0 0 0.0666667 -302.433 -423.433)" d="M 4596.92,7305.17 L 4576.92,7316.72 L 4577.09,6705.17 L 4597.09,6716.71 L 4596.92,7305.17 Z " />
<path stroke="transparent" fill="#000000" transform="matrix(0.0666667 0 0 0.0666667 -302.433 -423.433)" d="M 5007.41,7542.16 L 4997.41,7559.48 L 4576.92,7316.72 L 4596.92,7305.17 L 5007.41,7542.16 Z " />
<path stroke="transparent" fill="#000000" transform="matrix(0.0666667 0 0 0.0666667 -302.433 -423.433)" d="M 5615.78,7304.83 L 5635.78,7316.37 L 5215.1,7559.44 L 5205.09,7542.12 L 5615.78,7304.83 Z " />
<path stroke="transparent" fill="#000000" transform="matrix(0.0666667 0 0 0.0666667 -302.433 -423.433)" d="M 5635.78,7316.37 L 5615.78,7304.83 L 5615.92,6827.76 L 5635.92,6827.77 L 5635.78,7316.37 Z " />
<path stroke="transparent" fill="#000000" transform="matrix(0.0666667 0 0 0.0666667 -302.433 -423.433)" d="M 6075.45,7517.14 L 6065.45,7534.46 L 5620.79,7277.72 L 5630.79,7260.4 L 6075.45,7517.14 Z " />
<path stroke="transparent" fill="#000000" transform="matrix(0.0666667 0 0 0.0666667 -302.433 -423.433)" d="M 6039.47,7579.45 L 6029.47,7596.77 L 5584.81,7340.04 L 5594.81,7322.72 L 6039.47,7579.45 Z " />
<path stroke="transparent" fill="#000000" transform="matrix(0.0666667 0 0 0.0666667 -302.433 -423.433)" d="M 6140.47,6401.76 L 6150.48,6419.08 L 5734.79,6659.26 L 5724.78,6641.95 L 6140.47,6401.76 Z " />
<path stroke="transparent" fill="#000000" transform="matrix(0.0666667 0 0 0.0666667 -302.433 -423.433)" d="M 5116.05,8210.78 L 5096.05,8210.77 L 5096.22,7727.94 L 5116.22,7727.95 L 5116.05,8210.78 Z " />
</svg>
