<?xml version="1.0" standalone="no" ?>
<!DOCTYPE svg PUBLIC "-//W3C//DTD SVG 1.1//EN" "http://www.w3.org/Graphics/SVG/1.1/DTD/svg11.dtd">
<svg width="91px" height="17px" viewBox="0 0 91 17" xmlns="http://www.w3.org/2000/svg" xmlns:xlink="http://www.w3.org/1999/xlink" version="1.1" >
<text x="0" y="0" stroke="transparent" fill="#000000" transform="matrix(0.0666667 0 0 0.0666667 3.16667 13.9944)" style="font:normal normal normal 200px 'Arial'" >
N</text>
<path stroke="transparent" fill="#000000" transform="matrix(0.0666667 0 0 0.0666667 -314.433 -471.433)" d="M 6036,7193.42 L 6036,7213.42 L 5436,7213.42 L 5436,7193.42 L 6036,7193.42 Z " />
<path stroke="transparent" fill="#000000" transform="matrix(0.0666667 0 0 0.0666667 -314.433 -471.433)" d="M 4932,7285.42 L 4932,7265.42 L 5436,7265.42 L 5436,7285.42 L 4932,7285.42 Z " />
<path stroke="transparent" fill="#000000" transform="matrix(0.0666667 0 0 0.0666667 -314.433 -471.433)" d="M 4932,7213.42 L 4932,7193.42 L 5436,7193.42 L 5436,7213.42 L 4932,7213.42 Z " />
<path stroke="transparent" fill="#000000" transform="matrix(0.0666667 0 0 0.0666667 -314.433 -471.433)" d="M 4932,7141.42 L 4932,7121.42 L 5436,7121.42 L 5436,7141.42 L 4932,7141.42 Z " />
</svg>
