<?xml version="1.0" standalone="no" ?>
<!DOCTYPE svg PUBLIC "-//W3C//DTD SVG 1.1//EN" "http://www.w3.org/Graphics/SVG/1.1/DTD/svg11.dtd">
<svg width="87px" height="93px" viewBox="0 0 87 93" xmlns="http://www.w3.org/2000/svg" xmlns:xlink="http://www.w3.org/1999/xlink" version="1.1" >
<text x="0" y="0" stroke="transparent" fill="#000000" transform="matrix(0.0666667 0 0 0.0666667 38.3667 14.8055)" style="font:normal normal normal 200px 'Arial'" >
OH</text>
<path stroke="transparent" fill="#000000" transform="matrix(0.0666667 0 0 0.0666667 -316.433 -433.433)" d="M 6000,7235.58 L 6000,7255.58 L 5410,7255.58 L 5400,7245.58 L 5410,7235.58 L 6000,7235.58 Z " />
<path stroke="transparent" fill="#000000" transform="matrix(0.0666667 0 0 0.0666667 -316.433 -433.433)" d="M 4800,7255.58 L 4800,7235.58 L 5390,7235.58 L 5400,7245.58 L 5390,7255.58 L 4800,7255.58 Z " />
<path stroke="transparent" fill="#000000" transform="matrix(0.0666667 0 0 0.0666667 -316.433 -433.433)" d="M 5410,7845.58 L 5390,7845.58 L 5390,7255.58 L 5400,7245.58 L 5410,7255.58 L 5410,7845.58 Z " />
<path stroke="transparent" fill="#000000" transform="matrix(0.0666667 0 0 0.0666667 -316.433 -433.433)" d="M 5390,6765.42 L 5410,6765.42 L 5410,7235.58 L 5400,7245.58 L 5390,7235.58 L 5390,6765.42 Z " />
</svg>
