<?xml version="1.0" standalone="no" ?>
<!DOCTYPE svg PUBLIC "-//W3C//DTD SVG 1.1//EN" "http://www.w3.org/Graphics/SVG/1.1/DTD/svg11.dtd">
<svg width="101px" height="97px" viewBox="0 0 101 97" xmlns="http://www.w3.org/2000/svg" xmlns:xlink="http://www.w3.org/1999/xlink" version="1.1" >
<text x="0" y="0" stroke="transparent" fill="#000000" transform="matrix(0.0666667 0 0 0.0666667 38.7189 54.1389)" style="font:normal normal normal 200px 'Arial'" >
S</text>
<text x="0" y="0" stroke="transparent" fill="#000000" transform="matrix(0.0666667 0 0 0.0666667 37.9522 94.1389)" style="font:normal normal normal 200px 'Arial'" >
O</text>
<text x="0" y="0" stroke="transparent" fill="#000000" transform="matrix(0.0666667 0 0 0.0666667 37.9522 14.1389)" style="font:normal normal normal 200px 'Arial'" >
O</text>
<text x="0" y="0" stroke="transparent" fill="#000000" transform="matrix(0.0666667 0 0 0.0666667 77.9522 54.1389)" style="font:normal normal normal 200px 'Arial'" >
OH</text>
<path stroke="transparent" fill="#000000" transform="matrix(0.0666667 0 0 0.0666667 -309.433 -431.433)" d="M 5334.78,7700.42 L 5314.78,7700.42 L 5314.78,7325.42 L 5334.78,7325.42 L 5334.78,7700.42 Z " />
<path stroke="transparent" fill="#000000" transform="matrix(0.0666667 0 0 0.0666667 -309.433 -431.433)" d="M 5262.78,7700.42 L 5242.78,7700.42 L 5242.78,7325.42 L 5262.78,7325.42 L 5262.78,7700.42 Z " />
<path stroke="transparent" fill="#000000" transform="matrix(0.0666667 0 0 0.0666667 -309.433 -431.433)" d="M 5242.78,6725.42 L 5262.78,6725.42 L 5262.78,7100.42 L 5242.78,7100.42 L 5242.78,6725.42 Z " />
<path stroke="transparent" fill="#000000" transform="matrix(0.0666667 0 0 0.0666667 -309.433 -431.433)" d="M 5314.78,6725.42 L 5334.78,6725.42 L 5334.78,7100.42 L 5314.78,7100.42 L 5314.78,6725.42 Z " />
<path stroke="transparent" fill="#000000" transform="matrix(0.0666667 0 0 0.0666667 -309.433 -431.433)" d="M 5780.78,7195.58 L 5780.78,7215.58 L 5384.28,7215.58 L 5384.28,7195.58 L 5780.78,7195.58 Z " />
<path stroke="transparent" fill="#000000" transform="matrix(0.0666667 0 0 0.0666667 -309.433 -431.433)" d="M 5192.28,7195.58 L 5192.28,7215.58 L 4688.78,7215.58 L 4688.78,7195.58 L 5192.28,7195.58 Z " />
</svg>
