<?xml version="1.0" standalone="no" ?>
<!DOCTYPE svg PUBLIC "-//W3C//DTD SVG 1.1//EN" "http://www.w3.org/Graphics/SVG/1.1/DTD/svg11.dtd">
<svg width="129px" height="77px" viewBox="0 0 129 77" xmlns="http://www.w3.org/2000/svg" xmlns:xlink="http://www.w3.org/1999/xlink" version="1.1" >
<text x="0" y="0" stroke="transparent" fill="#000000" transform="matrix(0.0666667 0 0 0.0666667 117.837 34.1278)" style="font:normal normal normal 200px 'Arial'" >
F</text>
<text x="0" y="0" stroke="transparent" fill="#000000" transform="matrix(0.0666667 0 0 0.0666667 83.196 14.1278)" style="font:normal normal normal 200px 'Arial'" >
F</text>
<text x="0" y="0" stroke="transparent" fill="#000000" transform="matrix(0.0666667 0 0 0.0666667 117.837 74.1278)" style="font:normal normal normal 200px 'Arial'" >
F</text>
<text x="0" y="0" stroke="transparent" fill="#000000" transform="matrix(0.0666667 0 0 0.0666667 3.15174 54.1278)" style="font:normal normal normal 200px 'Arial'" >
HO</text>
<path stroke="transparent" fill="#000000" transform="matrix(0.0666667 0 0 0.0666667 -295.433 -441.433)" d="M 5730.44,7349.64 L 5740.44,7355.42 L 5740.44,7366.96 L 5220.82,7666.96 L 5220.82,7643.87 L 5730.44,7349.64 Z " />
<path stroke="transparent" fill="#000000" transform="matrix(0.0666667 0 0 0.0666667 -295.433 -441.433)" d="M 6154,7105.1 L 6164,7122.42 L 5760.44,7355.42 L 5740.44,7355.42 L 5750.44,7338.1 L 6154,7105.1 Z " />
<path stroke="transparent" fill="#000000" transform="matrix(0.0666667 0 0 0.0666667 -295.433 -441.433)" d="M 5730.44,6872.58 L 5750.44,6872.58 L 5750.44,7338.1 L 5740.44,7355.42 L 5730.44,7349.64 L 5730.44,6872.58 Z " />
<path stroke="transparent" fill="#000000" transform="matrix(0.0666667 0 0 0.0666667 -295.433 -441.433)" d="M 6170.21,7592 L 6160.21,7609.32 L 5740.44,7366.96 L 5740.44,7355.42 L 5760.44,7355.42 L 6170.21,7592 Z " />
<path stroke="transparent" fill="#000000" transform="matrix(0.0666667 0 0 0.0666667 -295.433 -441.433)" d="M 4796.24,7421.83 L 4806.24,7404.51 L 5220.82,7643.87 L 5220.82,7666.96 L 4796.24,7421.83 Z " />
</svg>
