<?xml version="1.0" standalone="no" ?>
<!DOCTYPE svg PUBLIC "-//W3C//DTD SVG 1.1//EN" "http://www.w3.org/Graphics/SVG/1.1/DTD/svg11.dtd">
<svg width="125px" height="67px" viewBox="0 0 125 67" xmlns="http://www.w3.org/2000/svg" xmlns:xlink="http://www.w3.org/1999/xlink" version="1.1" >
<text x="0" y="0" stroke="transparent" fill="#000000" transform="matrix(0.0666667 0 0 0.0666667 3.02402 28.3818)" style="font:normal normal normal 200px 'Arial'" >
HO</text>
<path stroke="transparent" fill="#000000" transform="matrix(0.0666667 0 0 0.0666667 -297.433 -446.433)" d="M 5768.52,7632.68 L 5768.52,7655.77 L 5248.91,7355.77 L 5248.91,7344.23 L 5258.91,7338.45 L 5768.52,7632.68 Z " />
<path stroke="transparent" fill="#000000" transform="matrix(0.0666667 0 0 0.0666667 -297.433 -446.433)" d="M 6283.14,7335.57 L 6293.14,7352.89 L 5768.52,7655.77 L 5768.52,7632.68 L 6283.14,7335.57 Z " />
<path stroke="transparent" fill="#000000" transform="matrix(0.0666667 0 0 0.0666667 -297.433 -446.433)" d="M 5238.91,6744.23 L 5258.91,6744.23 L 5258.91,7338.45 L 5248.91,7344.23 L 5238.91,7326.91 L 5238.91,6744.23 Z " />
<path stroke="transparent" fill="#000000" transform="matrix(0.0666667 0 0 0.0666667 -297.433 -446.433)" d="M 4734.29,7652.89 L 4724.29,7635.57 L 5228.91,7344.23 L 5248.91,7344.23 L 5248.91,7355.77 L 4734.29,7652.89 Z " />
<path stroke="transparent" fill="#000000" transform="matrix(0.0666667 0 0 0.0666667 -297.433 -446.433)" d="M 4824.32,7110.64 L 4834.32,7093.32 L 5238.91,7326.91 L 5248.91,7344.23 L 5228.91,7344.23 L 4824.32,7110.64 Z " />
</svg>
