<?xml version="1.0" standalone="no" ?>
<!DOCTYPE svg PUBLIC "-//W3C//DTD SVG 1.1//EN" "http://www.w3.org/Graphics/SVG/1.1/DTD/svg11.dtd">
<svg width="129px" height="117px" viewBox="0 0 129 117" xmlns="http://www.w3.org/2000/svg" xmlns:xlink="http://www.w3.org/1999/xlink" version="1.1" >
<text x="0" y="0" stroke="transparent" fill="#000000" transform="matrix(0.0666667 0 0 0.0666667 71.306 14.2056)" style="font:normal normal normal 200px 'Arial'" >
O</text>
<text x="0" y="0" stroke="transparent" fill="#000000" transform="matrix(0.0666667 0 0 0.0666667 105.947 74.2056)" style="font:normal normal normal 200px 'Arial'" >
OH</text>
<text x="0" y="0" stroke="transparent" fill="#000000" transform="matrix(0.0666667 0 0 0.0666667 3.15735 94.2056)" style="font:normal normal normal 200px 'Arial'" >
F</text>
<text x="0" y="0" stroke="transparent" fill="#000000" transform="matrix(0.0666667 0 0 0.0666667 37.7984 114.206)" style="font:normal normal normal 200px 'Arial'" >
F</text>
<text x="0" y="0" stroke="transparent" fill="#000000" transform="matrix(0.0666667 0 0 0.0666667 3.15735 54.2056)" style="font:normal normal normal 200px 'Arial'" >
F</text>
<path stroke="transparent" fill="#000000" transform="matrix(0.0666667 0 0 0.0666667 -295.433 -421.433)" d="M 5069.48,7362.36 L 5059.48,7356.58 L 5059.48,7345.04 L 5579.09,7045.04 L 5579.09,7068.13 L 5069.48,7362.36 Z " />
<path stroke="transparent" fill="#000000" transform="matrix(0.0666667 0 0 0.0666667 -295.433 -421.433)" d="M 5533.09,6576.42 L 5553.09,6576.42 L 5553.09,7077.37 L 5533.09,7077.37 L 5533.09,6576.42 Z " />
<path stroke="transparent" fill="#000000" transform="matrix(0.0666667 0 0 0.0666667 -295.433 -421.433)" d="M 5605.09,6576.42 L 5625.09,6576.42 L 5625.09,7077.37 L 5605.09,7077.37 L 5605.09,6576.42 Z " />
<path stroke="transparent" fill="#000000" transform="matrix(0.0666667 0 0 0.0666667 -295.433 -421.433)" d="M 6011.09,7294.45 L 6001.09,7311.77 L 5579.09,7068.13 L 5579.09,7045.04 L 6011.09,7294.45 Z " />
<path stroke="transparent" fill="#000000" transform="matrix(0.0666667 0 0 0.0666667 -295.433 -421.433)" d="M 4644.96,7607.45 L 4634.96,7590.13 L 5039.48,7356.58 L 5059.48,7356.58 L 5049.48,7373.9 L 4644.96,7607.45 Z " />
<path stroke="transparent" fill="#000000" transform="matrix(0.0666667 0 0 0.0666667 -295.433 -421.433)" d="M 5069.48,7853.75 L 5049.48,7853.75 L 5049.48,7373.9 L 5059.48,7356.58 L 5069.48,7362.36 L 5069.48,7853.75 Z " />
<path stroke="transparent" fill="#000000" transform="matrix(0.0666667 0 0 0.0666667 -295.433 -421.433)" d="M 4606.39,7106.54 L 4616.39,7089.22 L 5059.48,7345.04 L 5059.48,7356.58 L 5039.48,7356.58 L 4606.39,7106.54 Z " />
</svg>
