<?xml version="1.0" standalone="no" ?>
<!DOCTYPE svg PUBLIC "-//W3C//DTD SVG 1.1//EN" "http://www.w3.org/Graphics/SVG/1.1/DTD/svg11.dtd">
<svg width="137px" height="117px" viewBox="0 0 137 117" xmlns="http://www.w3.org/2000/svg" xmlns:xlink="http://www.w3.org/1999/xlink" version="1.1" >
<text x="0" y="0" stroke="transparent" fill="#000000" transform="matrix(0.0666667 0 0 0.0666667 78.8349 14.1389)" style="font:normal normal normal 200px 'Arial'" >
O</text>
<text x="0" y="0" stroke="transparent" fill="#000000" transform="matrix(0.0666667 0 0 0.0666667 113.476 74.1389)" style="font:normal normal normal 200px 'Arial'" >
OH</text>
<text x="0" y="0" stroke="transparent" fill="#000000" transform="matrix(0.0666667 0 0 0.0666667 3.62845 94.1389)" style="font:normal normal normal 200px 'Arial'" >
Cl</text>
<text x="0" y="0" stroke="transparent" fill="#000000" transform="matrix(0.0666667 0 0 0.0666667 44.5939 114.139)" style="font:normal normal normal 200px 'Arial'" >
Cl</text>
<text x="0" y="0" stroke="transparent" fill="#000000" transform="matrix(0.0666667 0 0 0.0666667 3.62845 54.1389)" style="font:normal normal normal 200px 'Arial'" >
Cl</text>
<path stroke="transparent" fill="#000000" transform="matrix(0.0666667 0 0 0.0666667 -291.433 -421.433)" d="M 5122.41,7361.36 L 5112.41,7355.58 L 5112.41,7344.04 L 5632.02,7044.04 L 5632.02,7067.13 L 5122.41,7361.36 Z " />
<path stroke="transparent" fill="#000000" transform="matrix(0.0666667 0 0 0.0666667 -291.433 -421.433)" d="M 5586.02,6575.42 L 5606.02,6575.42 L 5606.02,7076.37 L 5586.02,7076.37 L 5586.02,6575.42 Z " />
<path stroke="transparent" fill="#000000" transform="matrix(0.0666667 0 0 0.0666667 -291.433 -421.433)" d="M 5658.02,6575.42 L 5678.02,6575.42 L 5678.02,7076.37 L 5658.02,7076.37 L 5658.02,6575.42 Z " />
<path stroke="transparent" fill="#000000" transform="matrix(0.0666667 0 0 0.0666667 -291.433 -421.433)" d="M 6064.02,7293.45 L 6054.02,7310.77 L 5632.02,7067.13 L 5632.02,7044.04 L 6064.02,7293.45 Z " />
<path stroke="transparent" fill="#000000" transform="matrix(0.0666667 0 0 0.0666667 -291.433 -421.433)" d="M 4664.27,7625.86 L 4654.27,7608.54 L 5092.41,7355.58 L 5112.41,7355.58 L 5102.41,7372.9 L 4664.27,7625.86 Z " />
<path stroke="transparent" fill="#000000" transform="matrix(0.0666667 0 0 0.0666667 -291.433 -421.433)" d="M 5122.41,7850.42 L 5102.41,7850.42 L 5102.41,7372.9 L 5112.41,7355.58 L 5122.41,7361.36 L 5122.41,7850.42 Z " />
<path stroke="transparent" fill="#000000" transform="matrix(0.0666667 0 0 0.0666667 -291.433 -421.433)" d="M 4654.56,7102.79 L 4664.56,7085.47 L 5112.41,7344.04 L 5112.41,7355.58 L 5092.41,7355.58 L 4654.56,7102.79 Z " />
</svg>
