<?xml version="1.0" standalone="no" ?>
<!DOCTYPE svg PUBLIC "-//W3C//DTD SVG 1.1//EN" "http://www.w3.org/Graphics/SVG/1.1/DTD/svg11.dtd">
<svg width="125px" height="67px" viewBox="0 0 125 67" xmlns="http://www.w3.org/2000/svg" xmlns:xlink="http://www.w3.org/1999/xlink" version="1.1" >
<text x="0" y="0" stroke="transparent" fill="#000000" transform="matrix(0.0666667 0 0 0.0666667 3.02402 48.3818)" style="font:normal normal normal 200px 'Arial'" >
HO</text>
<path stroke="transparent" fill="#000000" transform="matrix(0.0666667 0 0 0.0666667 -297.433 -446.433)" d="M 5758.52,7338.45 L 5768.52,7344.23 L 5768.52,7355.77 L 5248.91,7655.77 L 5248.91,7632.68 L 5758.52,7338.45 Z " />
<path stroke="transparent" fill="#000000" transform="matrix(0.0666667 0 0 0.0666667 -297.433 -446.433)" d="M 5758.52,6744.23 L 5778.52,6744.23 L 5778.52,7338.45 L 5768.52,7344.23 L 5758.52,7338.45 L 5758.52,6744.23 Z " />
<path stroke="transparent" fill="#000000" transform="matrix(0.0666667 0 0 0.0666667 -297.433 -446.433)" d="M 5768.52,7355.77 L 5768.52,7344.23 L 5778.52,7338.45 L 6293.14,7635.57 L 6283.14,7652.89 L 5768.52,7355.77 Z " />
<path stroke="transparent" fill="#000000" transform="matrix(0.0666667 0 0 0.0666667 -297.433 -446.433)" d="M 4824.32,7410.64 L 4834.32,7393.32 L 5248.91,7632.68 L 5248.91,7655.77 L 4824.32,7410.64 Z " />
</svg>
