<?xml version="1.0" standalone="no" ?>
<!DOCTYPE svg PUBLIC "-//W3C//DTD SVG 1.1//EN" "http://www.w3.org/Graphics/SVG/1.1/DTD/svg11.dtd">
<svg width="111px" height="73px" viewBox="0 0 111 73" xmlns="http://www.w3.org/2000/svg" xmlns:xlink="http://www.w3.org/1999/xlink" version="1.1" >
<text x="0" y="0" stroke="transparent" fill="#000000" transform="matrix(0.0666667 0 0 0.0666667 67.6872 14.4206)" style="font:normal normal normal 200px 'Arial'" >
O</text>
<path stroke="transparent" fill="#000000" transform="matrix(0.0666667 0 0 0.0666667 -304.433 -443.433)" d="M 5659.81,7401.36 L 5659.81,7378.26 L 6184.42,7681.15 L 6174.42,7698.47 L 5659.81,7401.36 Z " />
<path stroke="transparent" fill="#000000" transform="matrix(0.0666667 0 0 0.0666667 -304.433 -443.433)" d="M 5140.19,7701.36 L 5140.19,7678.26 L 5659.81,7378.26 L 5659.81,7401.36 L 5140.19,7701.36 Z " />
<path stroke="transparent" fill="#000000" transform="matrix(0.0666667 0 0 0.0666667 -304.433 -443.433)" d="M 4615.58,7398.47 L 4625.58,7381.15 L 5140.19,7678.26 L 5140.19,7701.36 L 4615.58,7398.47 Z " />
<path stroke="transparent" fill="#000000" transform="matrix(0.0666667 0 0 0.0666667 -304.433 -443.433)" d="M 5613.81,6909.64 L 5633.81,6909.64 L 5633.81,7410.59 L 5613.81,7410.59 L 5613.81,6909.64 Z " />
<path stroke="transparent" fill="#000000" transform="matrix(0.0666667 0 0 0.0666667 -304.433 -443.433)" d="M 5685.81,6909.64 L 5705.81,6909.64 L 5705.81,7410.59 L 5685.81,7410.59 L 5685.81,6909.64 Z " />
</svg>
