<?xml version="1.0" standalone="no" ?>
<!DOCTYPE svg PUBLIC "-//W3C//DTD SVG 1.1//EN" "http://www.w3.org/Graphics/SVG/1.1/DTD/svg11.dtd">
<svg width="111px" height="73px" viewBox="0 0 111 73" xmlns="http://www.w3.org/2000/svg" xmlns:xlink="http://www.w3.org/1999/xlink" version="1.1" >
<text x="0" y="0" stroke="transparent" fill="#000000" transform="matrix(0.0666667 0 0 0.0666667 33.0462 14.4206)" style="font:normal normal normal 200px 'Arial'" >
OH</text>
<path stroke="transparent" fill="#000000" transform="matrix(0.0666667 0 0 0.0666667 -304.433 -443.433)" d="M 5130.19,7384.04 L 5140.19,7389.81 L 5140.19,7401.36 L 4625.58,7698.47 L 4615.58,7681.15 L 5130.19,7384.04 Z " />
<path stroke="transparent" fill="#000000" transform="matrix(0.0666667 0 0 0.0666667 -304.433 -443.433)" d="M 5659.81,7678.26 L 5659.81,7701.36 L 5140.19,7401.36 L 5140.19,7389.81 L 5150.19,7384.04 L 5659.81,7678.26 Z " />
<path stroke="transparent" fill="#000000" transform="matrix(0.0666667 0 0 0.0666667 -304.433 -443.433)" d="M 6174.42,7381.15 L 6184.42,7398.47 L 5659.81,7701.36 L 5659.81,7678.26 L 6174.42,7381.15 Z " />
<path stroke="transparent" fill="#000000" transform="matrix(0.0666667 0 0 0.0666667 -304.433 -443.433)" d="M 5130.19,6909.64 L 5150.19,6909.64 L 5150.19,7384.04 L 5140.19,7389.81 L 5130.19,7384.04 L 5130.19,6909.64 Z " />
</svg>
