<?xml version="1.0" standalone="no" ?>
<!DOCTYPE svg PUBLIC "-//W3C//DTD SVG 1.1//EN" "http://www.w3.org/Graphics/SVG/1.1/DTD/svg11.dtd">
<svg width="125px" height="77px" viewBox="0 0 125 77" xmlns="http://www.w3.org/2000/svg" xmlns:xlink="http://www.w3.org/1999/xlink" version="1.1" >
<text x="0" y="0" stroke="transparent" fill="#000000" transform="matrix(0.0666667 0 0 0.0666667 67.4394 14.1389)" style="font:normal normal normal 200px 'Arial'" >
O</text>
<text x="0" y="0" stroke="transparent" fill="#000000" transform="matrix(0.0666667 0 0 0.0666667 102.08 74.1389)" style="font:normal normal normal 200px 'Arial'" >
OH</text>
<path stroke="transparent" fill="#000000" transform="matrix(0.0666667 0 0 0.0666667 -297.433 -441.433)" d="M 5031.48,7667.13 L 5031.48,7644.04 L 5551.09,7344.04 L 5551.09,7367.13 L 5031.48,7667.13 Z " />
<path stroke="transparent" fill="#000000" transform="matrix(0.0666667 0 0 0.0666667 -297.433 -441.433)" d="M 4506.86,7364.24 L 4516.86,7346.92 L 5031.48,7644.04 L 5031.48,7667.13 L 4506.86,7364.24 Z " />
<path stroke="transparent" fill="#000000" transform="matrix(0.0666667 0 0 0.0666667 -297.433 -441.433)" d="M 5505.09,6875.42 L 5525.09,6875.42 L 5525.09,7376.37 L 5505.09,7376.37 L 5505.09,6875.42 Z " />
<path stroke="transparent" fill="#000000" transform="matrix(0.0666667 0 0 0.0666667 -297.433 -441.433)" d="M 5577.09,6875.42 L 5597.09,6875.42 L 5597.09,7376.37 L 5577.09,7376.37 L 5577.09,6875.42 Z " />
<path stroke="transparent" fill="#000000" transform="matrix(0.0666667 0 0 0.0666667 -297.433 -441.433)" d="M 5983.09,7593.45 L 5973.09,7610.77 L 5551.09,7367.13 L 5551.09,7344.04 L 5983.09,7593.45 Z " />
</svg>
