<?xml version="1.0" standalone="no" ?>
<!DOCTYPE svg PUBLIC "-//W3C//DTD SVG 1.1//EN" "http://www.w3.org/Graphics/SVG/1.1/DTD/svg11.dtd">
<svg width="137px" height="77px" viewBox="0 0 137 77" xmlns="http://www.w3.org/2000/svg" xmlns:xlink="http://www.w3.org/1999/xlink" version="1.1" >
<text x="0" y="0" stroke="transparent" fill="#000000" transform="matrix(0.0666667 0 0 0.0666667 78.8349 14.1389)" style="font:normal normal normal 200px 'Arial'" >
O</text>
<text x="0" y="0" stroke="transparent" fill="#000000" transform="matrix(0.0666667 0 0 0.0666667 113.476 74.1389)" style="font:normal normal normal 200px 'Arial'" >
OH</text>
<text x="0" y="0" stroke="transparent" fill="#000000" transform="matrix(0.0666667 0 0 0.0666667 3.62845 54.1389)" style="font:normal normal normal 200px 'Arial'" >
Cl</text>
<path stroke="transparent" fill="#000000" transform="matrix(0.0666667 0 0 0.0666667 -291.433 -441.433)" d="M 5112.41,7667.13 L 5112.41,7644.04 L 5632.02,7344.04 L 5632.02,7367.13 L 5112.41,7667.13 Z " />
<path stroke="transparent" fill="#000000" transform="matrix(0.0666667 0 0 0.0666667 -291.433 -441.433)" d="M 5586.02,6875.42 L 5606.02,6875.42 L 5606.02,7376.37 L 5586.02,7376.37 L 5586.02,6875.42 Z " />
<path stroke="transparent" fill="#000000" transform="matrix(0.0666667 0 0 0.0666667 -291.433 -441.433)" d="M 5658.02,6875.42 L 5678.02,6875.42 L 5678.02,7376.37 L 5658.02,7376.37 L 5658.02,6875.42 Z " />
<path stroke="transparent" fill="#000000" transform="matrix(0.0666667 0 0 0.0666667 -291.433 -441.433)" d="M 6064.02,7593.45 L 6054.02,7610.77 L 5632.02,7367.13 L 5632.02,7344.04 L 6064.02,7593.45 Z " />
<path stroke="transparent" fill="#000000" transform="matrix(0.0666667 0 0 0.0666667 -291.433 -441.433)" d="M 4654.56,7402.79 L 4664.56,7385.47 L 5112.41,7644.04 L 5112.41,7667.13 L 4654.56,7402.79 Z " />
</svg>
