<?xml version="1.0" standalone="no" ?>
<!DOCTYPE svg PUBLIC "-//W3C//DTD SVG 1.1//EN" "http://www.w3.org/Graphics/SVG/1.1/DTD/svg11.dtd">
<svg width="111px" height="77px" viewBox="0 0 111 77" xmlns="http://www.w3.org/2000/svg" xmlns:xlink="http://www.w3.org/1999/xlink" version="1.1" >
<text x="0" y="0" stroke="transparent" fill="#000000" transform="matrix(0.0666667 0 0 0.0666667 33.0462 14.1389)" style="font:normal normal normal 200px 'Arial'" >
O</text>
<text x="0" y="0" stroke="transparent" fill="#000000" transform="matrix(0.0666667 0 0 0.0666667 67.6872 74.1389)" style="font:normal normal normal 200px 'Arial'" >
O</text>
<path stroke="transparent" fill="#000000" transform="matrix(0.0666667 0 0 0.0666667 -304.433 -441.433)" d="M 4625.58,7664.24 L 4615.58,7646.92 L 5140.19,7344.04 L 5140.19,7367.13 L 4625.58,7664.24 Z " />
<path stroke="transparent" fill="#000000" transform="matrix(0.0666667 0 0 0.0666667 -304.433 -441.433)" d="M 5094.19,6875.42 L 5114.19,6875.42 L 5114.19,7376.37 L 5094.19,7376.37 L 5094.19,6875.42 Z " />
<path stroke="transparent" fill="#000000" transform="matrix(0.0666667 0 0 0.0666667 -304.433 -441.433)" d="M 5166.19,6875.42 L 5186.19,6875.42 L 5186.19,7376.37 L 5166.19,7376.37 L 5166.19,6875.42 Z " />
<path stroke="transparent" fill="#000000" transform="matrix(0.0666667 0 0 0.0666667 -304.433 -441.433)" d="M 5572.19,7593.45 L 5562.19,7610.77 L 5140.19,7367.13 L 5140.19,7344.04 L 5572.19,7593.45 Z " />
<path stroke="transparent" fill="#000000" transform="matrix(0.0666667 0 0 0.0666667 -304.433 -441.433)" d="M 6174.42,7346.92 L 6184.42,7364.24 L 5757.43,7610.77 L 5747.43,7593.45 L 6174.42,7346.92 Z " />
</svg>
