<?xml version="1.0" standalone="no" ?>
<!DOCTYPE svg PUBLIC "-//W3C//DTD SVG 1.1//EN" "http://www.w3.org/Graphics/SVG/1.1/DTD/svg11.dtd">
<svg width="147px" height="115px" viewBox="0 0 147 115" xmlns="http://www.w3.org/2000/svg" xmlns:xlink="http://www.w3.org/1999/xlink" version="1.1" >
<text x="0" y="0" stroke="transparent" fill="#000000" transform="matrix(0.0666667 0 0 0.0666667 101.127 78.2068)" style="font:normal normal normal 200px 'Arial'" >
N</text>
<text x="0" y="0" stroke="transparent" fill="#000000" transform="matrix(0.0666667 0 0 0.0666667 36.406 78.2068)" style="font:normal normal normal 200px 'Arial'" >
N</text>
<text x="0" y="0" stroke="transparent" fill="#000000" transform="matrix(0.0666667 0 0 0.0666667 68.3667 14.6954)" style="font:normal normal normal 200px 'Arial'" >
O</text>
<path stroke="transparent" fill="#000000" transform="matrix(0.0666667 0 0 0.0666667 -286.433 -422.433)" d="M 5792.4,7351.66 L 5780.64,7367.84 L 5400,7091.29 L 5400,7066.57 L 5792.4,7351.66 Z " />
<path stroke="transparent" fill="#000000" transform="matrix(0.0666667 0 0 0.0666667 -286.433 -422.433)" d="M 5707.27,8012.24 L 5692.73,7992.24 L 5835.51,7552.81 L 5854.53,7558.99 L 5707.27,8012.24 Z " />
<path stroke="transparent" fill="#000000" transform="matrix(0.0666667 0 0 0.0666667 -286.433 -422.433)" d="M 5092.73,8012.24 L 5107.27,7992.24 L 5692.73,7992.24 L 5707.27,8012.24 L 5092.73,8012.24 Z " />
<path stroke="transparent" fill="#000000" transform="matrix(0.0666667 0 0 0.0666667 -286.433 -422.433)" d="M 4945.47,7558.99 L 4964.49,7552.81 L 5107.27,7992.24 L 5092.73,8012.24 L 4945.47,7558.99 Z " />
<path stroke="transparent" fill="#000000" transform="matrix(0.0666667 0 0 0.0666667 -286.433 -422.433)" d="M 5019.36,7367.84 L 5007.6,7351.66 L 5400,7066.57 L 5400,7091.29 L 5019.36,7367.84 Z " />
<path stroke="transparent" fill="#000000" transform="matrix(0.0666667 0 0 0.0666667 -286.433 -422.433)" d="M 5354,6598.76 L 5374,6598.76 L 5374,7105.09 L 5354,7105.09 L 5354,6598.76 Z " />
<path stroke="transparent" fill="#000000" transform="matrix(0.0666667 0 0 0.0666667 -286.433 -422.433)" d="M 5426,6598.76 L 5446,6598.76 L 5446,7105.09 L 5426,7105.09 L 5426,6598.76 Z " />
<path stroke="transparent" fill="#000000" transform="matrix(0.0666667 0 0 0.0666667 -286.433 -422.433)" d="M 6452.95,7236.68 L 6459.13,7255.7 L 5995.66,7406.29 L 5989.48,7387.27 L 6452.95,7236.68 Z " />
<path stroke="transparent" fill="#000000" transform="matrix(0.0666667 0 0 0.0666667 -286.433 -422.433)" d="M 4340.87,7255.7 L 4347.05,7236.68 L 4810.52,7387.27 L 4804.34,7406.29 L 4340.87,7255.7 Z " />
</svg>
