<?xml version="1.0" standalone="no" ?>
<!DOCTYPE svg PUBLIC "-//W3C//DTD SVG 1.1//EN" "http://www.w3.org/Graphics/SVG/1.1/DTD/svg11.dtd">
<svg width="215px" height="177px" viewBox="0 0 215 177" xmlns="http://www.w3.org/2000/svg" xmlns:xlink="http://www.w3.org/1999/xlink" version="1.1" >
<text x="0" y="0" stroke="transparent" fill="#000000" transform="matrix(0.0666667 0 0 0.0666667 102.533 174.139)" style="font:normal normal normal 200px 'Arial'" >
O</text>
<text x="0" y="0" stroke="transparent" fill="#000000" transform="matrix(0.0666667 0 0 0.0666667 137.174 114.139)" style="font:normal normal normal 200px 'Arial'" >
O</text>
<text x="0" y="0" stroke="transparent" fill="#000000" transform="matrix(0.0666667 0 0 0.0666667 102.533 14.1389)" style="font:normal normal normal 200px 'Arial'" >
O</text>
<text x="0" y="0" stroke="transparent" fill="#000000" transform="matrix(0.0666667 0 0 0.0666667 137.174 74.1389)" style="font:normal normal normal 200px 'Arial'" >
O</text>
<path stroke="transparent" fill="#000000" transform="matrix(0.0666667 0 0 0.0666667 -252.433 -391.433)" d="M 4882.88,7517.13 L 4882.88,7505.58 L 4892.88,7499.81 L 5402.5,7794.04 L 5402.5,7817.13 L 4882.88,7517.13 Z " />
<path stroke="transparent" fill="#000000" transform="matrix(0.0666667 0 0 0.0666667 -252.433 -391.433)" d="M 4872.88,6911.36 L 4882.88,6905.58 L 4892.88,6911.36 L 4892.88,7499.81 L 4882.88,7505.58 L 4872.88,7499.81 L 4872.88,6911.36 Z " />
<path stroke="transparent" fill="#000000" transform="matrix(0.0666667 0 0 0.0666667 -252.433 -391.433)" d="M 5402.5,6594.04 L 5402.5,6617.13 L 4892.88,6911.36 L 4882.88,6905.58 L 4882.88,6894.04 L 5402.5,6594.04 Z " />
<path stroke="transparent" fill="#000000" transform="matrix(0.0666667 0 0 0.0666667 -252.433 -391.433)" d="M 4363.27,6617.13 L 4363.27,6594.04 L 4882.88,6894.04 L 4882.88,6905.58 L 4872.88,6911.36 L 4363.27,6617.13 Z " />
<path stroke="transparent" fill="#000000" transform="matrix(0.0666667 0 0 0.0666667 -252.433 -391.433)" d="M 4358.27,6697.38 L 4368.27,6680.06 L 4815.88,6938.49 L 4805.88,6955.81 L 4358.27,6697.38 Z " />
<path stroke="transparent" fill="#000000" transform="matrix(0.0666667 0 0 0.0666667 -252.433 -391.433)" d="M 3853.65,6911.36 L 3833.65,6899.81 L 4363.27,6594.04 L 4363.27,6617.13 L 3853.65,6911.36 Z " />
<path stroke="transparent" fill="#000000" transform="matrix(0.0666667 0 0 0.0666667 -252.433 -391.433)" d="M 3853.65,7499.81 L 3833.65,7511.36 L 3833.65,6899.81 L 3853.65,6911.36 L 3853.65,7499.81 Z " />
<path stroke="transparent" fill="#000000" transform="matrix(0.0666667 0 0 0.0666667 -252.433 -391.433)" d="M 3925.65,7464.01 L 3905.65,7464.01 L 3905.65,6947.15 L 3925.65,6947.15 L 3925.65,7464.01 Z " />
<path stroke="transparent" fill="#000000" transform="matrix(0.0666667 0 0 0.0666667 -252.433 -391.433)" d="M 4363.27,7794.04 L 4363.27,7817.13 L 3833.65,7511.36 L 3853.65,7499.81 L 4363.27,7794.04 Z " />
<path stroke="transparent" fill="#000000" transform="matrix(0.0666667 0 0 0.0666667 -252.433 -391.433)" d="M 4363.27,7817.13 L 4363.27,7794.04 L 4872.88,7499.81 L 4882.88,7505.58 L 4882.88,7517.13 L 4363.27,7817.13 Z " />
<path stroke="transparent" fill="#000000" transform="matrix(0.0666667 0 0 0.0666667 -252.433 -391.433)" d="M 4368.27,7731.11 L 4358.27,7713.78 L 4805.88,7455.35 L 4815.88,7472.67 L 4368.27,7731.11 Z " />
<path stroke="transparent" fill="#000000" transform="matrix(0.0666667 0 0 0.0666667 -252.433 -391.433)" d="M 5448.5,8300.42 L 5428.5,8300.42 L 5428.5,7784.8 L 5448.5,7784.8 L 5448.5,8300.42 Z " />
<path stroke="transparent" fill="#000000" transform="matrix(0.0666667 0 0 0.0666667 -252.433 -391.433)" d="M 5376.5,8300.42 L 5356.5,8300.42 L 5356.5,7784.8 L 5376.5,7784.8 L 5376.5,8300.42 Z " />
<path stroke="transparent" fill="#000000" transform="matrix(0.0666667 0 0 0.0666667 -252.433 -391.433)" d="M 5817.51,7554.43 L 5827.51,7571.75 L 5402.5,7817.13 L 5402.5,7794.04 L 5817.51,7554.43 Z " />
<path stroke="transparent" fill="#000000" transform="matrix(0.0666667 0 0 0.0666667 -252.433 -391.433)" d="M 5356.5,6125.42 L 5376.5,6125.42 L 5376.5,6626.37 L 5356.5,6626.37 L 5356.5,6125.42 Z " />
<path stroke="transparent" fill="#000000" transform="matrix(0.0666667 0 0 0.0666667 -252.433 -391.433)" d="M 5428.5,6125.42 L 5448.5,6125.42 L 5448.5,6626.37 L 5428.5,6626.37 L 5428.5,6125.42 Z " />
<path stroke="transparent" fill="#000000" transform="matrix(0.0666667 0 0 0.0666667 -252.433 -391.433)" d="M 5834.5,6843.45 L 5824.5,6860.77 L 5402.5,6617.13 L 5402.5,6594.04 L 5834.5,6843.45 Z " />
<path stroke="transparent" fill="#000000" transform="matrix(0.0666667 0 0 0.0666667 -252.433 -391.433)" d="M 6956.35,7496.92 L 6966.35,7514.24 L 6441.73,7817.13 L 6441.73,7794.04 L 6956.35,7496.92 Z " />
<path stroke="transparent" fill="#000000" transform="matrix(0.0666667 0 0 0.0666667 -252.433 -391.433)" d="M 6441.73,7794.04 L 6441.73,7817.13 L 6017.15,7572 L 6027.15,7554.68 L 6441.73,7794.04 Z " />
<path stroke="transparent" fill="#000000" transform="matrix(0.0666667 0 0 0.0666667 -252.433 -391.433)" d="M 6966.35,6896.92 L 6956.35,6914.24 L 6441.73,6617.13 L 6441.73,6594.04 L 6966.35,6896.92 Z " />
<path stroke="transparent" fill="#000000" transform="matrix(0.0666667 0 0 0.0666667 -252.433 -391.433)" d="M 6441.73,6594.04 L 6441.73,6617.13 L 6019.73,6860.77 L 6009.73,6843.45 L 6441.73,6594.04 Z " />
</svg>
