<?xml version="1.0" standalone="no" ?>
<!DOCTYPE svg PUBLIC "-//W3C//DTD SVG 1.1//EN" "http://www.w3.org/Graphics/SVG/1.1/DTD/svg11.dtd">
<svg width="107px" height="99px" viewBox="0 0 107 99" xmlns="http://www.w3.org/2000/svg" xmlns:xlink="http://www.w3.org/1999/xlink" version="1.1" >
<text x="0" y="0" stroke="transparent" fill="#000000" transform="matrix(0.0666667 0 0 0.0666667 61.1752 32.3697)" style="font:normal normal normal 200px 'Arial'" >
N</text>
<text x="0" y="0" stroke="transparent" fill="#000000" transform="matrix(0.0666667 0 0 0.0666667 93.1359 95.8811)" style="font:normal normal normal 200px 'Arial'" >
O</text>
<path stroke="transparent" fill="#000000" transform="matrix(0.0666667 0 0 0.0666667 -306.433 -430.433)" d="M 5596.13,7471.31 L 5576.13,7456.78 L 5576.13,6981.21 L 5596.13,6981.21 L 5596.13,7471.31 Z " />
<path stroke="transparent" fill="#000000" transform="matrix(0.0666667 0 0 0.0666667 -306.433 -430.433)" d="M 5011.67,7661.21 L 5019.31,7637.7 L 5576.13,7456.78 L 5596.13,7471.31 L 5011.67,7661.21 Z " />
<path stroke="transparent" fill="#000000" transform="matrix(0.0666667 0 0 0.0666667 -306.433 -430.433)" d="M 4650.46,7164.04 L 4675.18,7164.04 L 5019.31,7637.7 L 5011.67,7661.21 L 4650.46,7164.04 Z " />
<path stroke="transparent" fill="#000000" transform="matrix(0.0666667 0 0 0.0666667 -306.433 -430.433)" d="M 5011.67,6666.88 L 5019.31,6690.39 L 4675.18,7164.04 L 4650.46,7164.04 L 5011.67,6666.88 Z " />
<path stroke="transparent" fill="#000000" transform="matrix(0.0666667 0 0 0.0666667 -306.433 -430.433)" d="M 5019.31,6690.39 L 5011.67,6666.88 L 5482.06,6819.72 L 5475.88,6838.74 L 5019.31,6690.39 Z " />
<path stroke="transparent" fill="#000000" transform="matrix(0.0666667 0 0 0.0666667 -306.433 -430.433)" d="M 6065.66,6503.28 L 6077.42,6519.46 L 5690.9,6800.29 L 5679.14,6784.11 L 6065.66,6503.28 Z " />
<path stroke="transparent" fill="#000000" transform="matrix(0.0666667 0 0 0.0666667 -306.433 -430.433)" d="M 6012.07,7716.65 L 6000.31,7732.83 L 5580.25,7427.64 L 5592.01,7411.46 L 6012.07,7716.65 Z " />
<path stroke="transparent" fill="#000000" transform="matrix(0.0666667 0 0 0.0666667 -306.433 -430.433)" d="M 5969.75,7774.9 L 5957.99,7791.08 L 5537.93,7485.89 L 5549.68,7469.71 L 5969.75,7774.9 Z " />
</svg>
