<?xml version="1.0" standalone="no" ?>
<!DOCTYPE svg PUBLIC "-//W3C//DTD SVG 1.1//EN" "http://www.w3.org/Graphics/SVG/1.1/DTD/svg11.dtd">
<svg width="119px" height="97px" viewBox="0 0 119 97" xmlns="http://www.w3.org/2000/svg" xmlns:xlink="http://www.w3.org/1999/xlink" version="1.1" >
<text x="0" y="0" stroke="transparent" fill="#000000" transform="matrix(0.0666667 0 0 0.0666667 103.166 94.1389)" style="font:normal normal normal 200px 'Arial'" >
Cl</text>
<text x="0" y="0" stroke="transparent" fill="#000000" transform="matrix(0.0666667 0 0 0.0666667 103.166 14.1389)" style="font:normal normal normal 200px 'Arial'" >
Cl</text>
<path stroke="transparent" fill="#000000" transform="matrix(0.0666667 0 0 0.0666667 -300.433 -431.433)" d="M 5616.37,7499.81 L 5606.37,7505.58 L 5596.37,7499.81 L 5596.37,6911.36 L 5606.37,6905.58 L 5616.37,6911.36 L 5616.37,7499.81 Z " />
<path stroke="transparent" fill="#000000" transform="matrix(0.0666667 0 0 0.0666667 -300.433 -431.433)" d="M 5086.76,7817.13 L 5086.76,7794.04 L 5596.37,7499.81 L 5606.37,7505.58 L 5606.37,7517.13 L 5086.76,7817.13 Z " />
<path stroke="transparent" fill="#000000" transform="matrix(0.0666667 0 0 0.0666667 -300.433 -431.433)" d="M 5091.76,7731.11 L 5081.76,7713.78 L 5529.37,7455.35 L 5539.37,7472.67 L 5091.76,7731.11 Z " />
<path stroke="transparent" fill="#000000" transform="matrix(0.0666667 0 0 0.0666667 -300.433 -431.433)" d="M 4557.14,7511.36 L 4577.14,7499.81 L 5086.76,7794.04 L 5086.76,7817.13 L 4557.14,7511.36 Z " />
<path stroke="transparent" fill="#000000" transform="matrix(0.0666667 0 0 0.0666667 -300.433 -431.433)" d="M 4557.14,6899.81 L 4577.14,6911.36 L 4577.14,7499.81 L 4557.14,7511.36 L 4557.14,6899.81 Z " />
<path stroke="transparent" fill="#000000" transform="matrix(0.0666667 0 0 0.0666667 -300.433 -431.433)" d="M 4629.14,6947.15 L 4649.14,6947.15 L 4649.14,7464.01 L 4629.14,7464.01 L 4629.14,6947.15 Z " />
<path stroke="transparent" fill="#000000" transform="matrix(0.0666667 0 0 0.0666667 -300.433 -431.433)" d="M 5086.76,6594.04 L 5086.76,6617.13 L 4577.14,6911.36 L 4557.14,6899.81 L 5086.76,6594.04 Z " />
<path stroke="transparent" fill="#000000" transform="matrix(0.0666667 0 0 0.0666667 -300.433 -431.433)" d="M 5086.76,6617.13 L 5086.76,6594.04 L 5606.37,6894.04 L 5606.37,6905.58 L 5596.37,6911.36 L 5086.76,6617.13 Z " />
<path stroke="transparent" fill="#000000" transform="matrix(0.0666667 0 0 0.0666667 -300.433 -431.433)" d="M 5081.76,6697.38 L 5091.76,6680.06 L 5539.37,6938.49 L 5529.37,6955.81 L 5081.76,6697.38 Z " />
<path stroke="transparent" fill="#000000" transform="matrix(0.0666667 0 0 0.0666667 -300.433 -431.433)" d="M 6042.67,7745.93 L 6032.67,7763.25 L 5606.37,7517.13 L 5606.37,7505.58 L 5616.37,7499.81 L 6042.67,7745.93 Z " />
<path stroke="transparent" fill="#000000" transform="matrix(0.0666667 0 0 0.0666667 -300.433 -431.433)" d="M 6025.42,6652.1 L 6035.42,6669.42 L 5616.37,6911.36 L 5606.37,6905.58 L 5606.37,6894.04 L 6025.42,6652.1 Z " />
</svg>
