<?xml version="1.0" standalone="no" ?>
<!DOCTYPE svg PUBLIC "-//W3C//DTD SVG 1.1//EN" "http://www.w3.org/Graphics/SVG/1.1/DTD/svg11.dtd">
<svg width="249px" height="117px" viewBox="0 0 249 117" xmlns="http://www.w3.org/2000/svg" xmlns:xlink="http://www.w3.org/1999/xlink" version="1.1" >
<text x="0" y="0" stroke="transparent" fill="#000000" transform="matrix(0.0666667 0 0 0.0666667 136.687 114.139)" style="font:normal normal normal 200px 'Arial'" >
O</text>
<text x="0" y="0" stroke="transparent" fill="#000000" transform="matrix(0.0666667 0 0 0.0666667 171.328 54.1389)" style="font:normal normal normal 200px 'Arial'" >
O</text>
<text x="0" y="0" stroke="transparent" fill="#000000" transform="matrix(0.0666667 0 0 0.0666667 102.046 14.1389)" style="font:normal normal normal 200px 'Arial'" >
O</text>
<text x="0" y="0" stroke="transparent" fill="#000000" transform="matrix(0.0666667 0 0 0.0666667 67.4051 74.1389)" style="font:normal normal normal 200px 'Arial'" >
O</text>
<path stroke="transparent" fill="#000000" transform="matrix(0.0666667 0 0 0.0666667 -235.433 -421.433)" d="M 5140.19,7067.13 L 5140.19,7044.04 L 5659.81,7344.04 L 5659.81,7367.13 L 5140.19,7067.13 Z " />
<path stroke="transparent" fill="#000000" transform="matrix(0.0666667 0 0 0.0666667 -235.433 -421.433)" d="M 5705.81,7850.42 L 5685.81,7850.42 L 5685.81,7334.8 L 5705.81,7334.8 L 5705.81,7850.42 Z " />
<path stroke="transparent" fill="#000000" transform="matrix(0.0666667 0 0 0.0666667 -235.433 -421.433)" d="M 5633.81,7850.42 L 5613.81,7850.42 L 5613.81,7334.8 L 5633.81,7334.8 L 5633.81,7850.42 Z " />
<path stroke="transparent" fill="#000000" transform="matrix(0.0666667 0 0 0.0666667 -235.433 -421.433)" d="M 6074.82,7104.43 L 6084.82,7121.75 L 5659.81,7367.13 L 5659.81,7344.04 L 6074.82,7104.43 Z " />
<path stroke="transparent" fill="#000000" transform="matrix(0.0666667 0 0 0.0666667 -235.433 -421.433)" d="M 5094.19,6575.42 L 5114.19,6575.42 L 5114.19,7076.37 L 5094.19,7076.37 L 5094.19,6575.42 Z " />
<path stroke="transparent" fill="#000000" transform="matrix(0.0666667 0 0 0.0666667 -235.433 -421.433)" d="M 5166.19,6575.42 L 5186.19,6575.42 L 5186.19,7076.37 L 5166.19,7076.37 L 5166.19,6575.42 Z " />
<path stroke="transparent" fill="#000000" transform="matrix(0.0666667 0 0 0.0666667 -235.433 -421.433)" d="M 4718.2,7310.77 L 4708.2,7293.45 L 5140.19,7044.04 L 5140.19,7067.13 L 4718.2,7310.77 Z " />
<path stroke="transparent" fill="#000000" transform="matrix(0.0666667 0 0 0.0666667 -235.433 -421.433)" d="M 7213.65,7046.92 L 7223.65,7064.24 L 6699.04,7367.13 L 6699.04,7344.04 L 7213.65,7046.92 Z " />
<path stroke="transparent" fill="#000000" transform="matrix(0.0666667 0 0 0.0666667 -235.433 -421.433)" d="M 6699.04,7344.04 L 6699.04,7367.13 L 6274.46,7122 L 6284.46,7104.68 L 6699.04,7344.04 Z " />
<path stroke="transparent" fill="#000000" transform="matrix(0.0666667 0 0 0.0666667 -235.433 -421.433)" d="M 3586.35,7364.24 L 3576.35,7346.92 L 4100.96,7044.04 L 4100.96,7067.13 L 3586.35,7364.24 Z " />
<path stroke="transparent" fill="#000000" transform="matrix(0.0666667 0 0 0.0666667 -235.433 -421.433)" d="M 4100.96,7067.13 L 4100.96,7044.04 L 4532.96,7293.45 L 4522.96,7310.77 L 4100.96,7067.13 Z " />
</svg>
