<?xml version="1.0" standalone="no" ?>
<!DOCTYPE svg PUBLIC "-//W3C//DTD SVG 1.1//EN" "http://www.w3.org/Graphics/SVG/1.1/DTD/svg11.dtd">
<svg width="145px" height="73px" viewBox="0 0 145 73" xmlns="http://www.w3.org/2000/svg" xmlns:xlink="http://www.w3.org/1999/xlink" version="1.1" >
<text x="0" y="0" stroke="transparent" fill="#000000" transform="matrix(0.0666667 0 0 0.0666667 67.3667 14.4206)" style="font:normal normal normal 200px 'Arial'" >
O</text>
<path stroke="transparent" fill="#000000" transform="matrix(0.0666667 0 0 0.0666667 -287.433 -443.433)" d="M 5919.62,7701.36 L 5919.62,7678.26 L 6434.23,7381.15 L 6444.23,7398.47 L 5919.62,7701.36 Z " />
<path stroke="transparent" fill="#000000" transform="matrix(0.0666667 0 0 0.0666667 -287.433 -443.433)" d="M 5400,7401.36 L 5400,7378.26 L 5919.62,7678.26 L 5919.62,7701.36 L 5400,7401.36 Z " />
<path stroke="transparent" fill="#000000" transform="matrix(0.0666667 0 0 0.0666667 -287.433 -443.433)" d="M 4880.38,7701.36 L 4880.38,7678.26 L 5400,7378.26 L 5400,7401.36 L 4880.38,7701.36 Z " />
<path stroke="transparent" fill="#000000" transform="matrix(0.0666667 0 0 0.0666667 -287.433 -443.433)" d="M 4355.77,7398.47 L 4365.77,7381.15 L 4880.38,7678.26 L 4880.38,7701.36 L 4355.77,7398.47 Z " />
<path stroke="transparent" fill="#000000" transform="matrix(0.0666667 0 0 0.0666667 -287.433 -443.433)" d="M 5354,6909.64 L 5374,6909.64 L 5374,7410.59 L 5354,7410.59 L 5354,6909.64 Z " />
<path stroke="transparent" fill="#000000" transform="matrix(0.0666667 0 0 0.0666667 -287.433 -443.433)" d="M 5426,6909.64 L 5446,6909.64 L 5446,7410.59 L 5426,7410.59 L 5426,6909.64 Z " />
</svg>
