<?xml version="1.0" standalone="no" ?>
<!DOCTYPE svg PUBLIC "-//W3C//DTD SVG 1.1//EN" "http://www.w3.org/Graphics/SVG/1.1/DTD/svg11.dtd">
<svg width="110px" height="69px" viewBox="0 0 110 69" xmlns="http://www.w3.org/2000/svg" xmlns:xlink="http://www.w3.org/1999/xlink" version="1.1" >
<path stroke="transparent" fill="#000000" transform="matrix(0.0666667 0 0 0.0666667 -305.433 -445.433)" d="M 5426.28,7672.83 L 5411.75,7652.83 L 5592.67,7096.02 L 5604.43,7092.2 L 5612.36,7100.13 L 5426.28,7672.83 Z " />
<path stroke="transparent" fill="#000000" transform="matrix(0.0666667 0 0 0.0666667 -305.433 -445.433)" d="M 4811.75,7672.83 L 4826.28,7652.83 L 5411.75,7652.83 L 5426.28,7672.83 L 4811.75,7672.83 Z " />
<path stroke="transparent" fill="#000000" transform="matrix(0.0666667 0 0 0.0666667 -305.433 -445.433)" d="M 4621.85,7088.38 L 4645.36,7096.02 L 4826.28,7652.83 L 4811.75,7672.83 L 4621.85,7088.38 Z " />
<path stroke="transparent" fill="#000000" transform="matrix(0.0666667 0 0 0.0666667 -305.433 -445.433)" d="M 5119.02,6727.17 L 5119.02,6751.89 L 4645.36,7096.02 L 4621.85,7088.38 L 5119.02,6727.17 Z " />
<path stroke="transparent" fill="#000000" transform="matrix(0.0666667 0 0 0.0666667 -305.433 -445.433)" d="M 5119.02,6751.89 L 5119.02,6727.17 L 5606.18,7081.11 L 5604.43,7092.2 L 5592.67,7096.02 L 5119.02,6751.89 Z " />
<path stroke="transparent" fill="#000000" transform="matrix(0.0666667 0 0 0.0666667 -305.433 -445.433)" d="M 6171.97,6897.28 L 6178.15,6916.3 L 5612.36,7100.13 L 5604.43,7092.2 L 5606.18,7081.11 L 6171.97,6897.28 Z " />
</svg>
