<?xml version="1.0" standalone="no" ?>
<!DOCTYPE svg PUBLIC "-//W3C//DTD SVG 1.1//EN" "http://www.w3.org/Graphics/SVG/1.1/DTD/svg11.dtd">
<svg width="110px" height="75px" viewBox="0 0 110 75" xmlns="http://www.w3.org/2000/svg" xmlns:xlink="http://www.w3.org/1999/xlink" version="1.1" >
<text x="0" y="0" stroke="transparent" fill="#000000" transform="matrix(0.0666667 0 0 0.0666667 30.6344 14.6954)" style="font:normal normal normal 200px 'Arial'" >
O</text>
<path stroke="transparent" fill="#000000" transform="matrix(0.0666667 0 0 0.0666667 -305.433 -442.433)" d="M 5606.18,7120.52 L 5604.43,7131.6 L 5592.67,7135.42 L 5207.87,6855.85 L 5219.62,6839.67 L 5606.18,7120.52 Z " />
<path stroke="transparent" fill="#000000" transform="matrix(0.0666667 0 0 0.0666667 -305.433 -442.433)" d="M 5426.28,7712.24 L 5411.75,7692.24 L 5592.67,7135.42 L 5604.43,7131.6 L 5612.36,7139.54 L 5426.28,7712.24 Z " />
<path stroke="transparent" fill="#000000" transform="matrix(0.0666667 0 0 0.0666667 -305.433 -442.433)" d="M 4811.75,7712.24 L 4826.28,7692.24 L 5411.75,7692.24 L 5426.28,7712.24 L 4811.75,7712.24 Z " />
<path stroke="transparent" fill="#000000" transform="matrix(0.0666667 0 0 0.0666667 -305.433 -442.433)" d="M 4621.85,7127.78 L 4645.36,7135.42 L 4826.28,7692.24 L 4811.75,7712.24 L 4621.85,7127.78 Z " />
<path stroke="transparent" fill="#000000" transform="matrix(0.0666667 0 0 0.0666667 -305.433 -442.433)" d="M 4645.36,7135.42 L 4621.85,7127.78 L 5018.88,6839.32 L 5030.64,6855.5 L 4645.36,7135.42 Z " />
<path stroke="transparent" fill="#000000" transform="matrix(0.0666667 0 0 0.0666667 -305.433 -442.433)" d="M 6171.97,6936.68 L 6178.15,6955.7 L 5612.36,7139.54 L 5604.43,7131.6 L 5606.18,7120.52 L 6171.97,6936.68 Z " />
</svg>
