<?xml version="1.0" standalone="no" ?>
<!DOCTYPE svg PUBLIC "-//W3C//DTD SVG 1.1//EN" "http://www.w3.org/Graphics/SVG/1.1/DTD/svg11.dtd">
<svg width="115px" height="79px" viewBox="0 0 115 79" xmlns="http://www.w3.org/2000/svg" xmlns:xlink="http://www.w3.org/1999/xlink" version="1.1" >
<text x="0" y="0" stroke="transparent" fill="#000000" transform="matrix(0.0666667 0 0 0.0666667 31.1374 14.362)" style="font:normal normal normal 200px 'Arial'" >
O</text>
<text x="0" y="0" stroke="transparent" fill="#000000" transform="matrix(0.0666667 0 0 0.0666667 51.1374 75.9157)" style="font:normal normal normal 200px 'Arial'" >
O</text>
<text x="0" y="0" stroke="transparent" fill="#000000" transform="matrix(0.0666667 0 0 0.0666667 101.54 25.5128)" style="font:normal normal normal 200px 'Arial'" >
O</text>
<path stroke="transparent" fill="#000000" transform="matrix(0.0666667 0 0 0.0666667 -302.433 -440.433)" d="M 5578.73,7092.78 L 5555.22,7100.42 L 5170.41,6820.85 L 5182.17,6804.67 L 5578.73,7092.78 Z " />
<path stroke="transparent" fill="#000000" transform="matrix(0.0666667 0 0 0.0666667 -302.433 -440.433)" d="M 5423.81,7569.56 L 5404.79,7563.38 L 5555.22,7100.42 L 5578.73,7092.78 L 5423.81,7569.56 Z " />
<path stroke="transparent" fill="#000000" transform="matrix(0.0666667 0 0 0.0666667 -302.433 -440.433)" d="M 4774.3,7677.24 L 4788.83,7657.24 L 5273.56,7657.24 L 5273.56,7677.24 L 4774.3,7677.24 Z " />
<path stroke="transparent" fill="#000000" transform="matrix(0.0666667 0 0 0.0666667 -302.433 -440.433)" d="M 4584.39,7092.78 L 4607.91,7100.42 L 4788.83,7657.24 L 4774.3,7677.24 L 4584.39,7092.78 Z " />
<path stroke="transparent" fill="#000000" transform="matrix(0.0666667 0 0 0.0666667 -302.433 -440.433)" d="M 4607.91,7100.42 L 4584.39,7092.78 L 4981.43,6804.32 L 4993.18,6820.5 L 4607.91,7100.42 Z " />
<path stroke="transparent" fill="#000000" transform="matrix(0.0666667 0 0 0.0666667 -302.433 -440.433)" d="M 6016.91,6902.04 L 6023.09,6921.06 L 5534.06,7079.96 L 5527.88,7060.94 L 6016.91,6902.04 Z " />
<path stroke="transparent" fill="#000000" transform="matrix(0.0666667 0 0 0.0666667 -302.433 -440.433)" d="M 6039.15,6970.52 L 6045.33,6989.54 L 5556.31,7148.43 L 5550.13,7129.41 L 6039.15,6970.52 Z " />
</svg>
