<?xml version="1.0" standalone="no" ?>
<!DOCTYPE svg PUBLIC "-//W3C//DTD SVG 1.1//EN" "http://www.w3.org/Graphics/SVG/1.1/DTD/svg11.dtd">
<svg width="181px" height="117px" viewBox="0 0 181 117" xmlns="http://www.w3.org/2000/svg" xmlns:xlink="http://www.w3.org/1999/xlink" version="1.1" >
<text x="0" y="0" stroke="transparent" fill="#000000" transform="matrix(0.0666667 0 0 0.0666667 33.4051 114.139)" style="font:normal normal normal 200px 'Arial'" >
OH</text>
<text x="0" y="0" stroke="transparent" fill="#000000" transform="matrix(0.0666667 0 0 0.0666667 68.0462 14.1389)" style="font:normal normal normal 200px 'Arial'" >
O</text>
<text x="0" y="0" stroke="transparent" fill="#000000" transform="matrix(0.0666667 0 0 0.0666667 102.687 74.1389)" style="font:normal normal normal 200px 'Arial'" >
O</text>
<path stroke="transparent" fill="#000000" transform="matrix(0.0666667 0 0 0.0666667 -269.433 -421.433)" d="M 4630.58,7361.36 L 4620.58,7355.58 L 4620.58,7344.04 L 5140.19,7044.04 L 5140.19,7067.13 L 4630.58,7361.36 Z " />
<path stroke="transparent" fill="#000000" transform="matrix(0.0666667 0 0 0.0666667 -269.433 -421.433)" d="M 4630.58,7850.42 L 4610.58,7850.42 L 4610.58,7361.36 L 4620.58,7355.58 L 4630.58,7361.36 L 4630.58,7850.42 Z " />
<path stroke="transparent" fill="#000000" transform="matrix(0.0666667 0 0 0.0666667 -269.433 -421.433)" d="M 4095.96,7064.24 L 4105.96,7046.92 L 4620.58,7344.04 L 4620.58,7355.58 L 4610.58,7361.36 L 4095.96,7064.24 Z " />
<path stroke="transparent" fill="#000000" transform="matrix(0.0666667 0 0 0.0666667 -269.433 -421.433)" d="M 5094.19,6575.42 L 5114.19,6575.42 L 5114.19,7076.37 L 5094.19,7076.37 L 5094.19,6575.42 Z " />
<path stroke="transparent" fill="#000000" transform="matrix(0.0666667 0 0 0.0666667 -269.433 -421.433)" d="M 5166.19,6575.42 L 5186.19,6575.42 L 5186.19,7076.37 L 5166.19,7076.37 L 5166.19,6575.42 Z " />
<path stroke="transparent" fill="#000000" transform="matrix(0.0666667 0 0 0.0666667 -269.433 -421.433)" d="M 5572.19,7293.45 L 5562.19,7310.77 L 5140.19,7067.13 L 5140.19,7044.04 L 5572.19,7293.45 Z " />
<path stroke="transparent" fill="#000000" transform="matrix(0.0666667 0 0 0.0666667 -269.433 -421.433)" d="M 6704.04,7346.92 L 6694.04,7364.24 L 6179.42,7067.13 L 6179.42,7044.04 L 6704.04,7346.92 Z " />
<path stroke="transparent" fill="#000000" transform="matrix(0.0666667 0 0 0.0666667 -269.433 -421.433)" d="M 6179.42,7044.04 L 6179.42,7067.13 L 5757.43,7310.77 L 5747.43,7293.45 L 6179.42,7044.04 Z " />
</svg>
