<?xml version="1.0" standalone="no" ?>
<!DOCTYPE svg PUBLIC "-//W3C//DTD SVG 1.1//EN" "http://www.w3.org/Graphics/SVG/1.1/DTD/svg11.dtd">
<svg width="143px" height="76px" viewBox="0 0 143 76" xmlns="http://www.w3.org/2000/svg" xmlns:xlink="http://www.w3.org/1999/xlink" version="1.1" >
<text x="0" y="0" stroke="transparent" fill="#000000" transform="matrix(0.0666667 0 0 0.0666667 57.6078 17.0259)" style="font:normal normal normal 200px 'Arial'" >
O</text>
<text x="0" y="0" stroke="transparent" fill="#000000" transform="matrix(0.0666667 0 0 0.0666667 129.871 54.7284)" style="font:normal normal normal 200px 'Arial'" >
O</text>
<path stroke="transparent" fill="#000000" transform="matrix(0.0666667 0 0 0.0666667 -288.433 -442.433)" d="M 5330.75,7421.81 L 5331.33,7410.6 L 5340.75,7404.49 L 5850.95,7699.06 L 5850.95,7722.15 L 5330.75,7421.81 Z " />
<path stroke="transparent" fill="#000000" transform="matrix(0.0666667 0 0 0.0666667 -288.433 -442.433)" d="M 4780.64,7666.74 L 4785.78,7642.55 L 5320.63,7404.42 L 5331.33,7410.6 L 5330.75,7421.81 L 4780.64,7666.74 Z " />
<path stroke="transparent" fill="#000000" transform="matrix(0.0666667 0 0 0.0666667 -288.433 -442.433)" d="M 4805.78,7576.73 L 4797.64,7558.46 L 5250.19,7356.97 L 5258.33,7375.24 L 4805.78,7576.73 Z " />
<path stroke="transparent" fill="#000000" transform="matrix(0.0666667 0 0 0.0666667 -288.433 -442.433)" d="M 4369.44,7210.05 L 4394.02,7207.47 L 4785.78,7642.55 L 4780.64,7666.74 L 4369.44,7210.05 Z " />
<path stroke="transparent" fill="#000000" transform="matrix(0.0666667 0 0 0.0666667 -288.433 -442.433)" d="M 4676.7,6677.85 L 4686.76,6700.43 L 4394.02,7207.47 L 4369.44,7210.05 L 4676.7,6677.85 Z " />
<path stroke="transparent" fill="#000000" transform="matrix(0.0666667 0 0 0.0666667 -288.433 -442.433)" d="M 4709.27,6765.44 L 4726.59,6775.44 L 4478.9,7204.45 L 4461.58,7194.45 L 4709.27,6765.44 Z " />
<path stroke="transparent" fill="#000000" transform="matrix(0.0666667 0 0 0.0666667 -288.433 -442.433)" d="M 5165.95,6781.84 L 5161.79,6801.41 L 4686.76,6700.43 L 4676.7,6677.85 L 5165.95,6781.84 Z " />
<path stroke="transparent" fill="#000000" transform="matrix(0.0666667 0 0 0.0666667 -288.433 -442.433)" d="M 5271.15,6933.68 L 5291.04,6931.59 L 5340.75,7404.49 L 5331.33,7410.6 L 5320.63,7404.42 L 5271.15,6933.68 Z " />
<path stroke="transparent" fill="#000000" transform="matrix(0.0666667 0 0 0.0666667 -288.433 -442.433)" d="M 6265.96,7459.45 L 6275.96,7476.77 L 5850.95,7722.15 L 5850.95,7699.06 L 6265.96,7459.45 Z " />
<path stroke="transparent" fill="#000000" transform="matrix(0.0666667 0 0 0.0666667 -288.433 -442.433)" d="M 6229.96,7397.09 L 6239.96,7414.41 L 5855.95,7636.12 L 5845.95,7618.8 L 6229.96,7397.09 Z " />
</svg>
