<?xml version="1.0" standalone="no" ?>
<!DOCTYPE svg PUBLIC "-//W3C//DTD SVG 1.1//EN" "http://www.w3.org/Graphics/SVG/1.1/DTD/svg11.dtd">
<svg width="149px" height="133px" viewBox="0 0 149 133" xmlns="http://www.w3.org/2000/svg" xmlns:xlink="http://www.w3.org/1999/xlink" version="1.1" >
<text x="0" y="0" stroke="transparent" fill="#000000" transform="matrix(0.0666667 0 0 0.0666667 138.076 34.3429)" style="font:normal normal normal 200px 'Arial'" >
F</text>
<text x="0" y="0" stroke="transparent" fill="#000000" transform="matrix(0.0666667 0 0 0.0666667 103.435 14.3429)" style="font:normal normal normal 200px 'Arial'" >
F</text>
<text x="0" y="0" stroke="transparent" fill="#000000" transform="matrix(0.0666667 0 0 0.0666667 138.076 74.3429)" style="font:normal normal normal 200px 'Arial'" >
F</text>
<path stroke="transparent" fill="#000000" transform="matrix(0.0666667 0 0 0.0666667 -285.433 -413.433)" d="M 5384.42,7244.42 L 5374.42,7238.64 L 5374.42,7227.1 L 5884.03,6932.87 L 5894.03,6938.64 L 5894.03,6950.19 L 5384.42,7244.42 Z " />
<path stroke="transparent" fill="#000000" transform="matrix(0.0666667 0 0 0.0666667 -285.433 -413.433)" d="M 5384.42,7844.42 L 5364.42,7832.87 L 5364.42,7244.42 L 5374.42,7238.64 L 5384.42,7244.42 L 5384.42,7844.42 Z " />
<path stroke="transparent" fill="#000000" transform="matrix(0.0666667 0 0 0.0666667 -285.433 -413.433)" d="M 4854.8,8150.19 L 4854.8,8127.1 L 5364.42,7832.87 L 5384.42,7844.42 L 4854.8,8150.19 Z " />
<path stroke="transparent" fill="#000000" transform="matrix(0.0666667 0 0 0.0666667 -285.433 -413.433)" d="M 4859.8,8064.16 L 4849.8,8046.84 L 5297.42,7788.41 L 5307.42,7805.73 L 4859.8,8064.16 Z " />
<path stroke="transparent" fill="#000000" transform="matrix(0.0666667 0 0 0.0666667 -285.433 -413.433)" d="M 4325.19,7844.42 L 4345.19,7832.87 L 4854.8,8127.1 L 4854.8,8150.19 L 4325.19,7844.42 Z " />
<path stroke="transparent" fill="#000000" transform="matrix(0.0666667 0 0 0.0666667 -285.433 -413.433)" d="M 4325.19,7232.87 L 4345.19,7244.42 L 4345.19,7832.87 L 4325.19,7844.42 L 4325.19,7232.87 Z " />
<path stroke="transparent" fill="#000000" transform="matrix(0.0666667 0 0 0.0666667 -285.433 -413.433)" d="M 4397.19,7280.21 L 4417.19,7280.21 L 4417.19,7797.07 L 4397.19,7797.07 L 4397.19,7280.21 Z " />
<path stroke="transparent" fill="#000000" transform="matrix(0.0666667 0 0 0.0666667 -285.433 -413.433)" d="M 4854.8,6927.1 L 4854.8,6950.19 L 4345.19,7244.42 L 4325.19,7232.87 L 4854.8,6927.1 Z " />
<path stroke="transparent" fill="#000000" transform="matrix(0.0666667 0 0 0.0666667 -285.433 -413.433)" d="M 4854.8,6950.19 L 4854.8,6927.1 L 5374.42,7227.1 L 5374.42,7238.64 L 5364.42,7244.42 L 4854.8,6950.19 Z " />
<path stroke="transparent" fill="#000000" transform="matrix(0.0666667 0 0 0.0666667 -285.433 -413.433)" d="M 4849.8,7030.44 L 4859.8,7013.12 L 5307.42,7271.55 L 5297.42,7288.87 L 4849.8,7030.44 Z " />
<path stroke="transparent" fill="#000000" transform="matrix(0.0666667 0 0 0.0666667 -285.433 -413.433)" d="M 6307.59,6688.33 L 6317.59,6705.65 L 5914.03,6938.64 L 5894.03,6938.64 L 5904.03,6921.32 L 6307.59,6688.33 Z " />
<path stroke="transparent" fill="#000000" transform="matrix(0.0666667 0 0 0.0666667 -285.433 -413.433)" d="M 5884.03,6455.81 L 5904.03,6455.81 L 5904.03,6921.32 L 5894.03,6938.64 L 5884.03,6932.87 L 5884.03,6455.81 Z " />
<path stroke="transparent" fill="#000000" transform="matrix(0.0666667 0 0 0.0666667 -285.433 -413.433)" d="M 6323.8,7175.22 L 6313.8,7192.54 L 5894.03,6950.19 L 5894.03,6938.64 L 5914.03,6938.64 L 6323.8,7175.22 Z " />
</svg>
