<?xml version="1.0" standalone="no" ?>
<!DOCTYPE svg PUBLIC "-//W3C//DTD SVG 1.1//EN" "http://www.w3.org/Graphics/SVG/1.1/DTD/svg11.dtd">
<svg width="146px" height="127px" viewBox="0 0 146 127" xmlns="http://www.w3.org/2000/svg" xmlns:xlink="http://www.w3.org/1999/xlink" version="1.1" >
<path stroke="transparent" fill="#000000" transform="matrix(0.0666667 0 0 0.0666667 -287.433 -416.433)" d="M 4882.88,7517.32 L 4882.88,7494.23 L 5392.5,7200 L 5402.5,7205.77 L 5402.5,7217.32 L 4882.88,7517.32 Z " />
<path stroke="transparent" fill="#000000" transform="matrix(0.0666667 0 0 0.0666667 -287.433 -416.433)" d="M 4353.27,7211.55 L 4373.27,7200 L 4882.88,7494.23 L 4882.88,7517.32 L 4353.27,7211.55 Z " />
<path stroke="transparent" fill="#000000" transform="matrix(0.0666667 0 0 0.0666667 -287.433 -416.433)" d="M 4430.27,7172.86 L 4440.27,7155.54 L 4887.88,7413.97 L 4877.88,7431.3 L 4430.27,7172.86 Z " />
<path stroke="transparent" fill="#000000" transform="matrix(0.0666667 0 0 0.0666667 -287.433 -416.433)" d="M 4353.27,6600 L 4373.27,6611.55 L 4373.27,7200 L 4353.27,7211.55 L 4353.27,6600 Z " />
<path stroke="transparent" fill="#000000" transform="matrix(0.0666667 0 0 0.0666667 -287.433 -416.433)" d="M 4882.88,6294.23 L 4882.88,6317.32 L 4373.27,6611.55 L 4353.27,6600 L 4882.88,6294.23 Z " />
<path stroke="transparent" fill="#000000" transform="matrix(0.0666667 0 0 0.0666667 -287.433 -416.433)" d="M 4877.88,6380.25 L 4887.88,6397.57 L 4440.27,6656 L 4430.27,6638.68 L 4877.88,6380.25 Z " />
<path stroke="transparent" fill="#000000" transform="matrix(0.0666667 0 0 0.0666667 -287.433 -416.433)" d="M 5412.5,6600 L 5392.5,6611.55 L 4882.88,6317.32 L 4882.88,6294.23 L 5412.5,6600 Z " />
<path stroke="transparent" fill="#000000" transform="matrix(0.0666667 0 0 0.0666667 -287.433 -416.433)" d="M 5392.5,6611.55 L 5412.5,6600 L 5412.5,7200 L 5402.5,7205.77 L 5392.5,7200 L 5392.5,6611.55 Z " />
<path stroke="transparent" fill="#000000" transform="matrix(0.0666667 0 0 0.0666667 -287.433 -416.433)" d="M 5320.5,6647.34 L 5340.5,6647.34 L 5340.5,7164.2 L 5320.5,7164.2 L 5320.5,6647.34 Z " />
<path stroke="transparent" fill="#000000" transform="matrix(0.0666667 0 0 0.0666667 -287.433 -416.433)" d="M 5932.12,8105.77 L 5912.12,8105.77 L 5912.12,7511.55 L 5922.12,7505.77 L 5932.12,7511.55 L 5932.12,8105.77 Z " />
<path stroke="transparent" fill="#000000" transform="matrix(0.0666667 0 0 0.0666667 -287.433 -416.433)" d="M 6436.73,7197.11 L 6446.73,7214.43 L 5932.12,7511.55 L 5922.12,7505.77 L 5922.12,7494.23 L 6436.73,7197.11 Z " />
<path stroke="transparent" fill="#000000" transform="matrix(0.0666667 0 0 0.0666667 -287.433 -416.433)" d="M 5922.12,7494.23 L 5922.12,7505.77 L 5912.12,7511.55 L 5402.5,7217.32 L 5402.5,7205.77 L 5412.5,7200 L 5922.12,7494.23 Z " />
</svg>
