<?xml version="1.0" standalone="no" ?>
<!DOCTYPE svg PUBLIC "-//W3C//DTD SVG 1.1//EN" "http://www.w3.org/Graphics/SVG/1.1/DTD/svg11.dtd">
<svg width="181px" height="127px" viewBox="0 0 181 127" xmlns="http://www.w3.org/2000/svg" xmlns:xlink="http://www.w3.org/1999/xlink" version="1.1" >
<path stroke="transparent" fill="#000000" transform="matrix(0.0666667 0 0 0.0666667 -269.433 -416.433)" d="M 4620.58,6594.23 L 4620.58,6605.77 L 4610.58,6611.55 L 4095.96,6314.43 L 4105.96,6297.11 L 4620.58,6594.23 Z " />
<path stroke="transparent" fill="#000000" transform="matrix(0.0666667 0 0 0.0666667 -269.433 -416.433)" d="M 5140.19,6294.23 L 5140.19,6317.32 L 4630.58,6611.55 L 4620.58,6605.77 L 4620.58,6594.23 L 5140.19,6294.23 Z " />
<path stroke="transparent" fill="#000000" transform="matrix(0.0666667 0 0 0.0666667 -269.433 -416.433)" d="M 5669.81,6600 L 5649.81,6611.55 L 5140.19,6317.32 L 5140.19,6294.23 L 5669.81,6600 Z " />
<path stroke="transparent" fill="#000000" transform="matrix(0.0666667 0 0 0.0666667 -269.433 -416.433)" d="M 5592.81,6638.68 L 5582.81,6656 L 5135.19,6397.57 L 5145.19,6380.25 L 5592.81,6638.68 Z " />
<path stroke="transparent" fill="#000000" transform="matrix(0.0666667 0 0 0.0666667 -269.433 -416.433)" d="M 5669.81,7200 L 5659.81,7205.77 L 5649.81,7200 L 5649.81,6611.55 L 5669.81,6600 L 5669.81,7200 Z " />
<path stroke="transparent" fill="#000000" transform="matrix(0.0666667 0 0 0.0666667 -269.433 -416.433)" d="M 5140.19,7517.32 L 5140.19,7494.23 L 5649.81,7200 L 5659.81,7205.77 L 5659.81,7217.32 L 5140.19,7517.32 Z " />
<path stroke="transparent" fill="#000000" transform="matrix(0.0666667 0 0 0.0666667 -269.433 -416.433)" d="M 5145.19,7431.3 L 5135.19,7413.97 L 5582.81,7155.54 L 5592.81,7172.86 L 5145.19,7431.3 Z " />
<path stroke="transparent" fill="#000000" transform="matrix(0.0666667 0 0 0.0666667 -269.433 -416.433)" d="M 4610.58,7211.55 L 4630.58,7200 L 5140.19,7494.23 L 5140.19,7517.32 L 4610.58,7211.55 Z " />
<path stroke="transparent" fill="#000000" transform="matrix(0.0666667 0 0 0.0666667 -269.433 -416.433)" d="M 4630.58,7200 L 4610.58,7211.55 L 4610.58,6611.55 L 4620.58,6605.77 L 4630.58,6611.55 L 4630.58,7200 Z " />
<path stroke="transparent" fill="#000000" transform="matrix(0.0666667 0 0 0.0666667 -269.433 -416.433)" d="M 4702.58,7164.2 L 4682.58,7164.2 L 4682.58,6647.34 L 4702.58,6647.34 L 4702.58,7164.2 Z " />
<path stroke="transparent" fill="#000000" transform="matrix(0.0666667 0 0 0.0666667 -269.433 -416.433)" d="M 6189.42,8105.77 L 6169.42,8105.77 L 6169.42,7511.55 L 6179.42,7505.77 L 6189.42,7511.55 L 6189.42,8105.77 Z " />
<path stroke="transparent" fill="#000000" transform="matrix(0.0666667 0 0 0.0666667 -269.433 -416.433)" d="M 6694.04,7197.11 L 6704.04,7214.43 L 6189.42,7511.55 L 6179.42,7505.77 L 6179.42,7494.23 L 6694.04,7197.11 Z " />
<path stroke="transparent" fill="#000000" transform="matrix(0.0666667 0 0 0.0666667 -269.433 -416.433)" d="M 6179.42,7494.23 L 6179.42,7505.77 L 6169.42,7511.55 L 5659.81,7217.32 L 5659.81,7205.77 L 5669.81,7200 L 6179.42,7494.23 Z " />
</svg>
