<?xml version="1.0" standalone="no" ?>
<!DOCTYPE svg PUBLIC "-//W3C//DTD SVG 1.1//EN" "http://www.w3.org/Graphics/SVG/1.1/DTD/svg11.dtd">
<svg width="145px" height="67px" viewBox="0 0 145 67" xmlns="http://www.w3.org/2000/svg" xmlns:xlink="http://www.w3.org/1999/xlink" version="1.1" >
<text x="0" y="0" stroke="transparent" fill="#000000" transform="matrix(0.0666667 0 0 0.0666667 102.008 63.5872)" style="font:normal normal normal 200px 'Arial'" >
O</text>
<path stroke="transparent" fill="#000000" transform="matrix(0.0666667 0 0 0.0666667 -287.433 -446.433)" d="M 6434.23,7263.65 L 6444.23,7280.97 L 6017.23,7527.49 L 6007.23,7510.17 L 6434.23,7263.65 Z " />
<path stroke="transparent" fill="#000000" transform="matrix(0.0666667 0 0 0.0666667 -287.433 -446.433)" d="M 4880.38,7583.85 L 4880.38,7560.76 L 5386.34,7268.65 L 5400,7272.31 L 5400,7283.85 L 4880.38,7583.85 Z " />
<path stroke="transparent" fill="#000000" transform="matrix(0.0666667 0 0 0.0666667 -287.433 -446.433)" d="M 4355.77,7280.97 L 4365.77,7263.65 L 4880.38,7560.76 L 4880.38,7583.85 L 4355.77,7280.97 Z " />
<path stroke="transparent" fill="#000000" transform="matrix(0.0666667 0 0 0.0666667 -287.433 -446.433)" d="M 5691.34,6747.69 L 5708.66,6757.69 L 5413.66,7268.65 L 5400,7272.31 L 5400,7252.31 L 5691.34,6747.69 Z " />
<path stroke="transparent" fill="#000000" transform="matrix(0.0666667 0 0 0.0666667 -287.433 -446.433)" d="M 5091.34,6757.69 L 5108.66,6747.69 L 5400,7252.31 L 5400,7272.31 L 5386.34,7268.65 L 5091.34,6757.69 Z " />
<path stroke="transparent" fill="#000000" transform="matrix(0.0666667 0 0 0.0666667 -287.433 -446.433)" d="M 5400,7283.85 L 5400,7272.31 L 5413.66,7268.65 L 5832,7510.17 L 5822,7527.49 L 5400,7283.85 Z " />
</svg>
